solid ascii
  facet normal 0.000000e+000 -1.000000e+000 1.261617e-016
    outer loop
      vertex   2.500000e+001 -2.000000e+001 -4.950000e+002
      vertex   2.500000e+001 -2.000000e+001 0.000000e+000
      vertex   -3.000000e+002 -2.000000e+001 0.000000e+000
    endloop
  endfacet
  facet normal 0.000000e+000 -1.000000e+000 1.261617e-016
    outer loop
      vertex   -3.000000e+002 -2.000000e+001 0.000000e+000
      vertex   -3.000000e+002 -2.000000e+001 -4.950000e+002
      vertex   2.500000e+001 -2.000000e+001 -4.950000e+002
    endloop
  endfacet
  facet normal 0.000000e+000 0.000000e+000 1.000000e+000
    outer loop
      vertex   2.500000e+001 -2.200000e+002 -4.950000e+002
      vertex   2.500000e+001 -2.000000e+001 -4.950000e+002
      vertex   -3.000000e+002 -2.000000e+001 -4.950000e+002
    endloop
  endfacet
  facet normal 0.000000e+000 0.000000e+000 1.000000e+000
    outer loop
      vertex   -3.000000e+002 -2.000000e+001 -4.950000e+002
      vertex   -3.000000e+002 -2.200000e+002 -4.950000e+002
      vertex   2.500000e+001 -2.200000e+002 -4.950000e+002
    endloop
  endfacet
  facet normal 0.000000e+000 -1.000000e+000 0.000000e+000
    outer loop
      vertex   2.500000e+001 -2.200000e+002 -5.350000e+002
      vertex   2.500000e+001 -2.200000e+002 -4.950000e+002
      vertex   -3.000000e+002 -2.200000e+002 -4.950000e+002
    endloop
  endfacet
  facet normal 0.000000e+000 -1.000000e+000 0.000000e+000
    outer loop
      vertex   -3.000000e+002 -2.200000e+002 -4.950000e+002
      vertex   -3.000000e+002 -2.200000e+002 -5.350000e+002
      vertex   2.500000e+001 -2.200000e+002 -5.350000e+002
    endloop
  endfacet
  facet normal 0.000000e+000 0.000000e+000 -1.000000e+000
    outer loop
      vertex   2.500000e+001 -2.000000e+001 -5.350000e+002
      vertex   2.500000e+001 -2.200000e+002 -5.350000e+002
      vertex   -3.000000e+002 -2.200000e+002 -5.350000e+002
    endloop
  endfacet
  facet normal 0.000000e+000 0.000000e+000 -1.000000e+000
    outer loop
      vertex   -3.000000e+002 -2.200000e+002 -5.350000e+002
      vertex   -3.000000e+002 -2.000000e+001 -5.350000e+002
      vertex   2.500000e+001 -2.000000e+001 -5.350000e+002
    endloop
  endfacet
  facet normal 0.000000e+000 -1.000000e+000 2.207830e-016
    outer loop
      vertex   2.500000e+001 -2.000000e+001 -6.450000e+002
      vertex   2.500000e+001 -2.000000e+001 -5.350000e+002
      vertex   -3.000000e+002 -2.000000e+001 -5.350000e+002
    endloop
  endfacet
  facet normal 0.000000e+000 -1.000000e+000 2.207830e-016
    outer loop
      vertex   -3.000000e+002 -2.000000e+001 -5.350000e+002
      vertex   -3.000000e+002 -2.000000e+001 -6.450000e+002
      vertex   2.500000e+001 -2.000000e+001 -6.450000e+002
    endloop
  endfacet
  facet normal 0.000000e+000 -5.551115e-016 1.000000e+000
    outer loop
      vertex   2.500000e+001 -2.200000e+002 -6.450000e+002
      vertex   2.500000e+001 -2.000000e+001 -6.450000e+002
      vertex   -3.000000e+002 -2.000000e+001 -6.450000e+002
    endloop
  endfacet
  facet normal 0.000000e+000 -5.551115e-016 1.000000e+000
    outer loop
      vertex   -3.000000e+002 -2.000000e+001 -6.450000e+002
      vertex   -3.000000e+002 -2.200000e+002 -6.450000e+002
      vertex   2.500000e+001 -2.200000e+002 -6.450000e+002
    endloop
  endfacet
  facet normal 0.000000e+000 -1.000000e+000 0.000000e+000
    outer loop
      vertex   2.500000e+001 -2.200000e+002 -6.850000e+002
      vertex   2.500000e+001 -2.200000e+002 -6.450000e+002
      vertex   -3.000000e+002 -2.200000e+002 -6.450000e+002
    endloop
  endfacet
  facet normal 0.000000e+000 -1.000000e+000 0.000000e+000
    outer loop
      vertex   -3.000000e+002 -2.200000e+002 -6.450000e+002
      vertex   -3.000000e+002 -2.200000e+002 -6.850000e+002
      vertex   2.500000e+001 -2.200000e+002 -6.850000e+002
    endloop
  endfacet
  facet normal 0.000000e+000 7.569702e-016 -1.000000e+000
    outer loop
      vertex   2.500000e+001 2.200000e+002 -6.850000e+002
      vertex   2.500000e+001 -2.200000e+002 -6.850000e+002
      vertex   -3.000000e+002 -2.200000e+002 -6.850000e+002
    endloop
  endfacet
  facet normal 0.000000e+000 7.569702e-016 -1.000000e+000
    outer loop
      vertex   -3.000000e+002 -2.200000e+002 -6.850000e+002
      vertex   -3.000000e+002 2.200000e+002 -6.850000e+002
      vertex   2.500000e+001 2.200000e+002 -6.850000e+002
    endloop
  endfacet
  facet normal 0.000000e+000 1.000000e+000 0.000000e+000
    outer loop
      vertex   2.500000e+001 2.200000e+002 -6.450000e+002
      vertex   2.500000e+001 2.200000e+002 -6.850000e+002
      vertex   -3.000000e+002 2.200000e+002 -6.850000e+002
    endloop
  endfacet
  facet normal 0.000000e+000 1.000000e+000 0.000000e+000
    outer loop
      vertex   -3.000000e+002 2.200000e+002 -6.850000e+002
      vertex   -3.000000e+002 2.200000e+002 -6.450000e+002
      vertex   2.500000e+001 2.200000e+002 -6.450000e+002
    endloop
  endfacet
  facet normal 0.000000e+000 -1.110223e-015 1.000000e+000
    outer loop
      vertex   2.500000e+001 2.000000e+001 -6.450000e+002
      vertex   2.500000e+001 2.200000e+002 -6.450000e+002
      vertex   -3.000000e+002 2.200000e+002 -6.450000e+002
    endloop
  endfacet
  facet normal 0.000000e+000 -1.110223e-015 1.000000e+000
    outer loop
      vertex   -3.000000e+002 2.200000e+002 -6.450000e+002
      vertex   -3.000000e+002 2.000000e+001 -6.450000e+002
      vertex   2.500000e+001 2.000000e+001 -6.450000e+002
    endloop
  endfacet
  facet normal 0.000000e+000 1.000000e+000 0.000000e+000
    outer loop
      vertex   2.500000e+001 2.000000e+001 -5.350000e+002
      vertex   2.500000e+001 2.000000e+001 -6.450000e+002
      vertex   -3.000000e+002 2.000000e+001 -6.450000e+002
    endloop
  endfacet
  facet normal 0.000000e+000 1.000000e+000 0.000000e+000
    outer loop
      vertex   -3.000000e+002 2.000000e+001 -6.450000e+002
      vertex   -3.000000e+002 2.000000e+001 -5.350000e+002
      vertex   2.500000e+001 2.000000e+001 -5.350000e+002
    endloop
  endfacet
  facet normal 0.000000e+000 0.000000e+000 -1.000000e+000
    outer loop
      vertex   2.500000e+001 2.200000e+002 -5.350000e+002
      vertex   2.500000e+001 2.000000e+001 -5.350000e+002
      vertex   -3.000000e+002 2.000000e+001 -5.350000e+002
    endloop
  endfacet
  facet normal 0.000000e+000 0.000000e+000 -1.000000e+000
    outer loop
      vertex   -3.000000e+002 2.000000e+001 -5.350000e+002
      vertex   -3.000000e+002 2.200000e+002 -5.350000e+002
      vertex   2.500000e+001 2.200000e+002 -5.350000e+002
    endloop
  endfacet
  facet normal 0.000000e+000 1.000000e+000 0.000000e+000
    outer loop
      vertex   2.500000e+001 2.200000e+002 -4.950000e+002
      vertex   2.500000e+001 2.200000e+002 -5.350000e+002
      vertex   -3.000000e+002 2.200000e+002 -5.350000e+002
    endloop
  endfacet
  facet normal 0.000000e+000 1.000000e+000 0.000000e+000
    outer loop
      vertex   -3.000000e+002 2.200000e+002 -5.350000e+002
      vertex   -3.000000e+002 2.200000e+002 -4.950000e+002
      vertex   2.500000e+001 2.200000e+002 -4.950000e+002
    endloop
  endfacet
  facet normal 1.000000e+000 0.000000e+000 0.000000e+000
    outer loop
      vertex   2.500000e+001 2.000000e+001 -6.450000e+002
      vertex   2.500000e+001 2.000000e+001 -5.350000e+002
      vertex   2.500000e+001 -2.000000e+001 -5.350000e+002
    endloop
  endfacet
  facet normal 1.000000e+000 -3.469447e-016 0.000000e+000
    outer loop
      vertex   2.500000e+001 2.000000e+001 -4.950000e+002
      vertex   2.500000e+001 2.000000e+001 0.000000e+000
      vertex   2.500000e+001 -2.000000e+001 0.000000e+000
    endloop
  endfacet
  facet normal 1.000000e+000 0.000000e+000 0.000000e+000
    outer loop
      vertex   2.500000e+001 -2.200000e+002 -6.850000e+002
      vertex   2.500000e+001 2.000000e+001 -6.450000e+002
      vertex   2.500000e+001 -2.000000e+001 -6.450000e+002
    endloop
  endfacet
  facet normal 1.000000e+000 0.000000e+000 0.000000e+000
    outer loop
      vertex   2.500000e+001 2.000000e+001 -5.350000e+002
      vertex   2.500000e+001 -2.000000e+001 -4.950000e+002
      vertex   2.500000e+001 -2.000000e+001 -5.350000e+002
    endloop
  endfacet
  facet normal 1.000000e+000 -3.469447e-016 -3.469447e-016
    outer loop
      vertex   2.500000e+001 -2.000000e+001 -4.950000e+002
      vertex   2.500000e+001 2.000000e+001 -5.350000e+002
      vertex   2.500000e+001 2.000000e+001 -4.950000e+002
    endloop
  endfacet
  facet normal 1.000000e+000 6.938894e-017 0.000000e+000
    outer loop
      vertex   2.500000e+001 2.200000e+002 -5.350000e+002
      vertex   2.500000e+001 2.200000e+002 -4.950000e+002
      vertex   2.500000e+001 2.000000e+001 -4.950000e+002
    endloop
  endfacet
  facet normal 1.000000e+000 0.000000e+000 0.000000e+000
    outer loop
      vertex   2.500000e+001 -2.000000e+001 -5.350000e+002
      vertex   2.500000e+001 -2.000000e+001 -6.450000e+002
      vertex   2.500000e+001 2.000000e+001 -6.450000e+002
    endloop
  endfacet
  facet normal 1.000000e+000 0.000000e+000 0.000000e+000
    outer loop
      vertex   2.500000e+001 -2.200000e+002 -4.950000e+002
      vertex   2.500000e+001 -2.200000e+002 -5.350000e+002
      vertex   2.500000e+001 -2.000000e+001 -5.350000e+002
    endloop
  endfacet
  facet normal 1.000000e+000 0.000000e+000 -3.469447e-016
    outer loop
      vertex   2.500000e+001 2.000000e+001 -4.950000e+002
      vertex   2.500000e+001 2.000000e+001 -5.350000e+002
      vertex   2.500000e+001 2.200000e+002 -5.350000e+002
    endloop
  endfacet
  facet normal 1.000000e+000 0.000000e+000 0.000000e+000
    outer loop
      vertex   2.500000e+001 -2.000000e+001 -5.350000e+002
      vertex   2.500000e+001 -2.000000e+001 -4.950000e+002
      vertex   2.500000e+001 -2.200000e+002 -4.950000e+002
    endloop
  endfacet
  facet normal 1.000000e+000 0.000000e+000 0.000000e+000
    outer loop
      vertex   2.500000e+001 -2.000000e+001 -6.450000e+002
      vertex   2.500000e+001 -2.200000e+002 -6.450000e+002
      vertex   2.500000e+001 -2.200000e+002 -6.850000e+002
    endloop
  endfacet
  facet normal 1.000000e+000 0.000000e+000 0.000000e+000
    outer loop
      vertex   2.500000e+001 2.200000e+002 -6.850000e+002
      vertex   2.500000e+001 2.200000e+002 -6.450000e+002
      vertex   2.500000e+001 2.000000e+001 -6.450000e+002
    endloop
  endfacet
  facet normal 1.000000e+000 0.000000e+000 0.000000e+000
    outer loop
      vertex   2.500000e+001 2.000000e+001 -6.450000e+002
      vertex   2.500000e+001 -2.200000e+002 -6.850000e+002
      vertex   2.500000e+001 2.200000e+002 -6.850000e+002
    endloop
  endfacet
  facet normal 1.000000e+000 -3.469447e-016 4.377114e-032
    outer loop
      vertex   2.500000e+001 -2.000000e+001 0.000000e+000
      vertex   2.500000e+001 -2.000000e+001 -4.950000e+002
      vertex   2.500000e+001 2.000000e+001 -4.950000e+002
    endloop
  endfacet
  facet normal -1.000000e+000 0.000000e+000 0.000000e+000
    outer loop
      vertex   -3.000000e+002 2.000000e+001 -6.450000e+002
      vertex   -3.000000e+002 -2.000000e+001 -6.450000e+002
      vertex   -3.000000e+002 -2.000000e+001 -5.350000e+002
    endloop
  endfacet
  facet normal -1.000000e+000 0.000000e+000 0.000000e+000
    outer loop
      vertex   -3.000000e+002 2.000000e+001 -4.950000e+002
      vertex   -3.000000e+002 -2.000000e+001 -4.950000e+002
      vertex   -3.000000e+002 -2.000000e+001 0.000000e+000
    endloop
  endfacet
  facet normal -1.000000e+000 0.000000e+000 0.000000e+000
    outer loop
      vertex   -3.000000e+002 -2.000000e+001 -5.350000e+002
      vertex   -3.000000e+002 2.000000e+001 -4.950000e+002
      vertex   -3.000000e+002 2.000000e+001 -5.350000e+002
    endloop
  endfacet
  facet normal -1.000000e+000 0.000000e+000 0.000000e+000
    outer loop
      vertex   -3.000000e+002 -2.200000e+002 -6.850000e+002
      vertex   -3.000000e+002 -2.200000e+002 -6.450000e+002
      vertex   -3.000000e+002 -2.000000e+001 -6.450000e+002
    endloop
  endfacet
  facet normal -1.000000e+000 0.000000e+000 0.000000e+000
    outer loop
      vertex   -3.000000e+002 2.000000e+001 -4.950000e+002
      vertex   -3.000000e+002 -2.000000e+001 -5.350000e+002
      vertex   -3.000000e+002 -2.000000e+001 -4.950000e+002
    endloop
  endfacet
  facet normal -1.000000e+000 0.000000e+000 0.000000e+000
    outer loop
      vertex   -3.000000e+002 -2.200000e+002 -5.350000e+002
      vertex   -3.000000e+002 -2.200000e+002 -4.950000e+002
      vertex   -3.000000e+002 -2.000000e+001 -4.950000e+002
    endloop
  endfacet
  facet normal -1.000000e+000 0.000000e+000 0.000000e+000
    outer loop
      vertex   -3.000000e+002 -2.000000e+001 -6.450000e+002
      vertex   -3.000000e+002 2.000000e+001 -6.450000e+002
      vertex   -3.000000e+002 -2.200000e+002 -6.850000e+002
    endloop
  endfacet
  facet normal -1.000000e+000 0.000000e+000 0.000000e+000
    outer loop
      vertex   -3.000000e+002 2.200000e+002 -4.950000e+002
      vertex   -3.000000e+002 2.200000e+002 -5.350000e+002
      vertex   -3.000000e+002 2.000000e+001 -5.350000e+002
    endloop
  endfacet
  facet normal -1.000000e+000 0.000000e+000 0.000000e+000
    outer loop
      vertex   -3.000000e+002 -2.000000e+001 -4.950000e+002
      vertex   -3.000000e+002 -2.000000e+001 -5.350000e+002
      vertex   -3.000000e+002 -2.200000e+002 -5.350000e+002
    endloop
  endfacet
  facet normal -1.000000e+000 0.000000e+000 0.000000e+000
    outer loop
      vertex   -3.000000e+002 2.000000e+001 -5.350000e+002
      vertex   -3.000000e+002 2.000000e+001 -4.950000e+002
      vertex   -3.000000e+002 2.200000e+002 -4.950000e+002
    endloop
  endfacet
  facet normal -1.000000e+000 0.000000e+000 0.000000e+000
    outer loop
      vertex   -3.000000e+002 2.200000e+002 -6.850000e+002
      vertex   -3.000000e+002 -2.200000e+002 -6.850000e+002
      vertex   -3.000000e+002 2.000000e+001 -6.450000e+002
    endloop
  endfacet
  facet normal -1.000000e+000 0.000000e+000 0.000000e+000
    outer loop
      vertex   -3.000000e+002 -2.000000e+001 -5.350000e+002
      vertex   -3.000000e+002 2.000000e+001 -5.350000e+002
      vertex   -3.000000e+002 2.000000e+001 -6.450000e+002
    endloop
  endfacet
  facet normal -1.000000e+000 0.000000e+000 0.000000e+000
    outer loop
      vertex   -3.000000e+002 -2.000000e+001 0.000000e+000
      vertex   -3.000000e+002 2.000000e+001 0.000000e+000
      vertex   -3.000000e+002 2.000000e+001 -4.950000e+002
    endloop
  endfacet
  facet normal -1.000000e+000 0.000000e+000 0.000000e+000
    outer loop
      vertex   -3.000000e+002 2.000000e+001 -6.450000e+002
      vertex   -3.000000e+002 2.200000e+002 -6.450000e+002
      vertex   -3.000000e+002 2.200000e+002 -6.850000e+002
    endloop
  endfacet
  facet normal 0.000000e+000 0.000000e+000 1.000000e+000
    outer loop
      vertex   2.500000e+001 2.000000e+001 -4.950000e+002
      vertex   2.500000e+001 2.200000e+002 -4.950000e+002
      vertex   -3.000000e+002 2.200000e+002 -4.950000e+002
    endloop
  endfacet
  facet normal 0.000000e+000 0.000000e+000 1.000000e+000
    outer loop
      vertex   -3.000000e+002 2.200000e+002 -4.950000e+002
      vertex   -3.000000e+002 2.000000e+001 -4.950000e+002
      vertex   2.500000e+001 2.000000e+001 -4.950000e+002
    endloop
  endfacet
  facet normal 0.000000e+000 1.000000e+000 0.000000e+000
    outer loop
      vertex   2.500000e+001 2.000000e+001 0.000000e+000
      vertex   2.500000e+001 2.000000e+001 -4.950000e+002
      vertex   -3.000000e+002 2.000000e+001 -4.950000e+002
    endloop
  endfacet
  facet normal 0.000000e+000 1.000000e+000 0.000000e+000
    outer loop
      vertex   -3.000000e+002 2.000000e+001 -4.950000e+002
      vertex   -3.000000e+002 2.000000e+001 0.000000e+000
      vertex   2.500000e+001 2.000000e+001 0.000000e+000
    endloop
  endfacet
  facet normal 0.000000e+000 0.000000e+000 1.000000e+000
    outer loop
      vertex   2.500000e+001 -2.000000e+001 0.000000e+000
      vertex   2.500000e+001 2.000000e+001 0.000000e+000
      vertex   -3.000000e+002 2.000000e+001 0.000000e+000
    endloop
  endfacet
  facet normal 0.000000e+000 0.000000e+000 1.000000e+000
    outer loop
      vertex   -3.000000e+002 2.000000e+001 0.000000e+000
      vertex   -3.000000e+002 -2.000000e+001 0.000000e+000
      vertex   2.500000e+001 -2.000000e+001 0.000000e+000
    endloop
  endfacet
endsolid
