solid ascii
  facet normal 0.000000e+000 9.540334e-001 -2.997004e-001
    outer loop
      vertex   2.500000e+001 -6.322205e+001 -4.950000e+002
      vertex   2.500000e+001 -7.414857e+001 -5.297823e+002
      vertex   -3.000000e+002 -7.414857e+001 -5.297823e+002
    endloop
  endfacet
  facet normal 0.000000e+000 9.474262e-001 -3.199743e-001
    outer loop
      vertex   -3.000000e+002 -7.414857e+001 -5.297823e+002
      vertex   2.500000e+001 -7.414857e+001 -5.297823e+002
      vertex   2.500000e+001 -8.581425e+001 -5.643237e+002
    endloop
  endfacet
  facet normal 0.000000e+000 9.403883e-001 -3.401027e-001
    outer loop
      vertex   2.500000e+001 -8.581425e+001 -5.643237e+002
      vertex   2.500000e+001 -9.821378e+001 -5.986086e+002
      vertex   -3.000000e+002 -9.821378e+001 -5.986086e+002
    endloop
  endfacet
  facet normal 0.000000e+000 9.329228e-001 -3.600765e-001
    outer loop
      vertex   2.500000e+001 -9.821378e+001 -5.986086e+002
      vertex   2.500000e+001 -1.113415e+002 -6.326212e+002
      vertex   -3.000000e+002 -1.113415e+002 -6.326212e+002
    endloop
  endfacet
  facet normal 0.000000e+000 9.250331e-001 -3.798866e-001
    outer loop
      vertex   2.500000e+001 -1.113415e+002 -6.326212e+002
      vertex   2.500000e+001 -1.251915e+002 -6.663462e+002
      vertex   -3.000000e+002 -1.251915e+002 -6.663462e+002
    endloop
  endfacet
  facet normal 0.000000e+000 9.167228e-001 -3.995239e-001
    outer loop
      vertex   2.500000e+001 -1.251915e+002 -6.663462e+002
      vertex   2.500000e+001 -1.397574e+002 -6.997683e+002
      vertex   -3.000000e+002 -1.397574e+002 -6.997683e+002
    endloop
  endfacet
  facet normal 0.000000e+000 9.079956e-001 -4.189796e-001
    outer loop
      vertex   -3.000000e+002 -1.397574e+002 -6.997683e+002
      vertex   2.500000e+001 -1.397574e+002 -6.997683e+002
      vertex   2.500000e+001 -1.550326e+002 -7.328721e+002
    endloop
  endfacet
  facet normal 0.000000e+000 8.988557e-001 -4.382448e-001
    outer loop
      vertex   2.500000e+001 -1.550326e+002 -7.328721e+002
      vertex   2.500000e+001 -1.710102e+002 -7.656428e+002
      vertex   -3.000000e+002 -1.710102e+002 -7.656428e+002
    endloop
  endfacet
  facet normal 0.000000e+000 8.893070e-001 -4.573107e-001
    outer loop
      vertex   2.500000e+001 -1.710102e+002 -7.656428e+002
      vertex   2.500000e+001 -1.876829e+002 -7.980653e+002
      vertex   -3.000000e+002 -1.876829e+002 -7.980653e+002
    endloop
  endfacet
  facet normal 0.000000e+000 8.793540e-001 -4.761687e-001
    outer loop
      vertex   -3.000000e+002 -1.876829e+002 -7.980653e+002
      vertex   2.500000e+001 -1.876829e+002 -7.980653e+002
      vertex   2.500000e+001 -2.050432e+002 -8.301249e+002
    endloop
  endfacet
  facet normal 0.000000e+000 8.690011e-001 -4.948101e-001
    outer loop
      vertex   2.500000e+001 -2.050432e+002 -8.301249e+002
      vertex   2.500000e+001 -2.230830e+002 -8.618071e+002
      vertex   -3.000000e+002 -2.230830e+002 -8.618071e+002
    endloop
  endfacet
  facet normal 0.000000e+000 8.582531e-001 -5.132266e-001
    outer loop
      vertex   2.500000e+001 -2.230830e+002 -8.618071e+002
      vertex   2.500000e+001 -2.417944e+002 -8.930974e+002
      vertex   -3.000000e+002 -2.417944e+002 -8.930974e+002
    endloop
  endfacet
  facet normal 0.000000e+000 8.471149e-001 -5.314098e-001
    outer loop
      vertex   -3.000000e+002 -2.417944e+002 -8.930974e+002
      vertex   2.500000e+001 -2.417944e+002 -8.930974e+002
      vertex   2.500000e+001 -2.611686e+002 -9.239817e+002
    endloop
  endfacet
  facet normal 0.000000e+000 8.355915e-001 -5.493513e-001
    outer loop
      vertex   2.500000e+001 -2.611686e+002 -9.239817e+002
      vertex   2.500000e+001 -2.811969e+002 -9.544458e+002
      vertex   -3.000000e+002 -2.811969e+002 -9.544458e+002
    endloop
  endfacet
  facet normal 0.000000e+000 8.236882e-001 -5.670430e-001
    outer loop
      vertex   2.500000e+001 -2.811969e+002 -9.544458e+002
      vertex   2.500000e+001 -3.018703e+002 -9.844760e+002
      vertex   -3.000000e+002 -3.018703e+002 -9.844760e+002
    endloop
  endfacet
  facet normal 0.000000e+000 8.114103e-001 -5.844769e-001
    outer loop
      vertex   -3.000000e+002 -3.018703e+002 -9.844760e+002
      vertex   2.500000e+001 -3.018703e+002 -9.844760e+002
      vertex   2.500000e+001 -3.231792e+002 -1.014059e+003
    endloop
  endfacet
  facet normal 0.000000e+000 7.987636e-001 -6.016450e-001
    outer loop
      vertex   2.500000e+001 -3.231792e+002 -1.014059e+003
      vertex   2.500000e+001 -3.451141e+002 -1.043180e+003
      vertex   -3.000000e+002 -3.451141e+002 -1.043180e+003
    endloop
  endfacet
  facet normal 0.000000e+000 7.857536e-001 -6.185396e-001
    outer loop
      vertex   2.500000e+001 -3.451141e+002 -1.043180e+003
      vertex   2.500000e+001 -3.676649e+002 -1.071827e+003
      vertex   -3.000000e+002 -3.676649e+002 -1.071827e+003
    endloop
  endfacet
  facet normal 0.000000e+000 7.723864e-001 -6.351530e-001
    outer loop
      vertex   -3.000000e+002 -3.676649e+002 -1.071827e+003
      vertex   2.500000e+001 -3.676649e+002 -1.071827e+003
      vertex   2.500000e+001 -3.908214e+002 -1.099987e+003
    endloop
  endfacet
  facet normal 0.000000e+000 7.586679e-001 -6.514775e-001
    outer loop
      vertex   2.500000e+001 -3.908214e+002 -1.099987e+003
      vertex   2.500000e+001 -4.145731e+002 -1.127647e+003
      vertex   -3.000000e+002 -4.145731e+002 -1.127647e+003
    endloop
  endfacet
  facet normal 0.000000e+000 7.586679e-001 -6.514775e-001
    outer loop
      vertex   -3.000000e+002 -4.145731e+002 -1.127647e+003
      vertex   -3.000000e+002 -3.908214e+002 -1.099987e+003
      vertex   2.500000e+001 -3.908214e+002 -1.099987e+003
    endloop
  endfacet
  facet normal 0.000000e+000 7.723864e-001 -6.351530e-001
    outer loop
      vertex   2.500000e+001 -3.908214e+002 -1.099987e+003
      vertex   -3.000000e+002 -3.908214e+002 -1.099987e+003
      vertex   -3.000000e+002 -3.676649e+002 -1.071827e+003
    endloop
  endfacet
  facet normal 0.000000e+000 7.857536e-001 -6.185396e-001
    outer loop
      vertex   -3.000000e+002 -3.676649e+002 -1.071827e+003
      vertex   -3.000000e+002 -3.451141e+002 -1.043180e+003
      vertex   2.500000e+001 -3.451141e+002 -1.043180e+003
    endloop
  endfacet
  facet normal 0.000000e+000 7.987636e-001 -6.016450e-001
    outer loop
      vertex   -3.000000e+002 -3.451141e+002 -1.043180e+003
      vertex   -3.000000e+002 -3.231792e+002 -1.014059e+003
      vertex   2.500000e+001 -3.231792e+002 -1.014059e+003
    endloop
  endfacet
  facet normal 0.000000e+000 8.114103e-001 -5.844769e-001
    outer loop
      vertex   2.500000e+001 -3.231792e+002 -1.014059e+003
      vertex   -3.000000e+002 -3.231792e+002 -1.014059e+003
      vertex   -3.000000e+002 -3.018703e+002 -9.844760e+002
    endloop
  endfacet
  facet normal 0.000000e+000 8.236882e-001 -5.670430e-001
    outer loop
      vertex   -3.000000e+002 -3.018703e+002 -9.844760e+002
      vertex   -3.000000e+002 -2.811969e+002 -9.544458e+002
      vertex   2.500000e+001 -2.811969e+002 -9.544458e+002
    endloop
  endfacet
  facet normal 0.000000e+000 8.355915e-001 -5.493513e-001
    outer loop
      vertex   -3.000000e+002 -2.811969e+002 -9.544458e+002
      vertex   -3.000000e+002 -2.611686e+002 -9.239817e+002
      vertex   2.500000e+001 -2.611686e+002 -9.239817e+002
    endloop
  endfacet
  facet normal 0.000000e+000 8.471149e-001 -5.314098e-001
    outer loop
      vertex   2.500000e+001 -2.611686e+002 -9.239817e+002
      vertex   -3.000000e+002 -2.611686e+002 -9.239817e+002
      vertex   -3.000000e+002 -2.417944e+002 -8.930974e+002
    endloop
  endfacet
  facet normal 0.000000e+000 8.582531e-001 -5.132266e-001
    outer loop
      vertex   -3.000000e+002 -2.417944e+002 -8.930974e+002
      vertex   -3.000000e+002 -2.230830e+002 -8.618071e+002
      vertex   2.500000e+001 -2.230830e+002 -8.618071e+002
    endloop
  endfacet
  facet normal 0.000000e+000 8.690011e-001 -4.948101e-001
    outer loop
      vertex   -3.000000e+002 -2.230830e+002 -8.618071e+002
      vertex   -3.000000e+002 -2.050432e+002 -8.301249e+002
      vertex   2.500000e+001 -2.050432e+002 -8.301249e+002
    endloop
  endfacet
  facet normal 0.000000e+000 8.793540e-001 -4.761687e-001
    outer loop
      vertex   2.500000e+001 -2.050432e+002 -8.301249e+002
      vertex   -3.000000e+002 -2.050432e+002 -8.301249e+002
      vertex   -3.000000e+002 -1.876829e+002 -7.980653e+002
    endloop
  endfacet
  facet normal 0.000000e+000 8.893070e-001 -4.573107e-001
    outer loop
      vertex   -3.000000e+002 -1.876829e+002 -7.980653e+002
      vertex   -3.000000e+002 -1.710102e+002 -7.656428e+002
      vertex   2.500000e+001 -1.710102e+002 -7.656428e+002
    endloop
  endfacet
  facet normal 0.000000e+000 8.988557e-001 -4.382448e-001
    outer loop
      vertex   -3.000000e+002 -1.710102e+002 -7.656428e+002
      vertex   -3.000000e+002 -1.550326e+002 -7.328721e+002
      vertex   2.500000e+001 -1.550326e+002 -7.328721e+002
    endloop
  endfacet
  facet normal 0.000000e+000 9.079956e-001 -4.189796e-001
    outer loop
      vertex   2.500000e+001 -1.550326e+002 -7.328721e+002
      vertex   -3.000000e+002 -1.550326e+002 -7.328721e+002
      vertex   -3.000000e+002 -1.397574e+002 -6.997683e+002
    endloop
  endfacet
  facet normal 0.000000e+000 9.167228e-001 -3.995239e-001
    outer loop
      vertex   -3.000000e+002 -1.397574e+002 -6.997683e+002
      vertex   -3.000000e+002 -1.251915e+002 -6.663462e+002
      vertex   2.500000e+001 -1.251915e+002 -6.663462e+002
    endloop
  endfacet
  facet normal 0.000000e+000 9.250331e-001 -3.798866e-001
    outer loop
      vertex   -3.000000e+002 -1.251915e+002 -6.663462e+002
      vertex   -3.000000e+002 -1.113415e+002 -6.326212e+002
      vertex   2.500000e+001 -1.113415e+002 -6.326212e+002
    endloop
  endfacet
  facet normal 0.000000e+000 9.329228e-001 -3.600765e-001
    outer loop
      vertex   -3.000000e+002 -1.113415e+002 -6.326212e+002
      vertex   -3.000000e+002 -9.821378e+001 -5.986086e+002
      vertex   2.500000e+001 -9.821378e+001 -5.986086e+002
    endloop
  endfacet
  facet normal 0.000000e+000 9.403883e-001 -3.401027e-001
    outer loop
      vertex   -3.000000e+002 -9.821378e+001 -5.986086e+002
      vertex   -3.000000e+002 -8.581425e+001 -5.643237e+002
      vertex   2.500000e+001 -8.581425e+001 -5.643237e+002
    endloop
  endfacet
  facet normal 0.000000e+000 9.474262e-001 -3.199743e-001
    outer loop
      vertex   2.500000e+001 -8.581425e+001 -5.643237e+002
      vertex   -3.000000e+002 -8.581425e+001 -5.643237e+002
      vertex   -3.000000e+002 -7.414857e+001 -5.297823e+002
    endloop
  endfacet
  facet normal 0.000000e+000 9.540334e-001 -2.997004e-001
    outer loop
      vertex   -3.000000e+002 -7.414857e+001 -5.297823e+002
      vertex   -3.000000e+002 -6.322205e+001 -4.950000e+002
      vertex   2.500000e+001 -6.322205e+001 -4.950000e+002
    endloop
  endfacet
  facet normal 0.000000e+000 0.000000e+000 1.000000e+000
    outer loop
      vertex   2.500000e+001 -6.322205e+001 -4.950000e+002
      vertex   -3.000000e+002 -6.322205e+001 -4.950000e+002
      vertex   -3.000000e+002 -8.412820e+001 -4.950000e+002
    endloop
  endfacet
  facet normal 0.000000e+000 0.000000e+000 1.000000e+000
    outer loop
      vertex   -3.000000e+002 -8.412820e+001 -4.950000e+002
      vertex   2.500000e+001 -8.412820e+001 -4.950000e+002
      vertex   2.500000e+001 -6.322205e+001 -4.950000e+002
    endloop
  endfacet
  facet normal -1.295732e-016 -7.586096e-001 6.515455e-001
    outer loop
      vertex   -3.000000e+002 -4.296067e+002 -1.114456e+003
      vertex   2.500000e+001 -4.296067e+002 -1.114456e+003
      vertex   2.500000e+001 -4.063276e+002 -1.087352e+003
    endloop
  endfacet
  facet normal 0.000000e+000 -7.722157e-001 6.353604e-001
    outer loop
      vertex   2.500000e+001 -4.063276e+002 -1.087352e+003
      vertex   2.500000e+001 -3.836267e+002 -1.059761e+003
      vertex   -3.000000e+002 -3.836267e+002 -1.059761e+003
    endloop
  endfacet
  facet normal 0.000000e+000 -7.854766e-001 6.188914e-001
    outer loop
      vertex   -3.000000e+002 -3.615143e+002 -1.031697e+003
      vertex   -3.000000e+002 -3.836267e+002 -1.059761e+003
      vertex   2.500000e+001 -3.836267e+002 -1.059761e+003
    endloop
  endfacet
  facet normal 0.000000e+000 -7.983863e-001 6.021456e-001
    outer loop
      vertex   2.500000e+001 -3.615143e+002 -1.031697e+003
      vertex   2.500000e+001 -3.400002e+002 -1.003171e+003
      vertex   -3.000000e+002 -3.400002e+002 -1.003171e+003
    endloop
  endfacet
  facet normal 0.000000e+000 -8.109390e-001 5.851306e-001
    outer loop
      vertex   2.500000e+001 -3.400002e+002 -1.003171e+003
      vertex   2.500000e+001 -3.190940e+002 -9.741969e+002
      vertex   -3.000000e+002 -3.190940e+002 -9.741969e+002
    endloop
  endfacet
  facet normal 0.000000e+000 -8.231292e-001 5.678541e-001
    outer loop
      vertex   -3.000000e+002 -2.988051e+002 -9.447873e+002
      vertex   -3.000000e+002 -3.190940e+002 -9.741969e+002
      vertex   2.500000e+001 -3.190940e+002 -9.741969e+002
    endloop
  endfacet
  facet normal 0.000000e+000 -8.349514e-001 5.503236e-001
    outer loop
      vertex   2.500000e+001 -2.988051e+002 -9.447873e+002
      vertex   2.500000e+001 -2.791425e+002 -9.149552e+002
      vertex   -3.000000e+002 -2.791425e+002 -9.149552e+002
    endloop
  endfacet
  facet normal 0.000000e+000 -8.464003e-001 5.325471e-001
    outer loop
      vertex   2.500000e+001 -2.791425e+002 -9.149552e+002
      vertex   2.500000e+001 -2.601151e+002 -8.847141e+002
      vertex   -3.000000e+002 -2.601151e+002 -8.847141e+002
    endloop
  endfacet
  facet normal 0.000000e+000 -8.574708e-001 5.145326e-001
    outer loop
      vertex   -3.000000e+002 -2.417313e+002 -8.540774e+002
      vertex   -3.000000e+002 -2.601151e+002 -8.847141e+002
      vertex   2.500000e+001 -2.601151e+002 -8.847141e+002
    endloop
  endfacet
  facet normal 0.000000e+000 -8.681580e-001 4.962880e-001
    outer loop
      vertex   2.500000e+001 -2.417313e+002 -8.540774e+002
      vertex   2.500000e+001 -2.239994e+002 -8.230589e+002
      vertex   -3.000000e+002 -2.239994e+002 -8.230589e+002
    endloop
  endfacet
  facet normal 0.000000e+000 -8.784570e-001 4.778215e-001
    outer loop
      vertex   2.500000e+001 -2.239994e+002 -8.230589e+002
      vertex   2.500000e+001 -2.069273e+002 -7.916725e+002
      vertex   -3.000000e+002 -2.069273e+002 -7.916725e+002
    endloop
  endfacet
  facet normal 0.000000e+000 -8.883632e-001 4.591413e-001
    outer loop
      vertex   -3.000000e+002 -1.905226e+002 -7.599321e+002
      vertex   -3.000000e+002 -2.069273e+002 -7.916725e+002
      vertex   2.500000e+001 -2.069273e+002 -7.916725e+002
    endloop
  endfacet
  facet normal 0.000000e+000 -8.978723e-001 4.402559e-001
    outer loop
      vertex   2.500000e+001 -1.905226e+002 -7.599321e+002
      vertex   2.500000e+001 -1.747926e+002 -7.278519e+002
      vertex   -3.000000e+002 -1.747926e+002 -7.278519e+002
    endloop
  endfacet
  facet normal 0.000000e+000 -9.069800e-001 4.211737e-001
    outer loop
      vertex   2.500000e+001 -1.747926e+002 -7.278519e+002
      vertex   2.500000e+001 -1.597445e+002 -6.954463e+002
      vertex   -3.000000e+002 -1.597445e+002 -6.954463e+002
    endloop
  endfacet
  facet normal 0.000000e+000 -9.156822e-001 4.019032e-001
    outer loop
      vertex   2.500000e+001 -1.597445e+002 -6.954463e+002
      vertex   2.500000e+001 -1.453848e+002 -6.627298e+002
      vertex   -3.000000e+002 -1.453848e+002 -6.627298e+002
    endloop
  endfacet
  facet normal 0.000000e+000 -9.239750e-001 3.824530e-001
    outer loop
      vertex   -3.000000e+002 -1.317201e+002 -6.297170e+002
      vertex   -3.000000e+002 -1.453848e+002 -6.627298e+002
      vertex   2.500000e+001 -1.453848e+002 -6.627298e+002
    endloop
  endfacet
  facet normal 0.000000e+000 -9.318547e-001 3.628318e-001
    outer loop
      vertex   2.500000e+001 -1.317201e+002 -6.297170e+002
      vertex   2.500000e+001 -1.187565e+002 -5.964227e+002
      vertex   -3.000000e+002 -1.187565e+002 -5.964227e+002
    endloop
  endfacet
  facet normal 0.000000e+000 -9.393177e-001 3.430484e-001
    outer loop
      vertex   2.500000e+001 -1.187565e+002 -5.964227e+002
      vertex   2.500000e+001 -1.064997e+002 -5.628618e+002
      vertex   -3.000000e+002 -1.064997e+002 -5.628618e+002
    endloop
  endfacet
  facet normal 0.000000e+000 -9.463609e-001 3.231116e-001
    outer loop
      vertex   2.500000e+001 -1.064997e+002 -5.628618e+002
      vertex   2.500000e+001 -9.495520e+001 -5.290491e+002
      vertex   -3.000000e+002 -9.495520e+001 -5.290491e+002
    endloop
  endfacet
  facet normal 0.000000e+000 -9.529809e-001 3.030304e-001
    outer loop
      vertex   -3.000000e+002 -8.412820e+001 -4.950000e+002
      vertex   -3.000000e+002 -9.495520e+001 -5.290491e+002
      vertex   2.500000e+001 -9.495520e+001 -5.290491e+002
    endloop
  endfacet
  facet normal 0.000000e+000 -9.529809e-001 3.030304e-001
    outer loop
      vertex   2.500000e+001 -9.495520e+001 -5.290491e+002
      vertex   2.500000e+001 -8.412820e+001 -4.950000e+002
      vertex   -3.000000e+002 -8.412820e+001 -4.950000e+002
    endloop
  endfacet
  facet normal 0.000000e+000 -9.463609e-001 3.231116e-001
    outer loop
      vertex   -3.000000e+002 -9.495520e+001 -5.290491e+002
      vertex   -3.000000e+002 -1.064997e+002 -5.628618e+002
      vertex   2.500000e+001 -1.064997e+002 -5.628618e+002
    endloop
  endfacet
  facet normal 0.000000e+000 -9.393177e-001 3.430484e-001
    outer loop
      vertex   -3.000000e+002 -1.064997e+002 -5.628618e+002
      vertex   -3.000000e+002 -1.187565e+002 -5.964227e+002
      vertex   2.500000e+001 -1.187565e+002 -5.964227e+002
    endloop
  endfacet
  facet normal 0.000000e+000 -9.318547e-001 3.628318e-001
    outer loop
      vertex   -3.000000e+002 -1.187565e+002 -5.964227e+002
      vertex   -3.000000e+002 -1.317201e+002 -6.297170e+002
      vertex   2.500000e+001 -1.317201e+002 -6.297170e+002
    endloop
  endfacet
  facet normal 0.000000e+000 -9.239750e-001 3.824530e-001
    outer loop
      vertex   2.500000e+001 -1.453848e+002 -6.627298e+002
      vertex   2.500000e+001 -1.317201e+002 -6.297170e+002
      vertex   -3.000000e+002 -1.317201e+002 -6.297170e+002
    endloop
  endfacet
  facet normal 0.000000e+000 -9.156822e-001 4.019032e-001
    outer loop
      vertex   -3.000000e+002 -1.453848e+002 -6.627298e+002
      vertex   -3.000000e+002 -1.597445e+002 -6.954463e+002
      vertex   2.500000e+001 -1.597445e+002 -6.954463e+002
    endloop
  endfacet
  facet normal 0.000000e+000 -9.069800e-001 4.211737e-001
    outer loop
      vertex   -3.000000e+002 -1.597445e+002 -6.954463e+002
      vertex   -3.000000e+002 -1.747926e+002 -7.278519e+002
      vertex   2.500000e+001 -1.747926e+002 -7.278519e+002
    endloop
  endfacet
  facet normal 0.000000e+000 -8.978723e-001 4.402559e-001
    outer loop
      vertex   -3.000000e+002 -1.747926e+002 -7.278519e+002
      vertex   -3.000000e+002 -1.905226e+002 -7.599321e+002
      vertex   2.500000e+001 -1.905226e+002 -7.599321e+002
    endloop
  endfacet
  facet normal 0.000000e+000 -8.883632e-001 4.591413e-001
    outer loop
      vertex   2.500000e+001 -2.069273e+002 -7.916725e+002
      vertex   2.500000e+001 -1.905226e+002 -7.599321e+002
      vertex   -3.000000e+002 -1.905226e+002 -7.599321e+002
    endloop
  endfacet
  facet normal 0.000000e+000 -8.784570e-001 4.778215e-001
    outer loop
      vertex   -3.000000e+002 -2.069273e+002 -7.916725e+002
      vertex   -3.000000e+002 -2.239994e+002 -8.230589e+002
      vertex   2.500000e+001 -2.239994e+002 -8.230589e+002
    endloop
  endfacet
  facet normal 0.000000e+000 -8.681580e-001 4.962880e-001
    outer loop
      vertex   -3.000000e+002 -2.239994e+002 -8.230589e+002
      vertex   -3.000000e+002 -2.417313e+002 -8.540774e+002
      vertex   2.500000e+001 -2.417313e+002 -8.540774e+002
    endloop
  endfacet
  facet normal 0.000000e+000 -8.574708e-001 5.145326e-001
    outer loop
      vertex   2.500000e+001 -2.601151e+002 -8.847141e+002
      vertex   2.500000e+001 -2.417313e+002 -8.540774e+002
      vertex   -3.000000e+002 -2.417313e+002 -8.540774e+002
    endloop
  endfacet
  facet normal 0.000000e+000 -8.464003e-001 5.325471e-001
    outer loop
      vertex   -3.000000e+002 -2.601151e+002 -8.847141e+002
      vertex   -3.000000e+002 -2.791425e+002 -9.149552e+002
      vertex   2.500000e+001 -2.791425e+002 -9.149552e+002
    endloop
  endfacet
  facet normal 0.000000e+000 -8.349514e-001 5.503236e-001
    outer loop
      vertex   -3.000000e+002 -2.791425e+002 -9.149552e+002
      vertex   -3.000000e+002 -2.988051e+002 -9.447873e+002
      vertex   2.500000e+001 -2.988051e+002 -9.447873e+002
    endloop
  endfacet
  facet normal 0.000000e+000 -8.231292e-001 5.678541e-001
    outer loop
      vertex   2.500000e+001 -3.190940e+002 -9.741969e+002
      vertex   2.500000e+001 -2.988051e+002 -9.447873e+002
      vertex   -3.000000e+002 -2.988051e+002 -9.447873e+002
    endloop
  endfacet
  facet normal 0.000000e+000 -8.109390e-001 5.851306e-001
    outer loop
      vertex   -3.000000e+002 -3.190940e+002 -9.741969e+002
      vertex   -3.000000e+002 -3.400002e+002 -1.003171e+003
      vertex   2.500000e+001 -3.400002e+002 -1.003171e+003
    endloop
  endfacet
  facet normal 0.000000e+000 -7.983863e-001 6.021456e-001
    outer loop
      vertex   -3.000000e+002 -3.400002e+002 -1.003171e+003
      vertex   -3.000000e+002 -3.615143e+002 -1.031697e+003
      vertex   2.500000e+001 -3.615143e+002 -1.031697e+003
    endloop
  endfacet
  facet normal 0.000000e+000 -7.854766e-001 6.188914e-001
    outer loop
      vertex   2.500000e+001 -3.836267e+002 -1.059761e+003
      vertex   2.500000e+001 -3.615143e+002 -1.031697e+003
      vertex   -3.000000e+002 -3.615143e+002 -1.031697e+003
    endloop
  endfacet
  facet normal 0.000000e+000 -7.722157e-001 6.353604e-001
    outer loop
      vertex   -3.000000e+002 -3.836267e+002 -1.059761e+003
      vertex   -3.000000e+002 -4.063276e+002 -1.087352e+003
      vertex   2.500000e+001 -4.063276e+002 -1.087352e+003
    endloop
  endfacet
  facet normal 0.000000e+000 -7.586096e-001 6.515455e-001
    outer loop
      vertex   2.500000e+001 -4.063276e+002 -1.087352e+003
      vertex   -3.000000e+002 -4.063276e+002 -1.087352e+003
      vertex   -3.000000e+002 -4.296067e+002 -1.114456e+003
    endloop
  endfacet
  facet normal 0.000000e+000 -7.516790e-001 6.595292e-001
    outer loop
      vertex   -3.000000e+002 -4.394996e+002 -1.125731e+003
      vertex   2.500000e+001 -4.394996e+002 -1.125731e+003
      vertex   2.500000e+001 -4.296067e+002 -1.114456e+003
    endloop
  endfacet
  facet normal -1.283894e-016 -7.516790e-001 6.595292e-001
    outer loop
      vertex   2.500000e+001 -4.296067e+002 -1.114456e+003
      vertex   -3.000000e+002 -4.296067e+002 -1.114456e+003
      vertex   -3.000000e+002 -4.394996e+002 -1.125731e+003
    endloop
  endfacet
  facet normal -1.000000e+000 0.000000e+000 0.000000e+000
    outer loop
      vertex   -3.000000e+002 -1.710102e+002 -7.656428e+002
      vertex   -3.000000e+002 -1.905226e+002 -7.599321e+002
      vertex   -3.000000e+002 -1.747926e+002 -7.278519e+002
    endloop
  endfacet
  facet normal -1.000000e+000 0.000000e+000 0.000000e+000
    outer loop
      vertex   -3.000000e+002 -1.876829e+002 -7.980653e+002
      vertex   -3.000000e+002 -2.069273e+002 -7.916725e+002
      vertex   -3.000000e+002 -1.905226e+002 -7.599321e+002
    endloop
  endfacet
  facet normal -1.000000e+000 0.000000e+000 0.000000e+000
    outer loop
      vertex   -3.000000e+002 -1.550326e+002 -7.328721e+002
      vertex   -3.000000e+002 -1.747926e+002 -7.278519e+002
      vertex   -3.000000e+002 -1.597445e+002 -6.954463e+002
    endloop
  endfacet
  facet normal -1.000000e+000 0.000000e+000 0.000000e+000
    outer loop
      vertex   -3.000000e+002 -1.905226e+002 -7.599321e+002
      vertex   -3.000000e+002 -1.710102e+002 -7.656428e+002
      vertex   -3.000000e+002 -1.876829e+002 -7.980653e+002
    endloop
  endfacet
  facet normal -1.000000e+000 0.000000e+000 0.000000e+000
    outer loop
      vertex   -3.000000e+002 -2.050432e+002 -8.301249e+002
      vertex   -3.000000e+002 -2.239994e+002 -8.230589e+002
      vertex   -3.000000e+002 -2.069273e+002 -7.916725e+002
    endloop
  endfacet
  facet normal -1.000000e+000 0.000000e+000 0.000000e+000
    outer loop
      vertex   -3.000000e+002 -2.230830e+002 -8.618071e+002
      vertex   -3.000000e+002 -2.417313e+002 -8.540774e+002
      vertex   -3.000000e+002 -2.239994e+002 -8.230589e+002
    endloop
  endfacet
  facet normal -1.000000e+000 0.000000e+000 0.000000e+000
    outer loop
      vertex   -3.000000e+002 -9.821378e+001 -5.986086e+002
      vertex   -3.000000e+002 -1.187565e+002 -5.964227e+002
      vertex   -3.000000e+002 -1.064997e+002 -5.628618e+002
    endloop
  endfacet
  facet normal -1.000000e+000 0.000000e+000 0.000000e+000
    outer loop
      vertex   -3.000000e+002 -1.113415e+002 -6.326212e+002
      vertex   -3.000000e+002 -1.317201e+002 -6.297170e+002
      vertex   -3.000000e+002 -1.187565e+002 -5.964227e+002
    endloop
  endfacet
  facet normal -1.000000e+000 0.000000e+000 0.000000e+000
    outer loop
      vertex   -3.000000e+002 -1.397574e+002 -6.997683e+002
      vertex   -3.000000e+002 -1.597445e+002 -6.954463e+002
      vertex   -3.000000e+002 -1.453848e+002 -6.627298e+002
    endloop
  endfacet
  facet normal -1.000000e+000 0.000000e+000 0.000000e+000
    outer loop
      vertex   -3.000000e+002 -1.747926e+002 -7.278519e+002
      vertex   -3.000000e+002 -1.550326e+002 -7.328721e+002
      vertex   -3.000000e+002 -1.710102e+002 -7.656428e+002
    endloop
  endfacet
  facet normal -1.000000e+000 0.000000e+000 0.000000e+000
    outer loop
      vertex   -3.000000e+002 -2.239994e+002 -8.230589e+002
      vertex   -3.000000e+002 -2.050432e+002 -8.301249e+002
      vertex   -3.000000e+002 -2.230830e+002 -8.618071e+002
    endloop
  endfacet
  facet normal -1.000000e+000 0.000000e+000 0.000000e+000
    outer loop
      vertex   -3.000000e+002 -2.417944e+002 -8.930974e+002
      vertex   -3.000000e+002 -2.601151e+002 -8.847141e+002
      vertex   -3.000000e+002 -2.417313e+002 -8.540774e+002
    endloop
  endfacet
  facet normal -1.000000e+000 0.000000e+000 0.000000e+000
    outer loop
      vertex   -3.000000e+002 -1.187565e+002 -5.964227e+002
      vertex   -3.000000e+002 -9.821378e+001 -5.986086e+002
      vertex   -3.000000e+002 -1.113415e+002 -6.326212e+002
    endloop
  endfacet
  facet normal -1.000000e+000 0.000000e+000 0.000000e+000
    outer loop
      vertex   -3.000000e+002 -1.251915e+002 -6.663462e+002
      vertex   -3.000000e+002 -1.453848e+002 -6.627298e+002
      vertex   -3.000000e+002 -1.317201e+002 -6.297170e+002
    endloop
  endfacet
  facet normal -1.000000e+000 0.000000e+000 0.000000e+000
    outer loop
      vertex   -3.000000e+002 -1.597445e+002 -6.954463e+002
      vertex   -3.000000e+002 -1.397574e+002 -6.997683e+002
      vertex   -3.000000e+002 -1.550326e+002 -7.328721e+002
    endloop
  endfacet
  facet normal -1.000000e+000 0.000000e+000 0.000000e+000
    outer loop
      vertex   -3.000000e+002 -2.417313e+002 -8.540774e+002
      vertex   -3.000000e+002 -2.230830e+002 -8.618071e+002
      vertex   -3.000000e+002 -2.417944e+002 -8.930974e+002
    endloop
  endfacet
  facet normal -1.000000e+000 0.000000e+000 0.000000e+000
    outer loop
      vertex   -3.000000e+002 -2.611686e+002 -9.239817e+002
      vertex   -3.000000e+002 -2.791425e+002 -9.149552e+002
      vertex   -3.000000e+002 -2.601151e+002 -8.847141e+002
    endloop
  endfacet
  facet normal -1.000000e+000 0.000000e+000 0.000000e+000
    outer loop
      vertex   -3.000000e+002 -2.811969e+002 -9.544458e+002
      vertex   -3.000000e+002 -2.988051e+002 -9.447873e+002
      vertex   -3.000000e+002 -2.791425e+002 -9.149552e+002
    endloop
  endfacet
  facet normal -1.000000e+000 0.000000e+000 0.000000e+000
    outer loop
      vertex   -3.000000e+002 -3.231792e+002 -1.014059e+003
      vertex   -3.000000e+002 -3.400002e+002 -1.003171e+003
      vertex   -3.000000e+002 -3.190940e+002 -9.741969e+002
    endloop
  endfacet
  facet normal -1.000000e+000 0.000000e+000 0.000000e+000
    outer loop
      vertex   -3.000000e+002 -3.451141e+002 -1.043180e+003
      vertex   -3.000000e+002 -3.615143e+002 -1.031697e+003
      vertex   -3.000000e+002 -3.400002e+002 -1.003171e+003
    endloop
  endfacet
  facet normal -1.000000e+000 0.000000e+000 0.000000e+000
    outer loop
      vertex   -3.000000e+002 -8.581425e+001 -5.643237e+002
      vertex   -3.000000e+002 -1.064997e+002 -5.628618e+002
      vertex   -3.000000e+002 -9.495520e+001 -5.290491e+002
    endloop
  endfacet
  facet normal -1.000000e+000 0.000000e+000 0.000000e+000
    outer loop
      vertex   -3.000000e+002 -1.317201e+002 -6.297170e+002
      vertex   -3.000000e+002 -1.113415e+002 -6.326212e+002
      vertex   -3.000000e+002 -1.251915e+002 -6.663462e+002
    endloop
  endfacet
  facet normal -1.000000e+000 0.000000e+000 0.000000e+000
    outer loop
      vertex   -3.000000e+002 -2.069273e+002 -7.916725e+002
      vertex   -3.000000e+002 -1.876829e+002 -7.980653e+002
      vertex   -3.000000e+002 -2.050432e+002 -8.301249e+002
    endloop
  endfacet
  facet normal -1.000000e+000 0.000000e+000 0.000000e+000
    outer loop
      vertex   -3.000000e+002 -2.791425e+002 -9.149552e+002
      vertex   -3.000000e+002 -2.611686e+002 -9.239817e+002
      vertex   -3.000000e+002 -2.811969e+002 -9.544458e+002
    endloop
  endfacet
  facet normal -1.000000e+000 0.000000e+000 0.000000e+000
    outer loop
      vertex   -3.000000e+002 -3.018703e+002 -9.844760e+002
      vertex   -3.000000e+002 -3.190940e+002 -9.741969e+002
      vertex   -3.000000e+002 -2.988051e+002 -9.447873e+002
    endloop
  endfacet
  facet normal -1.000000e+000 0.000000e+000 0.000000e+000
    outer loop
      vertex   -3.000000e+002 -3.400002e+002 -1.003171e+003
      vertex   -3.000000e+002 -3.231792e+002 -1.014059e+003
      vertex   -3.000000e+002 -3.451141e+002 -1.043180e+003
    endloop
  endfacet
  facet normal -1.000000e+000 0.000000e+000 0.000000e+000
    outer loop
      vertex   -3.000000e+002 -4.145731e+002 -1.127647e+003
      vertex   -3.000000e+002 -4.296067e+002 -1.114456e+003
      vertex   -3.000000e+002 -4.063276e+002 -1.087352e+003
    endloop
  endfacet
  facet normal -1.000000e+000 0.000000e+000 0.000000e+000
    outer loop
      vertex   -3.000000e+002 -7.414857e+001 -5.297823e+002
      vertex   -3.000000e+002 -9.495520e+001 -5.290491e+002
      vertex   -3.000000e+002 -8.412820e+001 -4.950000e+002
    endloop
  endfacet
  facet normal -1.000000e+000 0.000000e+000 0.000000e+000
    outer loop
      vertex   -3.000000e+002 -1.064997e+002 -5.628618e+002
      vertex   -3.000000e+002 -8.581425e+001 -5.643237e+002
      vertex   -3.000000e+002 -9.821378e+001 -5.986086e+002
    endloop
  endfacet
  facet normal -1.000000e+000 0.000000e+000 0.000000e+000
    outer loop
      vertex   -3.000000e+002 -2.601151e+002 -8.847141e+002
      vertex   -3.000000e+002 -2.417944e+002 -8.930974e+002
      vertex   -3.000000e+002 -2.611686e+002 -9.239817e+002
    endloop
  endfacet
  facet normal -1.000000e+000 0.000000e+000 0.000000e+000
    outer loop
      vertex   -3.000000e+002 -3.190940e+002 -9.741969e+002
      vertex   -3.000000e+002 -3.018703e+002 -9.844760e+002
      vertex   -3.000000e+002 -3.231792e+002 -1.014059e+003
    endloop
  endfacet
  facet normal -1.000000e+000 0.000000e+000 0.000000e+000
    outer loop
      vertex   -3.000000e+002 -3.908214e+002 -1.099987e+003
      vertex   -3.000000e+002 -4.063276e+002 -1.087352e+003
      vertex   -3.000000e+002 -3.836267e+002 -1.059761e+003
    endloop
  endfacet
  facet normal -1.000000e+000 0.000000e+000 0.000000e+000
    outer loop
      vertex   -3.000000e+002 -4.145731e+002 -1.127647e+003
      vertex   -3.000000e+002 -4.394996e+002 -1.125731e+003
      vertex   -3.000000e+002 -4.296067e+002 -1.114456e+003
    endloop
  endfacet
  facet normal -1.000000e+000 0.000000e+000 0.000000e+000
    outer loop
      vertex   -3.000000e+002 -9.495520e+001 -5.290491e+002
      vertex   -3.000000e+002 -7.414857e+001 -5.297823e+002
      vertex   -3.000000e+002 -8.581425e+001 -5.643237e+002
    endloop
  endfacet
  facet normal -1.000000e+000 0.000000e+000 0.000000e+000
    outer loop
      vertex   -3.000000e+002 -2.988051e+002 -9.447873e+002
      vertex   -3.000000e+002 -2.811969e+002 -9.544458e+002
      vertex   -3.000000e+002 -3.018703e+002 -9.844760e+002
    endloop
  endfacet
  facet normal -1.000000e+000 0.000000e+000 0.000000e+000
    outer loop
      vertex   -3.000000e+002 -3.676649e+002 -1.071827e+003
      vertex   -3.000000e+002 -3.836267e+002 -1.059761e+003
      vertex   -3.000000e+002 -3.615143e+002 -1.031697e+003
    endloop
  endfacet
  facet normal -1.000000e+000 0.000000e+000 0.000000e+000
    outer loop
      vertex   -3.000000e+002 -4.063276e+002 -1.087352e+003
      vertex   -3.000000e+002 -3.908214e+002 -1.099987e+003
      vertex   -3.000000e+002 -4.145731e+002 -1.127647e+003
    endloop
  endfacet
  facet normal -1.000000e+000 0.000000e+000 0.000000e+000
    outer loop
      vertex   -3.000000e+002 -1.453848e+002 -6.627298e+002
      vertex   -3.000000e+002 -1.251915e+002 -6.663462e+002
      vertex   -3.000000e+002 -1.397574e+002 -6.997683e+002
    endloop
  endfacet
  facet normal -1.000000e+000 0.000000e+000 0.000000e+000
    outer loop
      vertex   -3.000000e+002 -3.836267e+002 -1.059761e+003
      vertex   -3.000000e+002 -3.676649e+002 -1.071827e+003
      vertex   -3.000000e+002 -3.908214e+002 -1.099987e+003
    endloop
  endfacet
  facet normal -1.000000e+000 0.000000e+000 0.000000e+000
    outer loop
      vertex   -3.000000e+002 -3.993271e+002 -1.160979e+003
      vertex   -3.000000e+002 -4.394996e+002 -1.125731e+003
      vertex   -3.000000e+002 -4.145731e+002 -1.127647e+003
    endloop
  endfacet
  facet normal -1.000000e+000 0.000000e+000 0.000000e+000
    outer loop
      vertex   -3.000000e+002 -3.615143e+002 -1.031697e+003
      vertex   -3.000000e+002 -3.451141e+002 -1.043180e+003
      vertex   -3.000000e+002 -3.676649e+002 -1.071827e+003
    endloop
  endfacet
  facet normal -1.000000e+000 0.000000e+000 0.000000e+000
    outer loop
      vertex   -3.000000e+002 -8.412820e+001 -4.950000e+002
      vertex   -3.000000e+002 -6.322205e+001 -4.950000e+002
      vertex   -3.000000e+002 -7.414857e+001 -5.297823e+002
    endloop
  endfacet
  facet normal -1.000000e+000 0.000000e+000 0.000000e+000
    outer loop
      vertex   -3.000000e+002 -4.145731e+002 -1.127647e+003
      vertex   -3.000000e+002 -3.894342e+002 -1.149704e+003
      vertex   -3.000000e+002 -3.993271e+002 -1.160979e+003
    endloop
  endfacet
  facet normal 1.000000e+000 0.000000e+000 0.000000e+000
    outer loop
      vertex   2.500000e+001 -2.230830e+002 -8.618071e+002
      vertex   2.500000e+001 -2.050432e+002 -8.301249e+002
      vertex   2.500000e+001 -2.239994e+002 -8.230589e+002
    endloop
  endfacet
  facet normal 1.000000e+000 -1.832670e-016 -8.979769e-018
    outer loop
      vertex   2.500000e+001 -2.050432e+002 -8.301249e+002
      vertex   2.500000e+001 -1.876829e+002 -7.980653e+002
      vertex   2.500000e+001 -2.069273e+002 -7.916725e+002
    endloop
  endfacet
  facet normal 1.000000e+000 0.000000e+000 0.000000e+000
    outer loop
      vertex   2.500000e+001 -2.811969e+002 -9.544458e+002
      vertex   2.500000e+001 -2.611686e+002 -9.239817e+002
      vertex   2.500000e+001 -2.791425e+002 -9.149552e+002
    endloop
  endfacet
  facet normal 1.000000e+000 -1.870759e-016 5.018897e-018
    outer loop
      vertex   2.500000e+001 -2.611686e+002 -9.239817e+002
      vertex   2.500000e+001 -2.417944e+002 -8.930974e+002
      vertex   2.500000e+001 -2.601151e+002 -8.847141e+002
    endloop
  endfacet
  facet normal 1.000000e+000 0.000000e+000 0.000000e+000
    outer loop
      vertex   2.500000e+001 -2.417944e+002 -8.930974e+002
      vertex   2.500000e+001 -2.230830e+002 -8.618071e+002
      vertex   2.500000e+001 -2.417313e+002 -8.540774e+002
    endloop
  endfacet
  facet normal 1.000000e+000 0.000000e+000 0.000000e+000
    outer loop
      vertex   2.500000e+001 -2.069273e+002 -7.916725e+002
      vertex   2.500000e+001 -2.239994e+002 -8.230589e+002
      vertex   2.500000e+001 -2.050432e+002 -8.301249e+002
    endloop
  endfacet
  facet normal 1.000000e+000 0.000000e+000 0.000000e+000
    outer loop
      vertex   2.500000e+001 -1.876829e+002 -7.980653e+002
      vertex   2.500000e+001 -1.710102e+002 -7.656428e+002
      vertex   2.500000e+001 -1.905226e+002 -7.599321e+002
    endloop
  endfacet
  facet normal 1.000000e+000 0.000000e+000 0.000000e+000
    outer loop
      vertex   2.500000e+001 -1.710102e+002 -7.656428e+002
      vertex   2.500000e+001 -1.550326e+002 -7.328721e+002
      vertex   2.500000e+001 -1.747926e+002 -7.278519e+002
    endloop
  endfacet
  facet normal 1.000000e+000 0.000000e+000 0.000000e+000
    outer loop
      vertex   2.500000e+001 -2.601151e+002 -8.847141e+002
      vertex   2.500000e+001 -2.791425e+002 -9.149552e+002
      vertex   2.500000e+001 -2.611686e+002 -9.239817e+002
    endloop
  endfacet
  facet normal 1.000000e+000 0.000000e+000 0.000000e+000
    outer loop
      vertex   2.500000e+001 -2.239994e+002 -8.230589e+002
      vertex   2.500000e+001 -2.417313e+002 -8.540774e+002
      vertex   2.500000e+001 -2.230830e+002 -8.618071e+002
    endloop
  endfacet
  facet normal 1.000000e+000 0.000000e+000 0.000000e+000
    outer loop
      vertex   2.500000e+001 -1.747926e+002 -7.278519e+002
      vertex   2.500000e+001 -1.905226e+002 -7.599321e+002
      vertex   2.500000e+001 -1.710102e+002 -7.656428e+002
    endloop
  endfacet
  facet normal 1.000000e+000 -1.784423e-016 -2.246563e-017
    outer loop
      vertex   2.500000e+001 -1.550326e+002 -7.328721e+002
      vertex   2.500000e+001 -1.397574e+002 -6.997683e+002
      vertex   2.500000e+001 -1.597445e+002 -6.954463e+002
    endloop
  endfacet
  facet normal 1.000000e+000 0.000000e+000 0.000000e+000
    outer loop
      vertex   2.500000e+001 -3.451141e+002 -1.043180e+003
      vertex   2.500000e+001 -3.231792e+002 -1.014059e+003
      vertex   2.500000e+001 -3.400002e+002 -1.003171e+003
    endloop
  endfacet
  facet normal 1.000000e+000 -1.898239e-016 1.945416e-017
    outer loop
      vertex   2.500000e+001 -3.231792e+002 -1.014059e+003
      vertex   2.500000e+001 -3.018703e+002 -9.844760e+002
      vertex   2.500000e+001 -3.190940e+002 -9.741969e+002
    endloop
  endfacet
  facet normal 1.000000e+000 -1.892327e-016 3.056696e-019
    outer loop
      vertex   2.500000e+001 -2.417313e+002 -8.540774e+002
      vertex   2.500000e+001 -2.601151e+002 -8.847141e+002
      vertex   2.500000e+001 -2.417944e+002 -8.930974e+002
    endloop
  endfacet
  facet normal 1.000000e+000 0.000000e+000 0.000000e+000
    outer loop
      vertex   2.500000e+001 -1.597445e+002 -6.954463e+002
      vertex   2.500000e+001 -1.747926e+002 -7.278519e+002
      vertex   2.500000e+001 -1.550326e+002 -7.328721e+002
    endloop
  endfacet
  facet normal 1.000000e+000 0.000000e+000 0.000000e+000
    outer loop
      vertex   2.500000e+001 -1.113415e+002 -6.326212e+002
      vertex   2.500000e+001 -9.821378e+001 -5.986086e+002
      vertex   2.500000e+001 -1.187565e+002 -5.964227e+002
    endloop
  endfacet
  facet normal 1.000000e+000 0.000000e+000 0.000000e+000
    outer loop
      vertex   2.500000e+001 -9.821378e+001 -5.986086e+002
      vertex   2.500000e+001 -8.581425e+001 -5.643237e+002
      vertex   2.500000e+001 -1.064997e+002 -5.628618e+002
    endloop
  endfacet
  facet normal 1.000000e+000 0.000000e+000 0.000000e+000
    outer loop
      vertex   2.500000e+001 -3.190940e+002 -9.741969e+002
      vertex   2.500000e+001 -3.400002e+002 -1.003171e+003
      vertex   2.500000e+001 -3.231792e+002 -1.014059e+003
    endloop
  endfacet
  facet normal 1.000000e+000 0.000000e+000 0.000000e+000
    outer loop
      vertex   2.500000e+001 -3.018703e+002 -9.844760e+002
      vertex   2.500000e+001 -2.811969e+002 -9.544458e+002
      vertex   2.500000e+001 -2.988051e+002 -9.447873e+002
    endloop
  endfacet
  facet normal 1.000000e+000 -1.848568e-016 -1.376561e-017
    outer loop
      vertex   2.500000e+001 -1.905226e+002 -7.599321e+002
      vertex   2.500000e+001 -2.069273e+002 -7.916725e+002
      vertex   2.500000e+001 -1.876829e+002 -7.980653e+002
    endloop
  endfacet
  facet normal 1.000000e+000 -1.593722e-016 6.945721e-017
    outer loop
      vertex   2.500000e+001 -1.397574e+002 -6.997683e+002
      vertex   2.500000e+001 -1.251915e+002 -6.663462e+002
      vertex   2.500000e+001 -1.453848e+002 -6.627298e+002
    endloop
  endfacet
  facet normal 1.000000e+000 0.000000e+000 0.000000e+000
    outer loop
      vertex   2.500000e+001 -1.251915e+002 -6.663462e+002
      vertex   2.500000e+001 -1.113415e+002 -6.326212e+002
      vertex   2.500000e+001 -1.317201e+002 -6.297170e+002
    endloop
  endfacet
  facet normal 1.000000e+000 0.000000e+000 0.000000e+000
    outer loop
      vertex   2.500000e+001 -1.064997e+002 -5.628618e+002
      vertex   2.500000e+001 -1.187565e+002 -5.964227e+002
      vertex   2.500000e+001 -9.821378e+001 -5.986086e+002
    endloop
  endfacet
  facet normal 1.000000e+000 0.000000e+000 0.000000e+000
    outer loop
      vertex   2.500000e+001 -4.145731e+002 -1.127647e+003
      vertex   2.500000e+001 -3.908214e+002 -1.099987e+003
      vertex   2.500000e+001 -4.063276e+002 -1.087352e+003
    endloop
  endfacet
  facet normal 1.000000e+000 -1.925589e-016 1.487142e-017
    outer loop
      vertex   2.500000e+001 -2.988051e+002 -9.447873e+002
      vertex   2.500000e+001 -3.190940e+002 -9.741969e+002
      vertex   2.500000e+001 -3.018703e+002 -9.844760e+002
    endloop
  endfacet
  facet normal 1.000000e+000 -1.585377e-016 6.958399e-017
    outer loop
      vertex   2.500000e+001 -1.453848e+002 -6.627298e+002
      vertex   2.500000e+001 -1.597445e+002 -6.954463e+002
      vertex   2.500000e+001 -1.397574e+002 -6.997683e+002
    endloop
  endfacet
  facet normal 1.000000e+000 0.000000e+000 0.000000e+000
    outer loop
      vertex   2.500000e+001 -1.187565e+002 -5.964227e+002
      vertex   2.500000e+001 -1.317201e+002 -6.297170e+002
      vertex   2.500000e+001 -1.113415e+002 -6.326212e+002
    endloop
  endfacet
  facet normal 1.000000e+000 -1.682838e-016 -4.360856e-017
    outer loop
      vertex   2.500000e+001 -8.581425e+001 -5.643237e+002
      vertex   2.500000e+001 -7.414857e+001 -5.297823e+002
      vertex   2.500000e+001 -9.495520e+001 -5.290491e+002
    endloop
  endfacet
  facet normal 1.000000e+000 1.173911e-015 -2.402168e-016
    outer loop
      vertex   2.500000e+001 -4.063276e+002 -1.087352e+003
      vertex   2.500000e+001 -4.296067e+002 -1.114456e+003
      vertex   2.500000e+001 -4.145731e+002 -1.127647e+003
    endloop
  endfacet
  facet normal 1.000000e+000 -1.914714e-016 3.424615e-017
    outer loop
      vertex   2.500000e+001 -3.908214e+002 -1.099987e+003
      vertex   2.500000e+001 -3.676649e+002 -1.071827e+003
      vertex   2.500000e+001 -3.836267e+002 -1.059761e+003
    endloop
  endfacet
  facet normal 1.000000e+000 0.000000e+000 0.000000e+000
    outer loop
      vertex   2.500000e+001 -2.791425e+002 -9.149552e+002
      vertex   2.500000e+001 -2.988051e+002 -9.447873e+002
      vertex   2.500000e+001 -2.811969e+002 -9.544458e+002
    endloop
  endfacet
  facet normal 1.000000e+000 0.000000e+000 0.000000e+000
    outer loop
      vertex   2.500000e+001 -9.495520e+001 -5.290491e+002
      vertex   2.500000e+001 -1.064997e+002 -5.628618e+002
      vertex   2.500000e+001 -8.581425e+001 -5.643237e+002
    endloop
  endfacet
  facet normal 1.000000e+000 0.000000e+000 0.000000e+000
    outer loop
      vertex   2.500000e+001 -3.836267e+002 -1.059761e+003
      vertex   2.500000e+001 -4.063276e+002 -1.087352e+003
      vertex   2.500000e+001 -3.908214e+002 -1.099987e+003
    endloop
  endfacet
  facet normal 1.000000e+000 0.000000e+000 0.000000e+000
    outer loop
      vertex   2.500000e+001 -3.676649e+002 -1.071827e+003
      vertex   2.500000e+001 -3.451141e+002 -1.043180e+003
      vertex   2.500000e+001 -3.615143e+002 -1.031697e+003
    endloop
  endfacet
  facet normal 1.000000e+000 -1.774763e-016 -3.163279e-017
    outer loop
      vertex   2.500000e+001 -1.317201e+002 -6.297170e+002
      vertex   2.500000e+001 -1.453848e+002 -6.627298e+002
      vertex   2.500000e+001 -1.251915e+002 -6.663462e+002
    endloop
  endfacet
  facet normal 1.000000e+000 0.000000e+000 0.000000e+000
    outer loop
      vertex   2.500000e+001 -7.414857e+001 -5.297823e+002
      vertex   2.500000e+001 -6.322205e+001 -4.950000e+002
      vertex   2.500000e+001 -8.412820e+001 -4.950000e+002
    endloop
  endfacet
  facet normal 1.000000e+000 -1.947910e-016 2.985479e-017
    outer loop
      vertex   2.500000e+001 -3.615143e+002 -1.031697e+003
      vertex   2.500000e+001 -3.836267e+002 -1.059761e+003
      vertex   2.500000e+001 -3.676649e+002 -1.071827e+003
    endloop
  endfacet
  facet normal 1.000000e+000 -1.684503e-016 -4.833121e-017
    outer loop
      vertex   2.500000e+001 -8.412820e+001 -4.950000e+002
      vertex   2.500000e+001 -9.495520e+001 -5.290491e+002
      vertex   2.500000e+001 -7.414857e+001 -5.297823e+002
    endloop
  endfacet
  facet normal 1.000000e+000 0.000000e+000 0.000000e+000
    outer loop
      vertex   2.500000e+001 -3.400002e+002 -1.003171e+003
      vertex   2.500000e+001 -3.615143e+002 -1.031697e+003
      vertex   2.500000e+001 -3.451141e+002 -1.043180e+003
    endloop
  endfacet
  facet normal 1.000000e+000 -4.678747e-016 4.105170e-016
    outer loop
      vertex   2.500000e+001 -3.993271e+002 -1.160979e+003
      vertex   2.500000e+001 -3.894342e+002 -1.149704e+003
      vertex   2.500000e+001 -4.145731e+002 -1.127647e+003
    endloop
  endfacet
  facet normal 1.000000e+000 9.152806e-016 1.043164e-015
    outer loop
      vertex   2.500000e+001 -4.145731e+002 -1.127647e+003
      vertex   2.500000e+001 -4.394996e+002 -1.125731e+003
      vertex   2.500000e+001 -3.993271e+002 -1.160979e+003
    endloop
  endfacet
  facet normal 1.000000e+000 7.823731e-016 -6.864604e-016
    outer loop
      vertex   2.500000e+001 -4.296067e+002 -1.114456e+003
      vertex   2.500000e+001 -4.394996e+002 -1.125731e+003
      vertex   2.500000e+001 -4.145731e+002 -1.127647e+003
    endloop
  endfacet
  facet normal -4.503609e-016 7.516790e-001 -6.595292e-001
    outer loop
      vertex   -3.000000e+002 -3.993271e+002 -1.160979e+003
      vertex   -3.000000e+002 -3.894342e+002 -1.149704e+003
      vertex   2.500000e+001 -3.894342e+002 -1.149704e+003
    endloop
  endfacet
  facet normal -4.503609e-016 7.516790e-001 -6.595292e-001
    outer loop
      vertex   2.500000e+001 -3.894342e+002 -1.149704e+003
      vertex   2.500000e+001 -3.993271e+002 -1.160979e+003
      vertex   -3.000000e+002 -3.993271e+002 -1.160979e+003
    endloop
  endfacet
  facet normal 0.000000e+000 -6.595292e-001 -7.516790e-001
    outer loop
      vertex   2.500000e+001 -4.394996e+002 -1.125731e+003
      vertex   -3.000000e+002 -4.394996e+002 -1.125731e+003
      vertex   -3.000000e+002 -3.993271e+002 -1.160979e+003
    endloop
  endfacet
  facet normal -5.135577e-016 -6.595292e-001 -7.516790e-001
    outer loop
      vertex   -3.000000e+002 -3.993271e+002 -1.160979e+003
      vertex   2.500000e+001 -3.993271e+002 -1.160979e+003
      vertex   2.500000e+001 -4.394996e+002 -1.125731e+003
    endloop
  endfacet
  facet normal 0.000000e+000 6.595292e-001 7.516790e-001
    outer loop
      vertex   -3.000000e+002 -3.894342e+002 -1.149704e+003
      vertex   -3.000000e+002 -4.145731e+002 -1.127647e+003
      vertex   2.500000e+001 -4.145731e+002 -1.127647e+003
    endloop
  endfacet
  facet normal 5.087246e-016 6.595292e-001 7.516790e-001
    outer loop
      vertex   2.500000e+001 -4.145731e+002 -1.127647e+003
      vertex   2.500000e+001 -3.894342e+002 -1.149704e+003
      vertex   -3.000000e+002 -3.894342e+002 -1.149704e+003
    endloop
  endfacet
endsolid
