solid ascii
  facet normal 0.000000e+000 9.999902e-001 -4.423673e-003
    outer loop
      vertex   2.500000e+001 1.000000e+001 5.551115e-014
      vertex   2.500000e+001 9.897444e+000 -2.318326e+001
      vertex   -3.000000e+002 9.897444e+000 -2.318326e+001
    endloop
  endfacet
  facet normal 0.000000e+000 9.993111e-001 -3.711120e-002
    outer loop
      vertex   -3.000000e+002 9.897444e+000 -2.318326e+001
      vertex   2.500000e+001 9.897444e+000 -2.318326e+001
      vertex   2.500000e+001 9.037077e+000 -4.635078e+001
    endloop
  endfacet
  facet normal 0.000000e+000 9.975639e-001 -6.975906e-002
    outer loop
      vertex   2.500000e+001 9.037077e+000 -4.635078e+001
      vertex   2.500000e+001 7.419819e+000 -6.947779e+001
      vertex   -3.000000e+002 7.419819e+000 -6.947779e+001
    endloop
  endfacet
  facet normal 0.000000e+000 9.947503e-001 -1.023323e-001
    outer loop
      vertex   2.500000e+001 7.419819e+000 -6.947779e+001
      vertex   2.500000e+001 5.047398e+000 -9.253957e+001
      vertex   -3.000000e+002 5.047398e+000 -9.253957e+001
    endloop
  endfacet
  facet normal 0.000000e+000 9.908733e-001 -1.347962e-001
    outer loop
      vertex   2.500000e+001 5.047398e+000 -9.253957e+001
      vertex   2.500000e+001 1.922351e+000 -1.155115e+002
      vertex   -3.000000e+002 1.922351e+000 -1.155115e+002
    endloop
  endfacet
  facet normal 0.000000e+000 9.859372e-001 -1.671161e-001
    outer loop
      vertex   2.500000e+001 1.922351e+000 -1.155115e+002
      vertex   2.500000e+001 -1.951982e+000 -1.383689e+002
      vertex   -3.000000e+002 -1.951982e+000 -1.383689e+002
    endloop
  endfacet
  facet normal 0.000000e+000 9.799472e-001 -1.992572e-001
    outer loop
      vertex   2.500000e+001 -1.951982e+000 -1.383689e+002
      vertex   2.500000e+001 -6.571460e+000 -1.610875e+002
      vertex   -3.000000e+002 -6.571460e+000 -1.610875e+002
    endloop
  endfacet
  facet normal 0.000000e+000 9.729097e-001 -2.311854e-001
    outer loop
      vertex   2.500000e+001 -6.571460e+000 -1.610875e+002
      vertex   2.500000e+001 -1.193114e+001 -1.836430e+002
      vertex   -3.000000e+002 -1.193114e+001 -1.836430e+002
    endloop
  endfacet
  facet normal 0.000000e+000 9.648322e-001 -2.628665e-001
    outer loop
      vertex   2.500000e+001 -1.193114e+001 -1.836430e+002
      vertex   2.500000e+001 -1.802531e+001 -2.060111e+002
      vertex   -3.000000e+002 -1.802531e+001 -2.060111e+002
    endloop
  endfacet
  facet normal 0.000000e+000 9.557234e-001 -2.942666e-001
    outer loop
      vertex   2.500000e+001 -1.802531e+001 -2.060111e+002
      vertex   2.500000e+001 -2.484743e+001 -2.281681e+002
      vertex   -3.000000e+002 -2.484743e+001 -2.281681e+002
    endloop
  endfacet
  facet normal 0.000000e+000 9.455929e-001 -3.253521e-001
    outer loop
      vertex   2.500000e+001 -2.484743e+001 -2.281681e+002
      vertex   2.500000e+001 -3.239023e+001 -2.500903e+002
      vertex   -3.000000e+002 -3.239023e+001 -2.500903e+002
    endloop
  endfacet
  facet normal 0.000000e+000 9.344517e-001 -3.560898e-001
    outer loop
      vertex   2.500000e+001 -3.239023e+001 -2.500903e+002
      vertex   2.500000e+001 -4.064563e+001 -2.717541e+002
      vertex   -3.000000e+002 -4.064563e+001 -2.717541e+002
    endloop
  endfacet
  facet normal 0.000000e+000 9.223116e-001 -3.864469e-001
    outer loop
      vertex   -3.000000e+002 -4.064563e+001 -2.717541e+002
      vertex   2.500000e+001 -4.064563e+001 -2.717541e+002
      vertex   2.500000e+001 -4.960482e+001 -2.931365e+002
    endloop
  endfacet
  facet normal 0.000000e+000 9.091857e-001 -4.163909e-001
    outer loop
      vertex   2.500000e+001 -4.960482e+001 -2.931365e+002
      vertex   2.500000e+001 -5.925821e+001 -3.142146e+002
      vertex   -3.000000e+002 -5.925821e+001 -3.142146e+002
    endloop
  endfacet
  facet normal 0.000000e+000 8.950878e-001 -4.458899e-001
    outer loop
      vertex   2.500000e+001 -5.925821e+001 -3.142146e+002
      vertex   2.500000e+001 -6.959549e+001 -3.349659e+002
      vertex   -3.000000e+002 -6.959549e+001 -3.349659e+002
    endloop
  endfacet
  facet normal 0.000000e+000 8.800332e-001 -4.749122e-001
    outer loop
      vertex   2.500000e+001 -6.959549e+001 -3.349659e+002
      vertex   2.500000e+001 -8.060561e+001 -3.553681e+002
      vertex   -3.000000e+002 -8.060561e+001 -3.553681e+002
    endloop
  endfacet
  facet normal 0.000000e+000 8.640379e-001 -5.034268e-001
    outer loop
      vertex   2.500000e+001 -8.060561e+001 -3.553681e+002
      vertex   2.500000e+001 -9.227680e+001 -3.753995e+002
      vertex   -3.000000e+002 -9.227680e+001 -3.753995e+002
    endloop
  endfacet
  facet normal 0.000000e+000 8.471189e-001 -5.314033e-001
    outer loop
      vertex   -3.000000e+002 -9.227680e+001 -3.753995e+002
      vertex   2.500000e+001 -9.227680e+001 -3.753995e+002
      vertex   2.500000e+001 -1.045966e+002 -3.950387e+002
    endloop
  endfacet
  facet normal 0.000000e+000 8.292945e-001 -5.588118e-001
    outer loop
      vertex   2.500000e+001 -1.045966e+002 -3.950387e+002
      vertex   2.500000e+001 -1.175518e+002 -4.142646e+002
      vertex   -3.000000e+002 -1.175518e+002 -4.142646e+002
    endloop
  endfacet
  facet normal 0.000000e+000 8.105836e-001 -5.856229e-001
    outer loop
      vertex   2.500000e+001 -1.175518e+002 -4.142646e+002
      vertex   2.500000e+001 -1.311286e+002 -4.330568e+002
      vertex   -3.000000e+002 -1.311286e+002 -4.330568e+002
    endloop
  endfacet
  facet normal 0.000000e+000 7.910062e-001 -6.118081e-001
    outer loop
      vertex   2.500000e+001 -1.311286e+002 -4.330568e+002
      vertex   2.500000e+001 -1.453124e+002 -4.513951e+002
      vertex   -3.000000e+002 -1.453124e+002 -4.513951e+002
    endloop
  endfacet
  facet normal 0.000000e+000 7.705833e-001 -6.373393e-001
    outer loop
      vertex   2.500000e+001 -1.453124e+002 -4.513951e+002
      vertex   2.500000e+001 -1.600882e+002 -4.692599e+002
      vertex   -3.000000e+002 -1.600882e+002 -4.692599e+002
    endloop
  endfacet
  facet normal 0.000000e+000 7.493367e-001 -6.621892e-001
    outer loop
      vertex   -3.000000e+002 -1.600882e+002 -4.692599e+002
      vertex   2.500000e+001 -1.600882e+002 -4.692599e+002
      vertex   2.500000e+001 -1.754400e+002 -4.866321e+002
    endloop
  endfacet
  facet normal 0.000000e+000 7.272891e-001 -6.863312e-001
    outer loop
      vertex   2.500000e+001 -1.754400e+002 -4.866321e+002
      vertex   2.500000e+001 -1.913516e+002 -5.034932e+002
      vertex   -3.000000e+002 -1.913516e+002 -5.034932e+002
    endloop
  endfacet
  facet normal 0.000000e+000 7.044641e-001 -7.097396e-001
    outer loop
      vertex   2.500000e+001 -1.913516e+002 -5.034932e+002
      vertex   2.500000e+001 -2.078058e+002 -5.198252e+002
      vertex   -3.000000e+002 -2.078058e+002 -5.198252e+002
    endloop
  endfacet
  facet normal 0.000000e+000 6.808860e-001 -7.323894e-001
    outer loop
      vertex   -3.000000e+002 -2.078058e+002 -5.198252e+002
      vertex   2.500000e+001 -2.078058e+002 -5.198252e+002
      vertex   2.500000e+001 -2.247852e+002 -5.356105e+002
    endloop
  endfacet
  facet normal 0.000000e+000 6.565802e-001 -7.542562e-001
    outer loop
      vertex   2.500000e+001 -2.247852e+002 -5.356105e+002
      vertex   2.500000e+001 -2.422714e+002 -5.508323e+002
      vertex   -3.000000e+002 -2.422714e+002 -5.508323e+002
    endloop
  endfacet
  facet normal 0.000000e+000 6.315724e-001 -7.753169e-001
    outer loop
      vertex   2.500000e+001 -2.422714e+002 -5.508323e+002
      vertex   2.500000e+001 -2.602460e+002 -5.654743e+002
      vertex   -3.000000e+002 -2.602460e+002 -5.654743e+002
    endloop
  endfacet
  facet normal 0.000000e+000 6.058896e-001 -7.955487e-001
    outer loop
      vertex   -3.000000e+002 -2.602460e+002 -5.654743e+002
      vertex   2.500000e+001 -2.602460e+002 -5.654743e+002
      vertex   2.500000e+001 -2.786896e+002 -5.795210e+002
    endloop
  endfacet
  facet normal 0.000000e+000 5.795591e-001 -8.149302e-001
    outer loop
      vertex   2.500000e+001 -2.786896e+002 -5.795210e+002
      vertex   2.500000e+001 -2.975825e+002 -5.929572e+002
      vertex   -3.000000e+002 -2.975825e+002 -5.929572e+002
    endloop
  endfacet
  facet normal 0.000000e+000 5.526091e-001 -8.334405e-001
    outer loop
      vertex   2.500000e+001 -2.975825e+002 -5.929572e+002
      vertex   2.500000e+001 -3.169046e+002 -6.057686e+002
      vertex   -3.000000e+002 -3.169046e+002 -6.057686e+002
    endloop
  endfacet
  facet normal 0.000000e+000 5.250684e-001 -8.510600e-001
    outer loop
      vertex   -3.000000e+002 -3.169046e+002 -6.057686e+002
      vertex   2.500000e+001 -3.169046e+002 -6.057686e+002
      vertex   2.500000e+001 -3.366351e+002 -6.179415e+002
    endloop
  endfacet
  facet normal 0.000000e+000 4.969665e-001 -8.677697e-001
    outer loop
      vertex   2.500000e+001 -3.366351e+002 -6.179415e+002
      vertex   2.500000e+001 -3.567530e+002 -6.294629e+002
      vertex   -3.000000e+002 -3.567530e+002 -6.294629e+002
    endloop
  endfacet
  facet normal 0.000000e+000 4.683333e-001 -8.835519e-001
    outer loop
      vertex   2.500000e+001 -3.567530e+002 -6.294629e+002
      vertex   2.500000e+001 -3.772368e+002 -6.403205e+002
      vertex   -3.000000e+002 -3.772368e+002 -6.403205e+002
    endloop
  endfacet
  facet normal 0.000000e+000 4.391995e-001 -8.983896e-001
    outer loop
      vertex   -3.000000e+002 -3.980647e+002 -6.505027e+002
      vertex   -3.000000e+002 -3.772368e+002 -6.403205e+002
      vertex   2.500000e+001 -3.772368e+002 -6.403205e+002
    endloop
  endfacet
  facet normal 0.000000e+000 4.391995e-001 -8.983896e-001
    outer loop
      vertex   2.500000e+001 -3.772368e+002 -6.403205e+002
      vertex   2.500000e+001 -3.980647e+002 -6.505027e+002
      vertex   -3.000000e+002 -3.980647e+002 -6.505027e+002
    endloop
  endfacet
  facet normal 0.000000e+000 4.683333e-001 -8.835519e-001
    outer loop
      vertex   -3.000000e+002 -3.772368e+002 -6.403205e+002
      vertex   -3.000000e+002 -3.567530e+002 -6.294629e+002
      vertex   2.500000e+001 -3.567530e+002 -6.294629e+002
    endloop
  endfacet
  facet normal 0.000000e+000 4.969665e-001 -8.677697e-001
    outer loop
      vertex   -3.000000e+002 -3.567530e+002 -6.294629e+002
      vertex   -3.000000e+002 -3.366351e+002 -6.179415e+002
      vertex   2.500000e+001 -3.366351e+002 -6.179415e+002
    endloop
  endfacet
  facet normal 0.000000e+000 5.250684e-001 -8.510600e-001
    outer loop
      vertex   2.500000e+001 -3.366351e+002 -6.179415e+002
      vertex   -3.000000e+002 -3.366351e+002 -6.179415e+002
      vertex   -3.000000e+002 -3.169046e+002 -6.057686e+002
    endloop
  endfacet
  facet normal 0.000000e+000 5.526091e-001 -8.334405e-001
    outer loop
      vertex   -3.000000e+002 -3.169046e+002 -6.057686e+002
      vertex   -3.000000e+002 -2.975825e+002 -5.929572e+002
      vertex   2.500000e+001 -2.975825e+002 -5.929572e+002
    endloop
  endfacet
  facet normal 0.000000e+000 5.795591e-001 -8.149302e-001
    outer loop
      vertex   -3.000000e+002 -2.975825e+002 -5.929572e+002
      vertex   -3.000000e+002 -2.786896e+002 -5.795210e+002
      vertex   2.500000e+001 -2.786896e+002 -5.795210e+002
    endloop
  endfacet
  facet normal 0.000000e+000 6.058896e-001 -7.955487e-001
    outer loop
      vertex   2.500000e+001 -2.786896e+002 -5.795210e+002
      vertex   -3.000000e+002 -2.786896e+002 -5.795210e+002
      vertex   -3.000000e+002 -2.602460e+002 -5.654743e+002
    endloop
  endfacet
  facet normal 0.000000e+000 6.315724e-001 -7.753169e-001
    outer loop
      vertex   -3.000000e+002 -2.602460e+002 -5.654743e+002
      vertex   -3.000000e+002 -2.422714e+002 -5.508323e+002
      vertex   2.500000e+001 -2.422714e+002 -5.508323e+002
    endloop
  endfacet
  facet normal 0.000000e+000 6.565802e-001 -7.542562e-001
    outer loop
      vertex   -3.000000e+002 -2.422714e+002 -5.508323e+002
      vertex   -3.000000e+002 -2.247852e+002 -5.356105e+002
      vertex   2.500000e+001 -2.247852e+002 -5.356105e+002
    endloop
  endfacet
  facet normal 0.000000e+000 6.808860e-001 -7.323894e-001
    outer loop
      vertex   2.500000e+001 -2.247852e+002 -5.356105e+002
      vertex   -3.000000e+002 -2.247852e+002 -5.356105e+002
      vertex   -3.000000e+002 -2.078058e+002 -5.198252e+002
    endloop
  endfacet
  facet normal 0.000000e+000 7.044641e-001 -7.097396e-001
    outer loop
      vertex   -3.000000e+002 -2.078058e+002 -5.198252e+002
      vertex   -3.000000e+002 -1.913516e+002 -5.034932e+002
      vertex   2.500000e+001 -1.913516e+002 -5.034932e+002
    endloop
  endfacet
  facet normal 0.000000e+000 7.272891e-001 -6.863312e-001
    outer loop
      vertex   -3.000000e+002 -1.913516e+002 -5.034932e+002
      vertex   -3.000000e+002 -1.754400e+002 -4.866321e+002
      vertex   2.500000e+001 -1.754400e+002 -4.866321e+002
    endloop
  endfacet
  facet normal 0.000000e+000 7.493367e-001 -6.621892e-001
    outer loop
      vertex   2.500000e+001 -1.754400e+002 -4.866321e+002
      vertex   -3.000000e+002 -1.754400e+002 -4.866321e+002
      vertex   -3.000000e+002 -1.600882e+002 -4.692599e+002
    endloop
  endfacet
  facet normal 0.000000e+000 7.705833e-001 -6.373393e-001
    outer loop
      vertex   -3.000000e+002 -1.600882e+002 -4.692599e+002
      vertex   -3.000000e+002 -1.453124e+002 -4.513951e+002
      vertex   2.500000e+001 -1.453124e+002 -4.513951e+002
    endloop
  endfacet
  facet normal 0.000000e+000 7.910062e-001 -6.118081e-001
    outer loop
      vertex   -3.000000e+002 -1.453124e+002 -4.513951e+002
      vertex   -3.000000e+002 -1.311286e+002 -4.330568e+002
      vertex   2.500000e+001 -1.311286e+002 -4.330568e+002
    endloop
  endfacet
  facet normal 0.000000e+000 8.105836e-001 -5.856229e-001
    outer loop
      vertex   -3.000000e+002 -1.311286e+002 -4.330568e+002
      vertex   -3.000000e+002 -1.175518e+002 -4.142646e+002
      vertex   2.500000e+001 -1.175518e+002 -4.142646e+002
    endloop
  endfacet
  facet normal 0.000000e+000 8.292945e-001 -5.588118e-001
    outer loop
      vertex   -3.000000e+002 -1.175518e+002 -4.142646e+002
      vertex   -3.000000e+002 -1.045966e+002 -3.950387e+002
      vertex   2.500000e+001 -1.045966e+002 -3.950387e+002
    endloop
  endfacet
  facet normal 0.000000e+000 8.471189e-001 -5.314033e-001
    outer loop
      vertex   2.500000e+001 -1.045966e+002 -3.950387e+002
      vertex   -3.000000e+002 -1.045966e+002 -3.950387e+002
      vertex   -3.000000e+002 -9.227680e+001 -3.753995e+002
    endloop
  endfacet
  facet normal 0.000000e+000 8.640379e-001 -5.034268e-001
    outer loop
      vertex   -3.000000e+002 -9.227680e+001 -3.753995e+002
      vertex   -3.000000e+002 -8.060561e+001 -3.553681e+002
      vertex   2.500000e+001 -8.060561e+001 -3.553681e+002
    endloop
  endfacet
  facet normal 0.000000e+000 8.800332e-001 -4.749122e-001
    outer loop
      vertex   -3.000000e+002 -8.060561e+001 -3.553681e+002
      vertex   -3.000000e+002 -6.959549e+001 -3.349659e+002
      vertex   2.500000e+001 -6.959549e+001 -3.349659e+002
    endloop
  endfacet
  facet normal 0.000000e+000 8.950878e-001 -4.458899e-001
    outer loop
      vertex   -3.000000e+002 -6.959549e+001 -3.349659e+002
      vertex   -3.000000e+002 -5.925821e+001 -3.142146e+002
      vertex   2.500000e+001 -5.925821e+001 -3.142146e+002
    endloop
  endfacet
  facet normal 0.000000e+000 9.091857e-001 -4.163909e-001
    outer loop
      vertex   -3.000000e+002 -5.925821e+001 -3.142146e+002
      vertex   -3.000000e+002 -4.960482e+001 -2.931365e+002
      vertex   2.500000e+001 -4.960482e+001 -2.931365e+002
    endloop
  endfacet
  facet normal 0.000000e+000 9.223116e-001 -3.864469e-001
    outer loop
      vertex   2.500000e+001 -4.960482e+001 -2.931365e+002
      vertex   -3.000000e+002 -4.960482e+001 -2.931365e+002
      vertex   -3.000000e+002 -4.064563e+001 -2.717541e+002
    endloop
  endfacet
  facet normal 0.000000e+000 9.344517e-001 -3.560898e-001
    outer loop
      vertex   -3.000000e+002 -4.064563e+001 -2.717541e+002
      vertex   -3.000000e+002 -3.239023e+001 -2.500903e+002
      vertex   2.500000e+001 -3.239023e+001 -2.500903e+002
    endloop
  endfacet
  facet normal 0.000000e+000 9.455929e-001 -3.253521e-001
    outer loop
      vertex   -3.000000e+002 -3.239023e+001 -2.500903e+002
      vertex   -3.000000e+002 -2.484743e+001 -2.281681e+002
      vertex   2.500000e+001 -2.484743e+001 -2.281681e+002
    endloop
  endfacet
  facet normal 0.000000e+000 9.557234e-001 -2.942666e-001
    outer loop
      vertex   -3.000000e+002 -2.484743e+001 -2.281681e+002
      vertex   -3.000000e+002 -1.802531e+001 -2.060111e+002
      vertex   2.500000e+001 -1.802531e+001 -2.060111e+002
    endloop
  endfacet
  facet normal 0.000000e+000 9.648322e-001 -2.628665e-001
    outer loop
      vertex   -3.000000e+002 -1.802531e+001 -2.060111e+002
      vertex   -3.000000e+002 -1.193114e+001 -1.836430e+002
      vertex   2.500000e+001 -1.193114e+001 -1.836430e+002
    endloop
  endfacet
  facet normal 0.000000e+000 9.729097e-001 -2.311854e-001
    outer loop
      vertex   -3.000000e+002 -1.193114e+001 -1.836430e+002
      vertex   -3.000000e+002 -6.571460e+000 -1.610875e+002
      vertex   2.500000e+001 -6.571460e+000 -1.610875e+002
    endloop
  endfacet
  facet normal 0.000000e+000 9.799472e-001 -1.992572e-001
    outer loop
      vertex   -3.000000e+002 -6.571460e+000 -1.610875e+002
      vertex   -3.000000e+002 -1.951982e+000 -1.383689e+002
      vertex   2.500000e+001 -1.951982e+000 -1.383689e+002
    endloop
  endfacet
  facet normal 0.000000e+000 9.859372e-001 -1.671161e-001
    outer loop
      vertex   -3.000000e+002 -1.951982e+000 -1.383689e+002
      vertex   -3.000000e+002 1.922351e+000 -1.155115e+002
      vertex   2.500000e+001 1.922351e+000 -1.155115e+002
    endloop
  endfacet
  facet normal 0.000000e+000 9.908733e-001 -1.347962e-001
    outer loop
      vertex   -3.000000e+002 1.922351e+000 -1.155115e+002
      vertex   -3.000000e+002 5.047398e+000 -9.253957e+001
      vertex   2.500000e+001 5.047398e+000 -9.253957e+001
    endloop
  endfacet
  facet normal 0.000000e+000 9.947503e-001 -1.023323e-001
    outer loop
      vertex   -3.000000e+002 5.047398e+000 -9.253957e+001
      vertex   -3.000000e+002 7.419819e+000 -6.947779e+001
      vertex   2.500000e+001 7.419819e+000 -6.947779e+001
    endloop
  endfacet
  facet normal 0.000000e+000 9.975639e-001 -6.975906e-002
    outer loop
      vertex   -3.000000e+002 7.419819e+000 -6.947779e+001
      vertex   -3.000000e+002 9.037077e+000 -4.635078e+001
      vertex   2.500000e+001 9.037077e+000 -4.635078e+001
    endloop
  endfacet
  facet normal 0.000000e+000 9.993111e-001 -3.711120e-002
    outer loop
      vertex   2.500000e+001 9.037077e+000 -4.635078e+001
      vertex   -3.000000e+002 9.037077e+000 -4.635078e+001
      vertex   -3.000000e+002 9.897444e+000 -2.318326e+001
    endloop
  endfacet
  facet normal -3.414153e-016 9.999902e-001 -4.423673e-003
    outer loop
      vertex   -3.000000e+002 9.897444e+000 -2.318326e+001
      vertex   -3.000000e+002 1.000000e+001 4.336809e-014
      vertex   2.500000e+001 1.000000e+001 5.551115e-014
    endloop
  endfacet
  facet normal -3.736327e-017 -6.071532e-016 1.000000e+000
    outer loop
      vertex   2.500000e+001 -1.000000e+001 4.336809e-014
      vertex   2.500000e+001 1.000000e+001 5.551115e-014
      vertex   -3.000000e+002 1.000000e+001 4.336809e-014
    endloop
  endfacet
  facet normal 0.000000e+000 0.000000e+000 1.000000e+000
    outer loop
      vertex   -3.000000e+002 1.000000e+001 4.336809e-014
      vertex   -3.000000e+002 -1.000000e+001 4.336809e-014
      vertex   2.500000e+001 -1.000000e+001 4.336809e-014
    endloop
  endfacet
  facet normal 0.000000e+000 -4.399422e-001 8.980261e-001
    outer loop
      vertex   -3.000000e+002 -4.063372e+002 -6.322938e+002
      vertex   2.500000e+001 -4.063372e+002 -6.322938e+002
      vertex   2.500000e+001 -3.855100e+002 -6.220905e+002
    endloop
  endfacet
  facet normal 0.000000e+000 -4.699128e-001 8.827128e-001
    outer loop
      vertex   2.500000e+001 -3.855100e+002 -6.220905e+002
      vertex   2.500000e+001 -3.650379e+002 -6.111922e+002
      vertex   -3.000000e+002 -3.650379e+002 -6.111922e+002
    endloop
  endfacet
  facet normal 0.000000e+000 -4.993511e-001 8.663997e-001
    outer loop
      vertex   2.500000e+001 -3.650379e+002 -6.111922e+002
      vertex   2.500000e+001 -3.449442e+002 -5.996112e+002
      vertex   -3.000000e+002 -3.449442e+002 -5.996112e+002
    endloop
  endfacet
  facet normal 0.000000e+000 -5.282238e-001 8.491052e-001
    outer loop
      vertex   -3.000000e+002 -3.252516e+002 -5.873605e+002
      vertex   -3.000000e+002 -3.449442e+002 -5.996112e+002
      vertex   2.500000e+001 -3.449442e+002 -5.996112e+002
    endloop
  endfacet
  facet normal 0.000000e+000 -5.564982e-001 8.308488e-001
    outer loop
      vertex   2.500000e+001 -3.252516e+002 -5.873605e+002
      vertex   2.500000e+001 -3.059823e+002 -5.744540e+002
      vertex   -3.000000e+002 -3.059823e+002 -5.744540e+002
    endloop
  endfacet
  facet normal 0.000000e+000 -5.841422e-001 8.116514e-001
    outer loop
      vertex   2.500000e+001 -3.059823e+002 -5.744540e+002
      vertex   2.500000e+001 -2.871583e+002 -5.609065e+002
      vertex   -3.000000e+002 -2.871583e+002 -5.609065e+002
    endloop
  endfacet
  facet normal 0.000000e+000 -6.111245e-001 7.915345e-001
    outer loop
      vertex   -3.000000e+002 -2.688009e+002 -5.467332e+002
      vertex   -3.000000e+002 -2.871583e+002 -5.609065e+002
      vertex   2.500000e+001 -2.871583e+002 -5.609065e+002
    endloop
  endfacet
  facet normal 0.000000e+000 -6.374145e-001 7.705211e-001
    outer loop
      vertex   2.500000e+001 -2.688009e+002 -5.467332e+002
      vertex   2.500000e+001 -2.509308e+002 -5.319501e+002
      vertex   -3.000000e+002 -2.509308e+002 -5.319501e+002
    endloop
  endfacet
  facet normal 0.000000e+000 -6.629826e-001 7.486348e-001
    outer loop
      vertex   2.500000e+001 -2.509308e+002 -5.319501e+002
      vertex   2.500000e+001 -2.335683e+002 -5.165741e+002
      vertex   -3.000000e+002 -2.335683e+002 -5.165741e+002
    endloop
  endfacet
  facet normal 0.000000e+000 -6.877997e-001 7.259006e-001
    outer loop
      vertex   -3.000000e+002 -2.167331e+002 -5.006225e+002
      vertex   -3.000000e+002 -2.335683e+002 -5.165741e+002
      vertex   2.500000e+001 -2.335683e+002 -5.165741e+002
    endloop
  endfacet
  facet normal 0.000000e+000 -7.118376e-001 7.023441e-001
    outer loop
      vertex   2.500000e+001 -2.167331e+002 -5.006225e+002
      vertex   2.500000e+001 -2.004441e+002 -4.841134e+002
      vertex   -3.000000e+002 -2.004441e+002 -4.841134e+002
    endloop
  endfacet
  facet normal 0.000000e+000 -7.350693e-001 6.779920e-001
    outer loop
      vertex   2.500000e+001 -2.004441e+002 -4.841134e+002
      vertex   2.500000e+001 -1.847200e+002 -4.670655e+002
      vertex   -3.000000e+002 -1.847200e+002 -4.670655e+002
    endloop
  endfacet
  facet normal 0.000000e+000 -7.574683e-001 6.528720e-001
    outer loop
      vertex   2.500000e+001 -1.847200e+002 -4.670655e+002
      vertex   2.500000e+001 -1.695784e+002 -4.494981e+002
      vertex   -3.000000e+002 -1.695784e+002 -4.494981e+002
    endloop
  endfacet
  facet normal 0.000000e+000 -7.790093e-001 6.270124e-001
    outer loop
      vertex   -3.000000e+002 -1.550366e+002 -4.314312e+002
      vertex   -3.000000e+002 -1.695784e+002 -4.494981e+002
      vertex   2.500000e+001 -1.695784e+002 -4.494981e+002
    endloop
  endfacet
  facet normal 0.000000e+000 -7.996679e-001 6.004426e-001
    outer loop
      vertex   2.500000e+001 -1.550366e+002 -4.314312e+002
      vertex   2.500000e+001 -1.411110e+002 -4.128851e+002
      vertex   -3.000000e+002 -1.411110e+002 -4.128851e+002
    endloop
  endfacet
  facet normal 0.000000e+000 -8.194207e-001 5.731926e-001
    outer loop
      vertex   2.500000e+001 -1.411110e+002 -4.128851e+002
      vertex   2.500000e+001 -1.278174e+002 -3.938809e+002
      vertex   -3.000000e+002 -1.278174e+002 -3.938809e+002
    endloop
  endfacet
  facet normal 0.000000e+000 -8.382453e-001 5.452934e-001
    outer loop
      vertex   2.500000e+001 -1.278174e+002 -3.938809e+002
      vertex   2.500000e+001 -1.151709e+002 -3.744401e+002
      vertex   -3.000000e+002 -1.151709e+002 -3.744401e+002
    endloop
  endfacet
  facet normal 0.000000e+000 -8.561204e-001 5.167765e-001
    outer loop
      vertex   -3.000000e+002 -1.031857e+002 -3.545848e+002
      vertex   -3.000000e+002 -1.151709e+002 -3.744401e+002
      vertex   2.500000e+001 -1.151709e+002 -3.744401e+002
    endloop
  endfacet
  facet normal 0.000000e+000 -8.730257e-001 4.876742e-001
    outer loop
      vertex   2.500000e+001 -1.031857e+002 -3.545848e+002
      vertex   2.500000e+001 -9.187543e+001 -3.343374e+002
      vertex   -3.000000e+002 -9.187543e+001 -3.343374e+002
    endloop
  endfacet
  facet normal 0.000000e+000 -8.889421e-001 4.580195e-001
    outer loop
      vertex   2.500000e+001 -9.187543e+001 -3.343374e+002
      vertex   2.500000e+001 -8.125294e+001 -3.137209e+002
      vertex   -3.000000e+002 -8.125294e+001 -3.137209e+002
    endloop
  endfacet
  facet normal 0.000000e+000 -9.038516e-001 4.278460e-001
    outer loop
      vertex   2.500000e+001 -8.125294e+001 -3.137209e+002
      vertex   2.500000e+001 -7.133025e+001 -2.927585e+002
      vertex   -3.000000e+002 -7.133025e+001 -2.927585e+002
    endloop
  endfacet
  facet normal 0.000000e+000 -9.177373e-001 3.971879e-001
    outer loop
      vertex   2.500000e+001 -7.133025e+001 -2.927585e+002
      vertex   2.500000e+001 -6.211858e+001 -2.714742e+002
      vertex   -3.000000e+002 -6.211858e+001 -2.714742e+002
    endloop
  endfacet
  facet normal 0.000000e+000 -9.305834e-001 3.660799e-001
    outer loop
      vertex   2.500000e+001 -6.211858e+001 -2.714742e+002
      vertex   2.500000e+001 -5.362837e+001 -2.498919e+002
      vertex   -3.000000e+002 -5.362837e+001 -2.498919e+002
    endloop
  endfacet
  facet normal 0.000000e+000 -9.423755e-001 3.345572e-001
    outer loop
      vertex   -3.000000e+002 -4.586925e+001 -2.280361e+002
      vertex   -3.000000e+002 -5.362837e+001 -2.498919e+002
      vertex   2.500000e+001 -5.362837e+001 -2.498919e+002
    endloop
  endfacet
  facet normal 0.000000e+000 -9.531000e-001 3.026555e-001
    outer loop
      vertex   2.500000e+001 -4.586925e+001 -2.280361e+002
      vertex   2.500000e+001 -3.885000e+001 -2.059316e+002
      vertex   -3.000000e+002 -3.885000e+001 -2.059316e+002
    endloop
  endfacet
  facet normal 0.000000e+000 -9.627450e-001 2.704110e-001
    outer loop
      vertex   2.500000e+001 -3.885000e+001 -2.059316e+002
      vertex   2.500000e+001 -3.257857e+001 -1.836034e+002
      vertex   -3.000000e+002 -3.257857e+001 -1.836034e+002
    endloop
  endfacet
  facet normal 0.000000e+000 -9.712994e-001 2.378602e-001
    outer loop
      vertex   2.500000e+001 -3.257857e+001 -1.836034e+002
      vertex   2.500000e+001 -2.706206e+001 -1.610768e+002
      vertex   -3.000000e+002 -2.706206e+001 -1.610768e+002
    endloop
  endfacet
  facet normal 0.000000e+000 -9.787536e-001 2.050400e-001
    outer loop
      vertex   2.500000e+001 -2.706206e+001 -1.610768e+002
      vertex   2.500000e+001 -2.230673e+001 -1.383774e+002
      vertex   -3.000000e+002 -2.230673e+001 -1.383774e+002
    endloop
  endfacet
  facet normal 0.000000e+000 -9.850991e-001 1.719875e-001
    outer loop
      vertex   2.500000e+001 -2.230673e+001 -1.383774e+002
      vertex   2.500000e+001 -1.831796e+001 -1.155307e+002
      vertex   -3.000000e+002 -1.831796e+001 -1.155307e+002
    endloop
  endfacet
  facet normal 0.000000e+000 -9.903288e-001 1.387402e-001
    outer loop
      vertex   2.500000e+001 -1.831796e+001 -1.155307e+002
      vertex   2.500000e+001 -1.510027e+001 -9.256280e+001
      vertex   -3.000000e+002 -1.510027e+001 -9.256280e+001
    endloop
  endfacet
  facet normal 0.000000e+000 -9.944367e-001 1.053357e-001
    outer loop
      vertex   2.500000e+001 -1.510027e+001 -9.256280e+001
      vertex   2.500000e+001 -1.265730e+001 -6.949960e+001
      vertex   -3.000000e+002 -1.265730e+001 -6.949960e+001
    endloop
  endfacet
  facet normal 0.000000e+000 -9.974182e-001 7.181193e-002
    outer loop
      vertex   2.500000e+001 -1.265730e+001 -6.949960e+001
      vertex   2.500000e+001 -1.099182e+001 -4.636726e+001
      vertex   -3.000000e+002 -1.099182e+001 -4.636726e+001
    endloop
  endfacet
  facet normal 0.000000e+000 -9.992699e-001 3.820681e-002
    outer loop
      vertex   2.500000e+001 -1.099182e+001 -4.636726e+001
      vertex   2.500000e+001 -1.010572e+001 -2.319198e+001
      vertex   -3.000000e+002 -1.010572e+001 -2.319198e+001
    endloop
  endfacet
  facet normal 0.000000e+000 -9.999896e-001 4.558416e-003
    outer loop
      vertex   2.500000e+001 -1.010572e+001 -2.319198e+001
      vertex   2.500000e+001 -1.000000e+001 4.336809e-014
      vertex   -3.000000e+002 -1.000000e+001 4.336809e-014
    endloop
  endfacet
  facet normal 0.000000e+000 -9.999896e-001 4.558416e-003
    outer loop
      vertex   -3.000000e+002 -1.000000e+001 4.336809e-014
      vertex   -3.000000e+002 -1.010572e+001 -2.319198e+001
      vertex   2.500000e+001 -1.010572e+001 -2.319198e+001
    endloop
  endfacet
  facet normal 0.000000e+000 -9.992699e-001 3.820681e-002
    outer loop
      vertex   -3.000000e+002 -1.010572e+001 -2.319198e+001
      vertex   -3.000000e+002 -1.099182e+001 -4.636726e+001
      vertex   2.500000e+001 -1.099182e+001 -4.636726e+001
    endloop
  endfacet
  facet normal 0.000000e+000 -9.974182e-001 7.181193e-002
    outer loop
      vertex   -3.000000e+002 -1.099182e+001 -4.636726e+001
      vertex   -3.000000e+002 -1.265730e+001 -6.949960e+001
      vertex   2.500000e+001 -1.265730e+001 -6.949960e+001
    endloop
  endfacet
  facet normal 0.000000e+000 -9.944367e-001 1.053357e-001
    outer loop
      vertex   -3.000000e+002 -1.265730e+001 -6.949960e+001
      vertex   -3.000000e+002 -1.510027e+001 -9.256280e+001
      vertex   2.500000e+001 -1.510027e+001 -9.256280e+001
    endloop
  endfacet
  facet normal 0.000000e+000 -9.903288e-001 1.387402e-001
    outer loop
      vertex   -3.000000e+002 -1.510027e+001 -9.256280e+001
      vertex   -3.000000e+002 -1.831796e+001 -1.155307e+002
      vertex   2.500000e+001 -1.831796e+001 -1.155307e+002
    endloop
  endfacet
  facet normal 0.000000e+000 -9.850991e-001 1.719875e-001
    outer loop
      vertex   -3.000000e+002 -1.831796e+001 -1.155307e+002
      vertex   -3.000000e+002 -2.230673e+001 -1.383774e+002
      vertex   2.500000e+001 -2.230673e+001 -1.383774e+002
    endloop
  endfacet
  facet normal 0.000000e+000 -9.787536e-001 2.050400e-001
    outer loop
      vertex   -3.000000e+002 -2.230673e+001 -1.383774e+002
      vertex   -3.000000e+002 -2.706206e+001 -1.610768e+002
      vertex   2.500000e+001 -2.706206e+001 -1.610768e+002
    endloop
  endfacet
  facet normal 0.000000e+000 -9.712994e-001 2.378602e-001
    outer loop
      vertex   -3.000000e+002 -2.706206e+001 -1.610768e+002
      vertex   -3.000000e+002 -3.257857e+001 -1.836034e+002
      vertex   2.500000e+001 -3.257857e+001 -1.836034e+002
    endloop
  endfacet
  facet normal 0.000000e+000 -9.627450e-001 2.704110e-001
    outer loop
      vertex   -3.000000e+002 -3.257857e+001 -1.836034e+002
      vertex   -3.000000e+002 -3.885000e+001 -2.059316e+002
      vertex   2.500000e+001 -3.885000e+001 -2.059316e+002
    endloop
  endfacet
  facet normal 0.000000e+000 -9.531000e-001 3.026555e-001
    outer loop
      vertex   -3.000000e+002 -3.885000e+001 -2.059316e+002
      vertex   -3.000000e+002 -4.586925e+001 -2.280361e+002
      vertex   2.500000e+001 -4.586925e+001 -2.280361e+002
    endloop
  endfacet
  facet normal 0.000000e+000 -9.423755e-001 3.345572e-001
    outer loop
      vertex   2.500000e+001 -5.362837e+001 -2.498919e+002
      vertex   2.500000e+001 -4.586925e+001 -2.280361e+002
      vertex   -3.000000e+002 -4.586925e+001 -2.280361e+002
    endloop
  endfacet
  facet normal 0.000000e+000 -9.305834e-001 3.660799e-001
    outer loop
      vertex   -3.000000e+002 -5.362837e+001 -2.498919e+002
      vertex   -3.000000e+002 -6.211858e+001 -2.714742e+002
      vertex   2.500000e+001 -6.211858e+001 -2.714742e+002
    endloop
  endfacet
  facet normal 0.000000e+000 -9.177373e-001 3.971879e-001
    outer loop
      vertex   -3.000000e+002 -6.211858e+001 -2.714742e+002
      vertex   -3.000000e+002 -7.133025e+001 -2.927585e+002
      vertex   2.500000e+001 -7.133025e+001 -2.927585e+002
    endloop
  endfacet
  facet normal 0.000000e+000 -9.038516e-001 4.278460e-001
    outer loop
      vertex   -3.000000e+002 -7.133025e+001 -2.927585e+002
      vertex   -3.000000e+002 -8.125294e+001 -3.137209e+002
      vertex   2.500000e+001 -8.125294e+001 -3.137209e+002
    endloop
  endfacet
  facet normal 0.000000e+000 -8.889421e-001 4.580195e-001
    outer loop
      vertex   -3.000000e+002 -8.125294e+001 -3.137209e+002
      vertex   -3.000000e+002 -9.187543e+001 -3.343374e+002
      vertex   2.500000e+001 -9.187543e+001 -3.343374e+002
    endloop
  endfacet
  facet normal 0.000000e+000 -8.730257e-001 4.876742e-001
    outer loop
      vertex   -3.000000e+002 -9.187543e+001 -3.343374e+002
      vertex   -3.000000e+002 -1.031857e+002 -3.545848e+002
      vertex   2.500000e+001 -1.031857e+002 -3.545848e+002
    endloop
  endfacet
  facet normal 0.000000e+000 -8.561204e-001 5.167765e-001
    outer loop
      vertex   2.500000e+001 -1.151709e+002 -3.744401e+002
      vertex   2.500000e+001 -1.031857e+002 -3.545848e+002
      vertex   -3.000000e+002 -1.031857e+002 -3.545848e+002
    endloop
  endfacet
  facet normal 0.000000e+000 -8.382453e-001 5.452934e-001
    outer loop
      vertex   -3.000000e+002 -1.151709e+002 -3.744401e+002
      vertex   -3.000000e+002 -1.278174e+002 -3.938809e+002
      vertex   2.500000e+001 -1.278174e+002 -3.938809e+002
    endloop
  endfacet
  facet normal 0.000000e+000 -8.194207e-001 5.731926e-001
    outer loop
      vertex   -3.000000e+002 -1.278174e+002 -3.938809e+002
      vertex   -3.000000e+002 -1.411110e+002 -4.128851e+002
      vertex   2.500000e+001 -1.411110e+002 -4.128851e+002
    endloop
  endfacet
  facet normal 0.000000e+000 -7.996679e-001 6.004426e-001
    outer loop
      vertex   -3.000000e+002 -1.411110e+002 -4.128851e+002
      vertex   -3.000000e+002 -1.550366e+002 -4.314312e+002
      vertex   2.500000e+001 -1.550366e+002 -4.314312e+002
    endloop
  endfacet
  facet normal 0.000000e+000 -7.790093e-001 6.270124e-001
    outer loop
      vertex   2.500000e+001 -1.695784e+002 -4.494981e+002
      vertex   2.500000e+001 -1.550366e+002 -4.314312e+002
      vertex   -3.000000e+002 -1.550366e+002 -4.314312e+002
    endloop
  endfacet
  facet normal 0.000000e+000 -7.574683e-001 6.528720e-001
    outer loop
      vertex   -3.000000e+002 -1.695784e+002 -4.494981e+002
      vertex   -3.000000e+002 -1.847200e+002 -4.670655e+002
      vertex   2.500000e+001 -1.847200e+002 -4.670655e+002
    endloop
  endfacet
  facet normal 0.000000e+000 -7.350693e-001 6.779920e-001
    outer loop
      vertex   -3.000000e+002 -1.847200e+002 -4.670655e+002
      vertex   -3.000000e+002 -2.004441e+002 -4.841134e+002
      vertex   2.500000e+001 -2.004441e+002 -4.841134e+002
    endloop
  endfacet
  facet normal 0.000000e+000 -7.118376e-001 7.023441e-001
    outer loop
      vertex   -3.000000e+002 -2.004441e+002 -4.841134e+002
      vertex   -3.000000e+002 -2.167331e+002 -5.006225e+002
      vertex   2.500000e+001 -2.167331e+002 -5.006225e+002
    endloop
  endfacet
  facet normal 0.000000e+000 -6.877997e-001 7.259006e-001
    outer loop
      vertex   2.500000e+001 -2.335683e+002 -5.165741e+002
      vertex   2.500000e+001 -2.167331e+002 -5.006225e+002
      vertex   -3.000000e+002 -2.167331e+002 -5.006225e+002
    endloop
  endfacet
  facet normal 0.000000e+000 -6.629826e-001 7.486348e-001
    outer loop
      vertex   -3.000000e+002 -2.335683e+002 -5.165741e+002
      vertex   -3.000000e+002 -2.509308e+002 -5.319501e+002
      vertex   2.500000e+001 -2.509308e+002 -5.319501e+002
    endloop
  endfacet
  facet normal 0.000000e+000 -6.374145e-001 7.705211e-001
    outer loop
      vertex   -3.000000e+002 -2.509308e+002 -5.319501e+002
      vertex   -3.000000e+002 -2.688009e+002 -5.467332e+002
      vertex   2.500000e+001 -2.688009e+002 -5.467332e+002
    endloop
  endfacet
  facet normal 0.000000e+000 -6.111245e-001 7.915345e-001
    outer loop
      vertex   2.500000e+001 -2.871583e+002 -5.609065e+002
      vertex   2.500000e+001 -2.688009e+002 -5.467332e+002
      vertex   -3.000000e+002 -2.688009e+002 -5.467332e+002
    endloop
  endfacet
  facet normal 0.000000e+000 -5.841422e-001 8.116514e-001
    outer loop
      vertex   -3.000000e+002 -2.871583e+002 -5.609065e+002
      vertex   -3.000000e+002 -3.059823e+002 -5.744540e+002
      vertex   2.500000e+001 -3.059823e+002 -5.744540e+002
    endloop
  endfacet
  facet normal 0.000000e+000 -5.564982e-001 8.308488e-001
    outer loop
      vertex   -3.000000e+002 -3.059823e+002 -5.744540e+002
      vertex   -3.000000e+002 -3.252516e+002 -5.873605e+002
      vertex   2.500000e+001 -3.252516e+002 -5.873605e+002
    endloop
  endfacet
  facet normal 0.000000e+000 -5.282238e-001 8.491052e-001
    outer loop
      vertex   2.500000e+001 -3.449442e+002 -5.996112e+002
      vertex   2.500000e+001 -3.252516e+002 -5.873605e+002
      vertex   -3.000000e+002 -3.252516e+002 -5.873605e+002
    endloop
  endfacet
  facet normal 0.000000e+000 -4.993511e-001 8.663997e-001
    outer loop
      vertex   -3.000000e+002 -3.449442e+002 -5.996112e+002
      vertex   -3.000000e+002 -3.650379e+002 -6.111922e+002
      vertex   2.500000e+001 -3.650379e+002 -6.111922e+002
    endloop
  endfacet
  facet normal 0.000000e+000 -4.699128e-001 8.827128e-001
    outer loop
      vertex   -3.000000e+002 -3.650379e+002 -6.111922e+002
      vertex   -3.000000e+002 -3.855100e+002 -6.220905e+002
      vertex   2.500000e+001 -3.855100e+002 -6.220905e+002
    endloop
  endfacet
  facet normal 0.000000e+000 -4.399422e-001 8.980261e-001
    outer loop
      vertex   2.500000e+001 -3.855100e+002 -6.220905e+002
      vertex   -3.000000e+002 -3.855100e+002 -6.220905e+002
      vertex   -3.000000e+002 -4.063372e+002 -6.322938e+002
    endloop
  endfacet
  facet normal -1.517540e-016 9.104461e-001 4.136278e-001
    outer loop
      vertex   2.500000e+001 -3.980647e+002 -6.505027e+002
      vertex   2.500000e+001 -3.848801e+002 -6.795235e+002
      vertex   -3.000000e+002 -3.848801e+002 -6.795235e+002
    endloop
  endfacet
  facet normal 0.000000e+000 9.104461e-001 4.136278e-001
    outer loop
      vertex   -3.000000e+002 -3.848801e+002 -6.795235e+002
      vertex   -3.000000e+002 -3.980647e+002 -6.505027e+002
      vertex   2.500000e+001 -3.980647e+002 -6.505027e+002
    endloop
  endfacet
  facet normal -1.000000e+000 0.000000e+000 0.000000e+000
    outer loop
      vertex   -3.000000e+002 -1.802531e+001 -2.060111e+002
      vertex   -3.000000e+002 -3.885000e+001 -2.059316e+002
      vertex   -3.000000e+002 -3.257857e+001 -1.836034e+002
    endloop
  endfacet
  facet normal -1.000000e+000 0.000000e+000 0.000000e+000
    outer loop
      vertex   -3.000000e+002 -2.484743e+001 -2.281681e+002
      vertex   -3.000000e+002 -4.586925e+001 -2.280361e+002
      vertex   -3.000000e+002 -3.885000e+001 -2.059316e+002
    endloop
  endfacet
  facet normal -1.000000e+000 0.000000e+000 0.000000e+000
    outer loop
      vertex   -3.000000e+002 -4.064563e+001 -2.717541e+002
      vertex   -3.000000e+002 -6.211858e+001 -2.714742e+002
      vertex   -3.000000e+002 -5.362837e+001 -2.498919e+002
    endloop
  endfacet
  facet normal -1.000000e+000 0.000000e+000 0.000000e+000
    outer loop
      vertex   -3.000000e+002 -4.960482e+001 -2.931365e+002
      vertex   -3.000000e+002 -7.133025e+001 -2.927585e+002
      vertex   -3.000000e+002 -6.211858e+001 -2.714742e+002
    endloop
  endfacet
  facet normal -1.000000e+000 0.000000e+000 0.000000e+000
    outer loop
      vertex   -3.000000e+002 9.037077e+000 -4.635078e+001
      vertex   -3.000000e+002 -1.099182e+001 -4.636726e+001
      vertex   -3.000000e+002 -1.010572e+001 -2.319198e+001
    endloop
  endfacet
  facet normal -1.000000e+000 0.000000e+000 0.000000e+000
    outer loop
      vertex   -3.000000e+002 7.419819e+000 -6.947779e+001
      vertex   -3.000000e+002 -1.265730e+001 -6.949960e+001
      vertex   -3.000000e+002 -1.099182e+001 -4.636726e+001
    endloop
  endfacet
  facet normal -1.000000e+000 0.000000e+000 0.000000e+000
    outer loop
      vertex   -3.000000e+002 5.047398e+000 -9.253957e+001
      vertex   -3.000000e+002 -1.510027e+001 -9.256280e+001
      vertex   -3.000000e+002 -1.265730e+001 -6.949960e+001
    endloop
  endfacet
  facet normal -1.000000e+000 0.000000e+000 0.000000e+000
    outer loop
      vertex   -3.000000e+002 1.922351e+000 -1.155115e+002
      vertex   -3.000000e+002 -1.831796e+001 -1.155307e+002
      vertex   -3.000000e+002 -1.510027e+001 -9.256280e+001
    endloop
  endfacet
  facet normal -1.000000e+000 0.000000e+000 0.000000e+000
    outer loop
      vertex   -3.000000e+002 -1.193114e+001 -1.836430e+002
      vertex   -3.000000e+002 -3.257857e+001 -1.836034e+002
      vertex   -3.000000e+002 -2.706206e+001 -1.610768e+002
    endloop
  endfacet
  facet normal -1.000000e+000 0.000000e+000 0.000000e+000
    outer loop
      vertex   -3.000000e+002 -3.885000e+001 -2.059316e+002
      vertex   -3.000000e+002 -1.802531e+001 -2.060111e+002
      vertex   -3.000000e+002 -2.484743e+001 -2.281681e+002
    endloop
  endfacet
  facet normal -1.000000e+000 0.000000e+000 0.000000e+000
    outer loop
      vertex   -3.000000e+002 -3.239023e+001 -2.500903e+002
      vertex   -3.000000e+002 -5.362837e+001 -2.498919e+002
      vertex   -3.000000e+002 -4.586925e+001 -2.280361e+002
    endloop
  endfacet
  facet normal -1.000000e+000 0.000000e+000 0.000000e+000
    outer loop
      vertex   -3.000000e+002 -6.211858e+001 -2.714742e+002
      vertex   -3.000000e+002 -4.064563e+001 -2.717541e+002
      vertex   -3.000000e+002 -4.960482e+001 -2.931365e+002
    endloop
  endfacet
  facet normal -1.000000e+000 0.000000e+000 0.000000e+000
    outer loop
      vertex   -3.000000e+002 -6.959549e+001 -3.349659e+002
      vertex   -3.000000e+002 -9.187543e+001 -3.343374e+002
      vertex   -3.000000e+002 -8.125294e+001 -3.137209e+002
    endloop
  endfacet
  facet normal -1.000000e+000 0.000000e+000 0.000000e+000
    outer loop
      vertex   -3.000000e+002 -8.060561e+001 -3.553681e+002
      vertex   -3.000000e+002 -1.031857e+002 -3.545848e+002
      vertex   -3.000000e+002 -9.187543e+001 -3.343374e+002
    endloop
  endfacet
  facet normal -1.000000e+000 0.000000e+000 0.000000e+000
    outer loop
      vertex   -3.000000e+002 -1.311286e+002 -4.330568e+002
      vertex   -3.000000e+002 -1.453124e+002 -4.513951e+002
      vertex   -3.000000e+002 -1.550366e+002 -4.314312e+002
    endloop
  endfacet
  facet normal -1.000000e+000 0.000000e+000 0.000000e+000
    outer loop
      vertex   -3.000000e+002 -1.453124e+002 -4.513951e+002
      vertex   -3.000000e+002 -1.600882e+002 -4.692599e+002
      vertex   -3.000000e+002 -1.695784e+002 -4.494981e+002
    endloop
  endfacet
  facet normal -1.000000e+000 0.000000e+000 0.000000e+000
    outer loop
      vertex   -3.000000e+002 -2.078058e+002 -5.198252e+002
      vertex   -3.000000e+002 -2.247852e+002 -5.356105e+002
      vertex   -3.000000e+002 -2.335683e+002 -5.165741e+002
    endloop
  endfacet
  facet normal -1.000000e+000 0.000000e+000 0.000000e+000
    outer loop
      vertex   -3.000000e+002 -2.247852e+002 -5.356105e+002
      vertex   -3.000000e+002 -2.422714e+002 -5.508323e+002
      vertex   -3.000000e+002 -2.509308e+002 -5.319501e+002
    endloop
  endfacet
  facet normal -1.000000e+000 0.000000e+000 0.000000e+000
    outer loop
      vertex   -3.000000e+002 -1.099182e+001 -4.636726e+001
      vertex   -3.000000e+002 9.037077e+000 -4.635078e+001
      vertex   -3.000000e+002 7.419819e+000 -6.947779e+001
    endloop
  endfacet
  facet normal -1.000000e+000 0.000000e+000 0.000000e+000
    outer loop
      vertex   -3.000000e+002 -1.510027e+001 -9.256280e+001
      vertex   -3.000000e+002 5.047398e+000 -9.253957e+001
      vertex   -3.000000e+002 1.922351e+000 -1.155115e+002
    endloop
  endfacet
  facet normal -1.000000e+000 0.000000e+000 0.000000e+000
    outer loop
      vertex   -3.000000e+002 -1.951982e+000 -1.383689e+002
      vertex   -3.000000e+002 -2.230673e+001 -1.383774e+002
      vertex   -3.000000e+002 -1.831796e+001 -1.155307e+002
    endloop
  endfacet
  facet normal -1.000000e+000 0.000000e+000 0.000000e+000
    outer loop
      vertex   -3.000000e+002 -6.571460e+000 -1.610875e+002
      vertex   -3.000000e+002 -2.706206e+001 -1.610768e+002
      vertex   -3.000000e+002 -2.230673e+001 -1.383774e+002
    endloop
  endfacet
  facet normal -1.000000e+000 0.000000e+000 0.000000e+000
    outer loop
      vertex   -3.000000e+002 -3.257857e+001 -1.836034e+002
      vertex   -3.000000e+002 -1.193114e+001 -1.836430e+002
      vertex   -3.000000e+002 -1.802531e+001 -2.060111e+002
    endloop
  endfacet
  facet normal -1.000000e+000 0.000000e+000 0.000000e+000
    outer loop
      vertex   -3.000000e+002 -5.362837e+001 -2.498919e+002
      vertex   -3.000000e+002 -3.239023e+001 -2.500903e+002
      vertex   -3.000000e+002 -4.064563e+001 -2.717541e+002
    endloop
  endfacet
  facet normal -1.000000e+000 0.000000e+000 0.000000e+000
    outer loop
      vertex   -3.000000e+002 -5.925821e+001 -3.142146e+002
      vertex   -3.000000e+002 -8.125294e+001 -3.137209e+002
      vertex   -3.000000e+002 -7.133025e+001 -2.927585e+002
    endloop
  endfacet
  facet normal -1.000000e+000 0.000000e+000 0.000000e+000
    outer loop
      vertex   -3.000000e+002 -9.187543e+001 -3.343374e+002
      vertex   -3.000000e+002 -6.959549e+001 -3.349659e+002
      vertex   -3.000000e+002 -8.060561e+001 -3.553681e+002
    endloop
  endfacet
  facet normal -1.000000e+000 0.000000e+000 0.000000e+000
    outer loop
      vertex   -3.000000e+002 -1.045966e+002 -3.950387e+002
      vertex   -3.000000e+002 -1.175518e+002 -4.142646e+002
      vertex   -3.000000e+002 -1.278174e+002 -3.938809e+002
    endloop
  endfacet
  facet normal -1.000000e+000 0.000000e+000 0.000000e+000
    outer loop
      vertex   -3.000000e+002 -1.695784e+002 -4.494981e+002
      vertex   -3.000000e+002 -1.550366e+002 -4.314312e+002
      vertex   -3.000000e+002 -1.453124e+002 -4.513951e+002
    endloop
  endfacet
  facet normal -1.000000e+000 0.000000e+000 0.000000e+000
    outer loop
      vertex   -3.000000e+002 -1.600882e+002 -4.692599e+002
      vertex   -3.000000e+002 -1.754400e+002 -4.866321e+002
      vertex   -3.000000e+002 -1.847200e+002 -4.670655e+002
    endloop
  endfacet
  facet normal -1.000000e+000 0.000000e+000 0.000000e+000
    outer loop
      vertex   -3.000000e+002 -1.754400e+002 -4.866321e+002
      vertex   -3.000000e+002 -1.913516e+002 -5.034932e+002
      vertex   -3.000000e+002 -2.004441e+002 -4.841134e+002
    endloop
  endfacet
  facet normal -1.000000e+000 0.000000e+000 0.000000e+000
    outer loop
      vertex   -3.000000e+002 -1.913516e+002 -5.034932e+002
      vertex   -3.000000e+002 -2.078058e+002 -5.198252e+002
      vertex   -3.000000e+002 -2.167331e+002 -5.006225e+002
    endloop
  endfacet
  facet normal -1.000000e+000 0.000000e+000 0.000000e+000
    outer loop
      vertex   -3.000000e+002 -2.509308e+002 -5.319501e+002
      vertex   -3.000000e+002 -2.335683e+002 -5.165741e+002
      vertex   -3.000000e+002 -2.247852e+002 -5.356105e+002
    endloop
  endfacet
  facet normal -1.000000e+000 0.000000e+000 0.000000e+000
    outer loop
      vertex   -3.000000e+002 -2.422714e+002 -5.508323e+002
      vertex   -3.000000e+002 -2.602460e+002 -5.654743e+002
      vertex   -3.000000e+002 -2.688009e+002 -5.467332e+002
    endloop
  endfacet
  facet normal -1.000000e+000 0.000000e+000 0.000000e+000
    outer loop
      vertex   -3.000000e+002 -2.602460e+002 -5.654743e+002
      vertex   -3.000000e+002 -2.786896e+002 -5.795210e+002
      vertex   -3.000000e+002 -2.871583e+002 -5.609065e+002
    endloop
  endfacet
  facet normal -1.000000e+000 0.000000e+000 0.000000e+000
    outer loop
      vertex   -3.000000e+002 -2.786896e+002 -5.795210e+002
      vertex   -3.000000e+002 -2.975825e+002 -5.929572e+002
      vertex   -3.000000e+002 -3.059823e+002 -5.744540e+002
    endloop
  endfacet
  facet normal -1.000000e+000 0.000000e+000 0.000000e+000
    outer loop
      vertex   -3.000000e+002 -1.265730e+001 -6.949960e+001
      vertex   -3.000000e+002 7.419819e+000 -6.947779e+001
      vertex   -3.000000e+002 5.047398e+000 -9.253957e+001
    endloop
  endfacet
  facet normal -1.000000e+000 0.000000e+000 0.000000e+000
    outer loop
      vertex   -3.000000e+002 -2.230673e+001 -1.383774e+002
      vertex   -3.000000e+002 -1.951982e+000 -1.383689e+002
      vertex   -3.000000e+002 -6.571460e+000 -1.610875e+002
    endloop
  endfacet
  facet normal -1.000000e+000 0.000000e+000 0.000000e+000
    outer loop
      vertex   -3.000000e+002 -4.586925e+001 -2.280361e+002
      vertex   -3.000000e+002 -2.484743e+001 -2.281681e+002
      vertex   -3.000000e+002 -3.239023e+001 -2.500903e+002
    endloop
  endfacet
  facet normal -1.000000e+000 0.000000e+000 0.000000e+000
    outer loop
      vertex   -3.000000e+002 -8.125294e+001 -3.137209e+002
      vertex   -3.000000e+002 -5.925821e+001 -3.142146e+002
      vertex   -3.000000e+002 -6.959549e+001 -3.349659e+002
    endloop
  endfacet
  facet normal -1.000000e+000 0.000000e+000 0.000000e+000
    outer loop
      vertex   -3.000000e+002 -9.227680e+001 -3.753995e+002
      vertex   -3.000000e+002 -1.151709e+002 -3.744401e+002
      vertex   -3.000000e+002 -1.031857e+002 -3.545848e+002
    endloop
  endfacet
  facet normal -1.000000e+000 0.000000e+000 0.000000e+000
    outer loop
      vertex   -3.000000e+002 -1.151709e+002 -3.744401e+002
      vertex   -3.000000e+002 -9.227680e+001 -3.753995e+002
      vertex   -3.000000e+002 -1.045966e+002 -3.950387e+002
    endloop
  endfacet
  facet normal -1.000000e+000 0.000000e+000 0.000000e+000
    outer loop
      vertex   -3.000000e+002 -1.847200e+002 -4.670655e+002
      vertex   -3.000000e+002 -1.695784e+002 -4.494981e+002
      vertex   -3.000000e+002 -1.600882e+002 -4.692599e+002
    endloop
  endfacet
  facet normal -1.000000e+000 0.000000e+000 0.000000e+000
    outer loop
      vertex   -3.000000e+002 -2.167331e+002 -5.006225e+002
      vertex   -3.000000e+002 -2.004441e+002 -4.841134e+002
      vertex   -3.000000e+002 -1.913516e+002 -5.034932e+002
    endloop
  endfacet
  facet normal -1.000000e+000 0.000000e+000 0.000000e+000
    outer loop
      vertex   -3.000000e+002 -2.688009e+002 -5.467332e+002
      vertex   -3.000000e+002 -2.509308e+002 -5.319501e+002
      vertex   -3.000000e+002 -2.422714e+002 -5.508323e+002
    endloop
  endfacet
  facet normal -1.000000e+000 0.000000e+000 0.000000e+000
    outer loop
      vertex   -3.000000e+002 -3.059823e+002 -5.744540e+002
      vertex   -3.000000e+002 -2.871583e+002 -5.609065e+002
      vertex   -3.000000e+002 -2.786896e+002 -5.795210e+002
    endloop
  endfacet
  facet normal -1.000000e+000 0.000000e+000 0.000000e+000
    outer loop
      vertex   -3.000000e+002 -1.831796e+001 -1.155307e+002
      vertex   -3.000000e+002 1.922351e+000 -1.155115e+002
      vertex   -3.000000e+002 -1.951982e+000 -1.383689e+002
    endloop
  endfacet
  facet normal -1.000000e+000 0.000000e+000 0.000000e+000
    outer loop
      vertex   -3.000000e+002 -7.133025e+001 -2.927585e+002
      vertex   -3.000000e+002 -4.960482e+001 -2.931365e+002
      vertex   -3.000000e+002 -5.925821e+001 -3.142146e+002
    endloop
  endfacet
  facet normal -1.000000e+000 0.000000e+000 0.000000e+000
    outer loop
      vertex   -3.000000e+002 -1.278174e+002 -3.938809e+002
      vertex   -3.000000e+002 -1.151709e+002 -3.744401e+002
      vertex   -3.000000e+002 -1.045966e+002 -3.950387e+002
    endloop
  endfacet
  facet normal -1.000000e+000 0.000000e+000 0.000000e+000
    outer loop
      vertex   -3.000000e+002 -1.175518e+002 -4.142646e+002
      vertex   -3.000000e+002 -1.311286e+002 -4.330568e+002
      vertex   -3.000000e+002 -1.411110e+002 -4.128851e+002
    endloop
  endfacet
  facet normal -1.000000e+000 0.000000e+000 0.000000e+000
    outer loop
      vertex   -3.000000e+002 -2.004441e+002 -4.841134e+002
      vertex   -3.000000e+002 -1.847200e+002 -4.670655e+002
      vertex   -3.000000e+002 -1.754400e+002 -4.866321e+002
    endloop
  endfacet
  facet normal -1.000000e+000 0.000000e+000 0.000000e+000
    outer loop
      vertex   -3.000000e+002 -2.871583e+002 -5.609065e+002
      vertex   -3.000000e+002 -2.688009e+002 -5.467332e+002
      vertex   -3.000000e+002 -2.602460e+002 -5.654743e+002
    endloop
  endfacet
  facet normal -1.000000e+000 0.000000e+000 0.000000e+000
    outer loop
      vertex   -3.000000e+002 -2.975825e+002 -5.929572e+002
      vertex   -3.000000e+002 -3.169046e+002 -6.057686e+002
      vertex   -3.000000e+002 -3.252516e+002 -5.873605e+002
    endloop
  endfacet
  facet normal -1.000000e+000 0.000000e+000 0.000000e+000
    outer loop
      vertex   -3.000000e+002 -3.169046e+002 -6.057686e+002
      vertex   -3.000000e+002 -3.366351e+002 -6.179415e+002
      vertex   -3.000000e+002 -3.449442e+002 -5.996112e+002
    endloop
  endfacet
  facet normal -1.000000e+000 0.000000e+000 0.000000e+000
    outer loop
      vertex   -3.000000e+002 -3.772368e+002 -6.403205e+002
      vertex   -3.000000e+002 -3.980647e+002 -6.505027e+002
      vertex   -3.000000e+002 -4.063372e+002 -6.322938e+002
    endloop
  endfacet
  facet normal -1.000000e+000 0.000000e+000 0.000000e+000
    outer loop
      vertex   -3.000000e+002 -1.000000e+001 4.336809e-014
      vertex   -3.000000e+002 1.000000e+001 4.336809e-014
      vertex   -3.000000e+002 9.897444e+000 -2.318326e+001
    endloop
  endfacet
  facet normal -1.000000e+000 0.000000e+000 0.000000e+000
    outer loop
      vertex   -3.000000e+002 -2.706206e+001 -1.610768e+002
      vertex   -3.000000e+002 -6.571460e+000 -1.610875e+002
      vertex   -3.000000e+002 -1.193114e+001 -1.836430e+002
    endloop
  endfacet
  facet normal -1.000000e+000 0.000000e+000 0.000000e+000
    outer loop
      vertex   -3.000000e+002 -1.411110e+002 -4.128851e+002
      vertex   -3.000000e+002 -1.278174e+002 -3.938809e+002
      vertex   -3.000000e+002 -1.175518e+002 -4.142646e+002
    endloop
  endfacet
  facet normal -1.000000e+000 0.000000e+000 0.000000e+000
    outer loop
      vertex   -3.000000e+002 -2.335683e+002 -5.165741e+002
      vertex   -3.000000e+002 -2.167331e+002 -5.006225e+002
      vertex   -3.000000e+002 -2.078058e+002 -5.198252e+002
    endloop
  endfacet
  facet normal -1.000000e+000 0.000000e+000 0.000000e+000
    outer loop
      vertex   -3.000000e+002 -3.449442e+002 -5.996112e+002
      vertex   -3.000000e+002 -3.252516e+002 -5.873605e+002
      vertex   -3.000000e+002 -3.169046e+002 -6.057686e+002
    endloop
  endfacet
  facet normal -1.000000e+000 0.000000e+000 0.000000e+000
    outer loop
      vertex   -3.000000e+002 -3.366351e+002 -6.179415e+002
      vertex   -3.000000e+002 -3.567530e+002 -6.294629e+002
      vertex   -3.000000e+002 -3.650379e+002 -6.111922e+002
    endloop
  endfacet
  facet normal -1.000000e+000 0.000000e+000 0.000000e+000
    outer loop
      vertex   -3.000000e+002 -3.567530e+002 -6.294629e+002
      vertex   -3.000000e+002 -3.772368e+002 -6.403205e+002
      vertex   -3.000000e+002 -3.855100e+002 -6.220905e+002
    endloop
  endfacet
  facet normal -1.000000e+000 0.000000e+000 0.000000e+000
    outer loop
      vertex   -3.000000e+002 -3.980647e+002 -6.505027e+002
      vertex   -3.000000e+002 -4.199939e+002 -6.384982e+002
      vertex   -3.000000e+002 -4.063372e+002 -6.322938e+002
    endloop
  endfacet
  facet normal -1.000000e+000 0.000000e+000 0.000000e+000
    outer loop
      vertex   -3.000000e+002 -1.010572e+001 -2.319198e+001
      vertex   -3.000000e+002 9.897444e+000 -2.318326e+001
      vertex   -3.000000e+002 9.037077e+000 -4.635078e+001
    endloop
  endfacet
  facet normal -1.000000e+000 0.000000e+000 0.000000e+000
    outer loop
      vertex   -3.000000e+002 -1.550366e+002 -4.314312e+002
      vertex   -3.000000e+002 -1.411110e+002 -4.128851e+002
      vertex   -3.000000e+002 -1.311286e+002 -4.330568e+002
    endloop
  endfacet
  facet normal -1.000000e+000 0.000000e+000 0.000000e+000
    outer loop
      vertex   -3.000000e+002 -3.650379e+002 -6.111922e+002
      vertex   -3.000000e+002 -3.449442e+002 -5.996112e+002
      vertex   -3.000000e+002 -3.366351e+002 -6.179415e+002
    endloop
  endfacet
  facet normal -1.000000e+000 0.000000e+000 0.000000e+000
    outer loop
      vertex   -3.000000e+002 -4.063372e+002 -6.322938e+002
      vertex   -3.000000e+002 -3.855100e+002 -6.220905e+002
      vertex   -3.000000e+002 -3.772368e+002 -6.403205e+002
    endloop
  endfacet
  facet normal -1.000000e+000 0.000000e+000 0.000000e+000
    outer loop
      vertex   -3.000000e+002 -1.031857e+002 -3.545848e+002
      vertex   -3.000000e+002 -8.060561e+001 -3.553681e+002
      vertex   -3.000000e+002 -9.227680e+001 -3.753995e+002
    endloop
  endfacet
  facet normal -1.000000e+000 0.000000e+000 0.000000e+000
    outer loop
      vertex   -3.000000e+002 -3.855100e+002 -6.220905e+002
      vertex   -3.000000e+002 -3.650379e+002 -6.111922e+002
      vertex   -3.000000e+002 -3.567530e+002 -6.294629e+002
    endloop
  endfacet
  facet normal -1.000000e+000 0.000000e+000 0.000000e+000
    outer loop
      vertex   -3.000000e+002 -3.985368e+002 -6.857279e+002
      vertex   -3.000000e+002 -4.199939e+002 -6.384982e+002
      vertex   -3.000000e+002 -3.980647e+002 -6.505027e+002
    endloop
  endfacet
  facet normal -1.000000e+000 0.000000e+000 0.000000e+000
    outer loop
      vertex   -3.000000e+002 -3.252516e+002 -5.873605e+002
      vertex   -3.000000e+002 -3.059823e+002 -5.744540e+002
      vertex   -3.000000e+002 -2.975825e+002 -5.929572e+002
    endloop
  endfacet
  facet normal -1.000000e+000 0.000000e+000 0.000000e+000
    outer loop
      vertex   -3.000000e+002 9.897444e+000 -2.318326e+001
      vertex   -3.000000e+002 -1.010572e+001 -2.319198e+001
      vertex   -3.000000e+002 -1.000000e+001 4.336809e-014
    endloop
  endfacet
  facet normal -1.000000e+000 0.000000e+000 0.000000e+000
    outer loop
      vertex   -3.000000e+002 -3.980647e+002 -6.505027e+002
      vertex   -3.000000e+002 -3.848801e+002 -6.795235e+002
      vertex   -3.000000e+002 -3.985368e+002 -6.857279e+002
    endloop
  endfacet
  facet normal 1.000000e+000 -1.627990e-016 -9.404462e-017
    outer loop
      vertex   2.500000e+001 -4.960482e+001 -2.931365e+002
      vertex   2.500000e+001 -4.064563e+001 -2.717541e+002
      vertex   2.500000e+001 -6.211858e+001 -2.714742e+002
    endloop
  endfacet
  facet normal 1.000000e+000 -1.627797e-016 6.203018e-017
    outer loop
      vertex   2.500000e+001 -4.064563e+001 -2.717541e+002
      vertex   2.500000e+001 -3.239023e+001 -2.500903e+002
      vertex   2.500000e+001 -5.362837e+001 -2.498919e+002
    endloop
  endfacet
  facet normal 1.000000e+000 0.000000e+000 0.000000e+000
    outer loop
      vertex   2.500000e+001 -2.484743e+001 -2.281681e+002
      vertex   2.500000e+001 -1.802531e+001 -2.060111e+002
      vertex   2.500000e+001 -3.885000e+001 -2.059316e+002
    endloop
  endfacet
  facet normal 1.000000e+000 0.000000e+000 0.000000e+000
    outer loop
      vertex   2.500000e+001 -1.802531e+001 -2.060111e+002
      vertex   2.500000e+001 -1.193114e+001 -1.836430e+002
      vertex   2.500000e+001 -3.257857e+001 -1.836034e+002
    endloop
  endfacet
  facet normal 1.000000e+000 0.000000e+000 0.000000e+000
    outer loop
      vertex   2.500000e+001 -2.247852e+002 -5.356105e+002
      vertex   2.500000e+001 -2.335683e+002 -5.165741e+002
      vertex   2.500000e+001 -2.509308e+002 -5.319501e+002
    endloop
  endfacet
  facet normal 1.000000e+000 -1.430637e-016 -6.650962e-017
    outer loop
      vertex   2.500000e+001 -2.078058e+002 -5.198252e+002
      vertex   2.500000e+001 -2.167331e+002 -5.006225e+002
      vertex   2.500000e+001 -2.335683e+002 -5.165741e+002
    endloop
  endfacet
  facet normal 1.000000e+000 -1.486352e-016 -7.239865e-017
    outer loop
      vertex   2.500000e+001 -1.453124e+002 -4.513951e+002
      vertex   2.500000e+001 -1.550366e+002 -4.314312e+002
      vertex   2.500000e+001 -1.695784e+002 -4.494981e+002
    endloop
  endfacet
  facet normal 1.000000e+000 0.000000e+000 0.000000e+000
    outer loop
      vertex   2.500000e+001 -1.311286e+002 -4.330568e+002
      vertex   2.500000e+001 -1.411110e+002 -4.128851e+002
      vertex   2.500000e+001 -1.550366e+002 -4.314312e+002
    endloop
  endfacet
  facet normal 1.000000e+000 0.000000e+000 0.000000e+000
    outer loop
      vertex   2.500000e+001 -8.060561e+001 -3.553681e+002
      vertex   2.500000e+001 -6.959549e+001 -3.349659e+002
      vertex   2.500000e+001 -9.187543e+001 -3.343374e+002
    endloop
  endfacet
  facet normal 1.000000e+000 0.000000e+000 0.000000e+000
    outer loop
      vertex   2.500000e+001 -6.959549e+001 -3.349659e+002
      vertex   2.500000e+001 -5.925821e+001 -3.142146e+002
      vertex   2.500000e+001 -8.125294e+001 -3.137209e+002
    endloop
  endfacet
  facet normal 1.000000e+000 -1.607485e-016 6.323644e-017
    outer loop
      vertex   2.500000e+001 -5.362837e+001 -2.498919e+002
      vertex   2.500000e+001 -6.211858e+001 -2.714742e+002
      vertex   2.500000e+001 -4.064563e+001 -2.717541e+002
    endloop
  endfacet
  facet normal 1.000000e+000 0.000000e+000 0.000000e+000
    outer loop
      vertex   2.500000e+001 -3.239023e+001 -2.500903e+002
      vertex   2.500000e+001 -2.484743e+001 -2.281681e+002
      vertex   2.500000e+001 -4.586925e+001 -2.280361e+002
    endloop
  endfacet
  facet normal 1.000000e+000 0.000000e+000 0.000000e+000
    outer loop
      vertex   2.500000e+001 -3.257857e+001 -1.836034e+002
      vertex   2.500000e+001 -3.885000e+001 -2.059316e+002
      vertex   2.500000e+001 -1.802531e+001 -2.060111e+002
    endloop
  endfacet
  facet normal 1.000000e+000 0.000000e+000 0.000000e+000
    outer loop
      vertex   2.500000e+001 -1.193114e+001 -1.836430e+002
      vertex   2.500000e+001 -6.571460e+000 -1.610875e+002
      vertex   2.500000e+001 -2.706206e+001 -1.610768e+002
    endloop
  endfacet
  facet normal 1.000000e+000 0.000000e+000 0.000000e+000
    outer loop
      vertex   2.500000e+001 -6.571460e+000 -1.610875e+002
      vertex   2.500000e+001 -1.951982e+000 -1.383689e+002
      vertex   2.500000e+001 -2.230673e+001 -1.383774e+002
    endloop
  endfacet
  facet normal 1.000000e+000 0.000000e+000 0.000000e+000
    outer loop
      vertex   2.500000e+001 -1.951982e+000 -1.383689e+002
      vertex   2.500000e+001 1.922351e+000 -1.155115e+002
      vertex   2.500000e+001 -1.831796e+001 -1.155307e+002
    endloop
  endfacet
  facet normal 1.000000e+000 0.000000e+000 0.000000e+000
    outer loop
      vertex   2.500000e+001 1.922351e+000 -1.155115e+002
      vertex   2.500000e+001 5.047398e+000 -9.253957e+001
      vertex   2.500000e+001 -1.510027e+001 -9.256280e+001
    endloop
  endfacet
  facet normal 1.000000e+000 0.000000e+000 0.000000e+000
    outer loop
      vertex   2.500000e+001 5.047398e+000 -9.253957e+001
      vertex   2.500000e+001 7.419819e+000 -6.947779e+001
      vertex   2.500000e+001 -1.265730e+001 -6.949960e+001
    endloop
  endfacet
  facet normal 1.000000e+000 0.000000e+000 0.000000e+000
    outer loop
      vertex   2.500000e+001 -2.786896e+002 -5.795210e+002
      vertex   2.500000e+001 -2.871583e+002 -5.609065e+002
      vertex   2.500000e+001 -3.059823e+002 -5.744540e+002
    endloop
  endfacet
  facet normal 1.000000e+000 -1.397436e-016 -6.378962e-017
    outer loop
      vertex   2.500000e+001 -2.602460e+002 -5.654743e+002
      vertex   2.500000e+001 -2.688009e+002 -5.467332e+002
      vertex   2.500000e+001 -2.871583e+002 -5.609065e+002
    endloop
  endfacet
  facet normal 1.000000e+000 0.000000e+000 0.000000e+000
    outer loop
      vertex   2.500000e+001 -2.422714e+002 -5.508323e+002
      vertex   2.500000e+001 -2.509308e+002 -5.319501e+002
      vertex   2.500000e+001 -2.688009e+002 -5.467332e+002
    endloop
  endfacet
  facet normal 1.000000e+000 -1.429964e-016 -6.597665e-017
    outer loop
      vertex   2.500000e+001 -2.335683e+002 -5.165741e+002
      vertex   2.500000e+001 -2.247852e+002 -5.356105e+002
      vertex   2.500000e+001 -2.078058e+002 -5.198252e+002
    endloop
  endfacet
  facet normal 1.000000e+000 0.000000e+000 0.000000e+000
    outer loop
      vertex   2.500000e+001 -1.913516e+002 -5.034932e+002
      vertex   2.500000e+001 -2.004441e+002 -4.841134e+002
      vertex   2.500000e+001 -2.167331e+002 -5.006225e+002
    endloop
  endfacet
  facet normal 1.000000e+000 0.000000e+000 0.000000e+000
    outer loop
      vertex   2.500000e+001 -1.754400e+002 -4.866321e+002
      vertex   2.500000e+001 -1.847200e+002 -4.670655e+002
      vertex   2.500000e+001 -2.004441e+002 -4.841134e+002
    endloop
  endfacet
  facet normal 1.000000e+000 -1.308079e-016 1.127451e-016
    outer loop
      vertex   2.500000e+001 -1.600882e+002 -4.692599e+002
      vertex   2.500000e+001 -1.695784e+002 -4.494981e+002
      vertex   2.500000e+001 -1.847200e+002 -4.670655e+002
    endloop
  endfacet
  facet normal 1.000000e+000 0.000000e+000 0.000000e+000
    outer loop
      vertex   2.500000e+001 -1.550366e+002 -4.314312e+002
      vertex   2.500000e+001 -1.453124e+002 -4.513951e+002
      vertex   2.500000e+001 -1.311286e+002 -4.330568e+002
    endloop
  endfacet
  facet normal 1.000000e+000 0.000000e+000 0.000000e+000
    outer loop
      vertex   2.500000e+001 -1.045966e+002 -3.950387e+002
      vertex   2.500000e+001 -1.151709e+002 -3.744401e+002
      vertex   2.500000e+001 -1.278174e+002 -3.938809e+002
    endloop
  endfacet
  facet normal 1.000000e+000 0.000000e+000 0.000000e+000
    outer loop
      vertex   2.500000e+001 -8.125294e+001 -3.137209e+002
      vertex   2.500000e+001 -9.187543e+001 -3.343374e+002
      vertex   2.500000e+001 -6.959549e+001 -3.349659e+002
    endloop
  endfacet
  facet normal 1.000000e+000 0.000000e+000 0.000000e+000
    outer loop
      vertex   2.500000e+001 -5.925821e+001 -3.142146e+002
      vertex   2.500000e+001 -4.960482e+001 -2.931365e+002
      vertex   2.500000e+001 -7.133025e+001 -2.927585e+002
    endloop
  endfacet
  facet normal 1.000000e+000 -1.642973e-016 -1.004148e-016
    outer loop
      vertex   2.500000e+001 -4.586925e+001 -2.280361e+002
      vertex   2.500000e+001 -5.362837e+001 -2.498919e+002
      vertex   2.500000e+001 -3.239023e+001 -2.500903e+002
    endloop
  endfacet
  facet normal 1.000000e+000 0.000000e+000 0.000000e+000
    outer loop
      vertex   2.500000e+001 -2.706206e+001 -1.610768e+002
      vertex   2.500000e+001 -3.257857e+001 -1.836034e+002
      vertex   2.500000e+001 -1.193114e+001 -1.836430e+002
    endloop
  endfacet
  facet normal 1.000000e+000 0.000000e+000 0.000000e+000
    outer loop
      vertex   2.500000e+001 -1.831796e+001 -1.155307e+002
      vertex   2.500000e+001 -2.230673e+001 -1.383774e+002
      vertex   2.500000e+001 -1.951982e+000 -1.383689e+002
    endloop
  endfacet
  facet normal 1.000000e+000 0.000000e+000 0.000000e+000
    outer loop
      vertex   2.500000e+001 -1.265730e+001 -6.949960e+001
      vertex   2.500000e+001 -1.510027e+001 -9.256280e+001
      vertex   2.500000e+001 5.047398e+000 -9.253957e+001
    endloop
  endfacet
  facet normal 1.000000e+000 0.000000e+000 0.000000e+000
    outer loop
      vertex   2.500000e+001 7.419819e+000 -6.947779e+001
      vertex   2.500000e+001 9.037077e+000 -4.635078e+001
      vertex   2.500000e+001 -1.099182e+001 -4.636726e+001
    endloop
  endfacet
  facet normal 1.000000e+000 -1.733825e-016 -1.433159e-016
    outer loop
      vertex   2.500000e+001 9.037077e+000 -4.635078e+001
      vertex   2.500000e+001 9.897444e+000 -2.318326e+001
      vertex   2.500000e+001 -1.010572e+001 -2.319198e+001
    endloop
  endfacet
  facet normal 1.000000e+000 -1.397045e-016 -6.355924e-017
    outer loop
      vertex   2.500000e+001 -2.871583e+002 -5.609065e+002
      vertex   2.500000e+001 -2.786896e+002 -5.795210e+002
      vertex   2.500000e+001 -2.602460e+002 -5.654743e+002
    endloop
  endfacet
  facet normal 1.000000e+000 0.000000e+000 0.000000e+000
    outer loop
      vertex   2.500000e+001 -2.509308e+002 -5.319501e+002
      vertex   2.500000e+001 -2.422714e+002 -5.508323e+002
      vertex   2.500000e+001 -2.247852e+002 -5.356105e+002
    endloop
  endfacet
  facet normal 1.000000e+000 0.000000e+000 0.000000e+000
    outer loop
      vertex   2.500000e+001 -2.004441e+002 -4.841134e+002
      vertex   2.500000e+001 -1.913516e+002 -5.034932e+002
      vertex   2.500000e+001 -1.754400e+002 -4.866321e+002
    endloop
  endfacet
  facet normal 1.000000e+000 -1.342926e-016 1.110716e-016
    outer loop
      vertex   2.500000e+001 -1.695784e+002 -4.494981e+002
      vertex   2.500000e+001 -1.600882e+002 -4.692599e+002
      vertex   2.500000e+001 -1.453124e+002 -4.513951e+002
    endloop
  endfacet
  facet normal 1.000000e+000 0.000000e+000 0.000000e+000
    outer loop
      vertex   2.500000e+001 -1.278174e+002 -3.938809e+002
      vertex   2.500000e+001 -1.175518e+002 -4.142646e+002
      vertex   2.500000e+001 -1.045966e+002 -3.950387e+002
    endloop
  endfacet
  facet normal 1.000000e+000 0.000000e+000 0.000000e+000
    outer loop
      vertex   2.500000e+001 -9.227680e+001 -3.753995e+002
      vertex   2.500000e+001 -8.060561e+001 -3.553681e+002
      vertex   2.500000e+001 -1.031857e+002 -3.545848e+002
    endloop
  endfacet
  facet normal 1.000000e+000 0.000000e+000 0.000000e+000
    outer loop
      vertex   2.500000e+001 -7.133025e+001 -2.927585e+002
      vertex   2.500000e+001 -8.125294e+001 -3.137209e+002
      vertex   2.500000e+001 -5.925821e+001 -3.142146e+002
    endloop
  endfacet
  facet normal 1.000000e+000 0.000000e+000 0.000000e+000
    outer loop
      vertex   2.500000e+001 -3.885000e+001 -2.059316e+002
      vertex   2.500000e+001 -4.586925e+001 -2.280361e+002
      vertex   2.500000e+001 -2.484743e+001 -2.281681e+002
    endloop
  endfacet
  facet normal 1.000000e+000 0.000000e+000 0.000000e+000
    outer loop
      vertex   2.500000e+001 -1.510027e+001 -9.256280e+001
      vertex   2.500000e+001 -1.831796e+001 -1.155307e+002
      vertex   2.500000e+001 1.922351e+000 -1.155115e+002
    endloop
  endfacet
  facet normal 1.000000e+000 0.000000e+000 0.000000e+000
    outer loop
      vertex   2.500000e+001 -1.010572e+001 -2.319198e+001
      vertex   2.500000e+001 -1.099182e+001 -4.636726e+001
      vertex   2.500000e+001 9.037077e+000 -4.635078e+001
    endloop
  endfacet
  facet normal 1.000000e+000 8.176983e-016 3.710883e-016
    outer loop
      vertex   2.500000e+001 -3.772368e+002 -6.403205e+002
      vertex   2.500000e+001 -3.855100e+002 -6.220905e+002
      vertex   2.500000e+001 -4.063372e+002 -6.322938e+002
    endloop
  endfacet
  facet normal 1.000000e+000 -1.374169e-016 -6.231045e-017
    outer loop
      vertex   2.500000e+001 -3.169046e+002 -6.057686e+002
      vertex   2.500000e+001 -3.252516e+002 -5.873605e+002
      vertex   2.500000e+001 -3.449442e+002 -5.996112e+002
    endloop
  endfacet
  facet normal 1.000000e+000 0.000000e+000 0.000000e+000
    outer loop
      vertex   2.500000e+001 -2.975825e+002 -5.929572e+002
      vertex   2.500000e+001 -3.059823e+002 -5.744540e+002
      vertex   2.500000e+001 -3.252516e+002 -5.873605e+002
    endloop
  endfacet
  facet normal 1.000000e+000 0.000000e+000 0.000000e+000
    outer loop
      vertex   2.500000e+001 -2.688009e+002 -5.467332e+002
      vertex   2.500000e+001 -2.602460e+002 -5.654743e+002
      vertex   2.500000e+001 -2.422714e+002 -5.508323e+002
    endloop
  endfacet
  facet normal 1.000000e+000 -1.470661e-016 -6.974980e-017
    outer loop
      vertex   2.500000e+001 -1.847200e+002 -4.670655e+002
      vertex   2.500000e+001 -1.754400e+002 -4.866321e+002
      vertex   2.500000e+001 -1.600882e+002 -4.692599e+002
    endloop
  endfacet
  facet normal 1.000000e+000 0.000000e+000 0.000000e+000
    outer loop
      vertex   2.500000e+001 -1.175518e+002 -4.142646e+002
      vertex   2.500000e+001 -1.278174e+002 -3.938809e+002
      vertex   2.500000e+001 -1.411110e+002 -4.128851e+002
    endloop
  endfacet
  facet normal 1.000000e+000 -1.549465e-016 -8.120656e-017
    outer loop
      vertex   2.500000e+001 -1.031857e+002 -3.545848e+002
      vertex   2.500000e+001 -1.151709e+002 -3.744401e+002
      vertex   2.500000e+001 -9.227680e+001 -3.753995e+002
    endloop
  endfacet
  facet normal 1.000000e+000 0.000000e+000 0.000000e+000
    outer loop
      vertex   2.500000e+001 -6.211858e+001 -2.714742e+002
      vertex   2.500000e+001 -7.133025e+001 -2.927585e+002
      vertex   2.500000e+001 -4.960482e+001 -2.931365e+002
    endloop
  endfacet
  facet normal 1.000000e+000 0.000000e+000 0.000000e+000
    outer loop
      vertex   2.500000e+001 -1.099182e+001 -4.636726e+001
      vertex   2.500000e+001 -1.265730e+001 -6.949960e+001
      vertex   2.500000e+001 7.419819e+000 -6.947779e+001
    endloop
  endfacet
  facet normal 1.000000e+000 8.178253e-016 3.715489e-016
    outer loop
      vertex   2.500000e+001 -4.063372e+002 -6.322938e+002
      vertex   2.500000e+001 -3.980647e+002 -6.505027e+002
      vertex   2.500000e+001 -3.772368e+002 -6.403205e+002
    endloop
  endfacet
  facet normal 1.000000e+000 0.000000e+000 0.000000e+000
    outer loop
      vertex   2.500000e+001 -3.567530e+002 -6.294629e+002
      vertex   2.500000e+001 -3.650379e+002 -6.111922e+002
      vertex   2.500000e+001 -3.855100e+002 -6.220905e+002
    endloop
  endfacet
  facet normal 1.000000e+000 0.000000e+000 0.000000e+000
    outer loop
      vertex   2.500000e+001 -3.366351e+002 -6.179415e+002
      vertex   2.500000e+001 -3.449442e+002 -5.996112e+002
      vertex   2.500000e+001 -3.650379e+002 -6.111922e+002
    endloop
  endfacet
  facet normal 1.000000e+000 0.000000e+000 0.000000e+000
    outer loop
      vertex   2.500000e+001 -3.252516e+002 -5.873605e+002
      vertex   2.500000e+001 -3.169046e+002 -6.057686e+002
      vertex   2.500000e+001 -2.975825e+002 -5.929572e+002
    endloop
  endfacet
  facet normal 1.000000e+000 0.000000e+000 0.000000e+000
    outer loop
      vertex   2.500000e+001 -2.167331e+002 -5.006225e+002
      vertex   2.500000e+001 -2.078058e+002 -5.198252e+002
      vertex   2.500000e+001 -1.913516e+002 -5.034932e+002
    endloop
  endfacet
  facet normal 1.000000e+000 -1.548752e-016 -7.950529e-017
    outer loop
      vertex   2.500000e+001 -1.045966e+002 -3.950387e+002
      vertex   2.500000e+001 -9.227680e+001 -3.753995e+002
      vertex   2.500000e+001 -1.151709e+002 -3.744401e+002
    endloop
  endfacet
  facet normal 1.000000e+000 0.000000e+000 0.000000e+000
    outer loop
      vertex   2.500000e+001 -2.230673e+001 -1.383774e+002
      vertex   2.500000e+001 -2.706206e+001 -1.610768e+002
      vertex   2.500000e+001 -6.571460e+000 -1.610875e+002
    endloop
  endfacet
  facet normal 1.000000e+000 -1.734453e-016 7.906439e-019
    outer loop
      vertex   2.500000e+001 -1.000000e+001 4.336809e-014
      vertex   2.500000e+001 -1.010572e+001 -2.319198e+001
      vertex   2.500000e+001 9.897444e+000 -2.318326e+001
    endloop
  endfacet
  facet normal 1.000000e+000 0.000000e+000 0.000000e+000
    outer loop
      vertex   2.500000e+001 -3.855100e+002 -6.220905e+002
      vertex   2.500000e+001 -3.772368e+002 -6.403205e+002
      vertex   2.500000e+001 -3.567530e+002 -6.294629e+002
    endloop
  endfacet
  facet normal 1.000000e+000 -1.374121e-016 -6.228844e-017
    outer loop
      vertex   2.500000e+001 -3.449442e+002 -5.996112e+002
      vertex   2.500000e+001 -3.366351e+002 -6.179415e+002
      vertex   2.500000e+001 -3.169046e+002 -6.057686e+002
    endloop
  endfacet
  facet normal 1.000000e+000 0.000000e+000 0.000000e+000
    outer loop
      vertex   2.500000e+001 -1.411110e+002 -4.128851e+002
      vertex   2.500000e+001 -1.311286e+002 -4.330568e+002
      vertex   2.500000e+001 -1.175518e+002 -4.142646e+002
    endloop
  endfacet
  facet normal 1.000000e+000 -1.734723e-016 7.673924e-019
    outer loop
      vertex   2.500000e+001 9.897444e+000 -2.318326e+001
      vertex   2.500000e+001 1.000000e+001 5.551115e-014
      vertex   2.500000e+001 -1.000000e+001 4.336809e-014
    endloop
  endfacet
  facet normal 1.000000e+000 0.000000e+000 0.000000e+000
    outer loop
      vertex   2.500000e+001 -3.650379e+002 -6.111922e+002
      vertex   2.500000e+001 -3.567530e+002 -6.294629e+002
      vertex   2.500000e+001 -3.366351e+002 -6.179415e+002
    endloop
  endfacet
  facet normal 1.000000e+000 0.000000e+000 0.000000e+000
    outer loop
      vertex   2.500000e+001 -9.187543e+001 -3.343374e+002
      vertex   2.500000e+001 -1.031857e+002 -3.545848e+002
      vertex   2.500000e+001 -8.060561e+001 -3.553681e+002
    endloop
  endfacet
  facet normal 1.000000e+000 0.000000e+000 0.000000e+000
    outer loop
      vertex   2.500000e+001 -3.059823e+002 -5.744540e+002
      vertex   2.500000e+001 -2.975825e+002 -5.929572e+002
      vertex   2.500000e+001 -2.786896e+002 -5.795210e+002
    endloop
  endfacet
  facet normal 1.000000e+000 0.000000e+000 0.000000e+000
    outer loop
      vertex   2.500000e+001 -3.985368e+002 -6.857279e+002
      vertex   2.500000e+001 -3.848801e+002 -6.795235e+002
      vertex   2.500000e+001 -3.980647e+002 -6.505027e+002
    endloop
  endfacet
  facet normal 1.000000e+000 0.000000e+000 0.000000e+000
    outer loop
      vertex   2.500000e+001 -3.980647e+002 -6.505027e+002
      vertex   2.500000e+001 -4.199939e+002 -6.384982e+002
      vertex   2.500000e+001 -3.985368e+002 -6.857279e+002
    endloop
  endfacet
  facet normal 1.000000e+000 0.000000e+000 0.000000e+000
    outer loop
      vertex   2.500000e+001 -4.063372e+002 -6.322938e+002
      vertex   2.500000e+001 -4.199939e+002 -6.384982e+002
      vertex   2.500000e+001 -3.980647e+002 -6.505027e+002
    endloop
  endfacet
  facet normal 0.000000e+000 -4.136278e-001 9.104461e-001
    outer loop
      vertex   -3.000000e+002 -4.199939e+002 -6.384982e+002
      vertex   2.500000e+001 -4.199939e+002 -6.384982e+002
      vertex   2.500000e+001 -4.063372e+002 -6.322938e+002
    endloop
  endfacet
  facet normal 0.000000e+000 -4.136278e-001 9.104461e-001
    outer loop
      vertex   2.500000e+001 -4.063372e+002 -6.322938e+002
      vertex   -3.000000e+002 -4.063372e+002 -6.322938e+002
      vertex   -3.000000e+002 -4.199939e+002 -6.384982e+002
    endloop
  endfacet
  facet normal -7.064909e-017 4.136278e-001 -9.104461e-001
    outer loop
      vertex   -3.000000e+002 -3.848801e+002 -6.795235e+002
      vertex   2.500000e+001 -3.848801e+002 -6.795235e+002
      vertex   2.500000e+001 -3.985368e+002 -6.857279e+002
    endloop
  endfacet
  facet normal -7.064909e-017 4.136278e-001 -9.104461e-001
    outer loop
      vertex   2.500000e+001 -3.985368e+002 -6.857279e+002
      vertex   -3.000000e+002 -3.985368e+002 -6.857279e+002
      vertex   -3.000000e+002 -3.848801e+002 -6.795235e+002
    endloop
  endfacet
  facet normal 0.000000e+000 -9.104461e-001 -4.136278e-001
    outer loop
      vertex   2.500000e+001 -4.199939e+002 -6.384982e+002
      vertex   -3.000000e+002 -4.199939e+002 -6.384982e+002
      vertex   -3.000000e+002 -3.985368e+002 -6.857279e+002
    endloop
  endfacet
  facet normal 1.555074e-016 -9.104461e-001 -4.136278e-001
    outer loop
      vertex   -3.000000e+002 -3.985368e+002 -6.857279e+002
      vertex   2.500000e+001 -3.985368e+002 -6.857279e+002
      vertex   2.500000e+001 -4.199939e+002 -6.384982e+002
    endloop
  endfacet
endsolid
