solid ascii
  facet normal -8.757018e-017 -8.256239e-001 -5.642208e-001
    outer loop
      vertex   -3.000000e+002 -4.092439e+002 -7.286752e+002
      vertex   -3.000000e+002 -3.979595e+002 -7.451877e+002
      vertex   2.500000e+001 -3.979595e+002 -7.451877e+002
    endloop
  endfacet
  facet normal 0.000000e+000 -8.256239e-001 -5.642208e-001
    outer loop
      vertex   2.500000e+001 -3.979595e+002 -7.451877e+002
      vertex   2.500000e+001 -4.092439e+002 -7.286752e+002
      vertex   -3.000000e+002 -4.092439e+002 -7.286752e+002
    endloop
  endfacet
  facet normal -1.000000e+000 0.000000e+000 0.000000e+000
    outer loop
      vertex   -3.000000e+002 -9.924647e+001 -4.186428e+002
      vertex   -3.000000e+002 -1.230992e+002 -4.205236e+002
      vertex   -3.000000e+002 -1.104960e+002 -3.971757e+002
    endloop
  endfacet
  facet normal -1.000000e+000 0.000000e+000 0.000000e+000
    outer loop
      vertex   -3.000000e+002 -1.255661e+002 -4.641682e+002
      vertex   -3.000000e+002 -1.397014e+002 -4.863416e+002
      vertex   -3.000000e+002 -1.503647e+002 -4.660407e+002
    endloop
  endfacet
  facet normal -1.000000e+000 0.000000e+000 0.000000e+000
    outer loop
      vertex   -3.000000e+002 -1.397014e+002 -4.863416e+002
      vertex   -3.000000e+002 -1.544715e+002 -5.080974e+002
      vertex   -3.000000e+002 -1.650029e+002 -4.881696e+002
    endloop
  endfacet
  facet normal -1.000000e+000 0.000000e+000 0.000000e+000
    outer loop
      vertex   -3.000000e+002 -4.531465e+001 -2.988546e+002
      vertex   -3.000000e+002 -6.720155e+001 -3.003435e+002
      vertex   -3.000000e+002 -5.820558e+001 -2.753828e+002
    endloop
  endfacet
  facet normal -1.000000e+000 0.000000e+000 0.000000e+000
    outer loop
      vertex   -3.000000e+002 -5.470698e+001 -3.234158e+002
      vertex   -3.000000e+002 -7.693755e+001 -3.250249e+002
      vertex   -3.000000e+002 -6.720155e+001 -3.003435e+002
    endloop
  endfacet
  facet normal -1.000000e+000 0.000000e+000 0.000000e+000
    outer loop
      vertex   -3.000000e+002 -6.480506e+001 -3.476954e+002
      vertex   -3.000000e+002 -8.740493e+001 -3.494051e+002
      vertex   -3.000000e+002 -7.693755e+001 -3.250249e+002
    endloop
  endfacet
  facet normal -1.000000e+000 0.000000e+000 0.000000e+000
    outer loop
      vertex   -3.000000e+002 -7.560043e+001 -3.716730e+002
      vertex   -3.000000e+002 -9.859439e+001 -3.734625e+002
      vertex   -3.000000e+002 -8.740493e+001 -3.494051e+002
    endloop
  endfacet
  facet normal -1.000000e+000 0.000000e+000 0.000000e+000
    outer loop
      vertex   -3.000000e+002 -8.708410e+001 -3.953287e+002
      vertex   -3.000000e+002 -1.104960e+002 -3.971757e+002
      vertex   -3.000000e+002 -9.859439e+001 -3.734625e+002
    endloop
  endfacet
  facet normal -1.000000e+000 0.000000e+000 0.000000e+000
    outer loop
      vertex   -3.000000e+002 -1.104960e+002 -3.971757e+002
      vertex   -3.000000e+002 -8.708410e+001 -3.953287e+002
      vertex   -3.000000e+002 -9.924647e+001 -4.186428e+002
    endloop
  endfacet
  facet normal -1.000000e+000 0.000000e+000 0.000000e+000
    outer loop
      vertex   -3.000000e+002 -1.120774e+002 -4.415956e+002
      vertex   -3.000000e+002 -1.255661e+002 -4.641682e+002
      vertex   -3.000000e+002 -1.363927e+002 -4.434854e+002
    endloop
  endfacet
  facet normal -1.000000e+000 0.000000e+000 0.000000e+000
    outer loop
      vertex   -3.000000e+002 -1.650029e+002 -4.881696e+002
      vertex   -3.000000e+002 -1.503647e+002 -4.660407e+002
      vertex   -3.000000e+002 -1.397014e+002 -4.863416e+002
    endloop
  endfacet
  facet normal -1.000000e+000 0.000000e+000 0.000000e+000
    outer loop
      vertex   -3.000000e+002 -6.720155e+001 -3.003435e+002
      vertex   -3.000000e+002 -4.531465e+001 -2.988546e+002
      vertex   -3.000000e+002 -5.470698e+001 -3.234158e+002
    endloop
  endfacet
  facet normal -1.000000e+000 0.000000e+000 0.000000e+000
    outer loop
      vertex   -3.000000e+002 -8.740493e+001 -3.494051e+002
      vertex   -3.000000e+002 -6.480506e+001 -3.476954e+002
      vertex   -3.000000e+002 -7.560043e+001 -3.716730e+002
    endloop
  endfacet
  facet normal -1.000000e+000 0.000000e+000 0.000000e+000
    outer loop
      vertex   -3.000000e+002 -9.924647e+001 -4.186428e+002
      vertex   -3.000000e+002 -1.120774e+002 -4.415956e+002
      vertex   -3.000000e+002 -1.230992e+002 -4.205236e+002
    endloop
  endfacet
  facet normal -1.000000e+000 0.000000e+000 0.000000e+000
    outer loop
      vertex   -3.000000e+002 -1.503647e+002 -4.660407e+002
      vertex   -3.000000e+002 -1.363927e+002 -4.434854e+002
      vertex   -3.000000e+002 -1.255661e+002 -4.641682e+002
    endloop
  endfacet
  facet normal -1.000000e+000 0.000000e+000 0.000000e+000
    outer loop
      vertex   -3.000000e+002 -1.544715e+002 -5.080974e+002
      vertex   -3.000000e+002 -1.698640e+002 -5.294173e+002
      vertex   -3.000000e+002 -1.802942e+002 -5.098523e+002
    endloop
  endfacet
  facet normal -1.000000e+000 0.000000e+000 0.000000e+000
    outer loop
      vertex   -3.000000e+002 -1.698640e+002 -5.294173e+002
      vertex   -3.000000e+002 -1.858661e+002 -5.502835e+002
      vertex   -3.000000e+002 -1.962250e+002 -5.310695e+002
    endloop
  endfacet
  facet normal -1.000000e+000 0.000000e+000 0.000000e+000
    outer loop
      vertex   -3.000000e+002 -1.858661e+002 -5.502835e+002
      vertex   -3.000000e+002 -2.024644e+002 -5.706787e+002
      vertex   -3.000000e+002 -2.127812e+002 -5.518024e+002
    endloop
  endfacet
  facet normal -1.000000e+000 0.000000e+000 0.000000e+000
    outer loop
      vertex   -3.000000e+002 -2.024644e+002 -5.706787e+002
      vertex   -3.000000e+002 -2.196451e+002 -5.905858e+002
      vertex   -3.000000e+002 -2.299481e+002 -5.720326e+002
    endloop
  endfacet
  facet normal -1.000000e+000 0.000000e+000 0.000000e+000
    outer loop
      vertex   -3.000000e+002 -2.477103e+002 -5.917422e+002
      vertex   -3.000000e+002 -2.299481e+002 -5.720326e+002
      vertex   -3.000000e+002 -2.196451e+002 -5.905858e+002
    endloop
  endfacet
  facet normal -1.000000e+000 0.000000e+000 0.000000e+000
    outer loop
      vertex   -3.000000e+002 -2.660522e+002 -6.109135e+002
      vertex   -3.000000e+002 -2.477103e+002 -5.917422e+002
      vertex   -3.000000e+002 -2.373938e+002 -6.099882e+002
    endloop
  endfacet
  facet normal -1.000000e+000 0.000000e+000 0.000000e+000
    outer loop
      vertex   -3.000000e+002 -7.693755e+001 -3.250249e+002
      vertex   -3.000000e+002 -5.470698e+001 -3.234158e+002
      vertex   -3.000000e+002 -6.480506e+001 -3.476954e+002
    endloop
  endfacet
  facet normal -1.000000e+000 0.000000e+000 0.000000e+000
    outer loop
      vertex   -3.000000e+002 -1.363927e+002 -4.434854e+002
      vertex   -3.000000e+002 -1.230992e+002 -4.205236e+002
      vertex   -3.000000e+002 -1.120774e+002 -4.415956e+002
    endloop
  endfacet
  facet normal -1.000000e+000 0.000000e+000 0.000000e+000
    outer loop
      vertex   -3.000000e+002 -1.962250e+002 -5.310695e+002
      vertex   -3.000000e+002 -1.802942e+002 -5.098523e+002
      vertex   -3.000000e+002 -1.698640e+002 -5.294173e+002
    endloop
  endfacet
  facet normal -1.000000e+000 0.000000e+000 0.000000e+000
    outer loop
      vertex   -3.000000e+002 -2.299481e+002 -5.720326e+002
      vertex   -3.000000e+002 -2.127812e+002 -5.518024e+002
      vertex   -3.000000e+002 -2.024644e+002 -5.706787e+002
    endloop
  endfacet
  facet normal -1.000000e+000 0.000000e+000 0.000000e+000
    outer loop
      vertex   -3.000000e+002 -2.373938e+002 -6.099882e+002
      vertex   -3.000000e+002 -2.556957e+002 -6.288696e+002
      vertex   -3.000000e+002 -2.660522e+002 -6.109135e+002
    endloop
  endfacet
  facet normal -1.000000e+000 0.000000e+000 0.000000e+000
    outer loop
      vertex   -3.000000e+002 -2.849574e+002 -6.295295e+002
      vertex   -3.000000e+002 -2.660522e+002 -6.109135e+002
      vertex   -3.000000e+002 -2.556957e+002 -6.288696e+002
    endloop
  endfacet
  facet normal -1.000000e+000 0.000000e+000 0.000000e+000
    outer loop
      vertex   -3.000000e+002 -3.044091e+002 -6.475737e+002
      vertex   -3.000000e+002 -2.849574e+002 -6.295295e+002
      vertex   -3.000000e+002 -2.745354e+002 -6.472144e+002
    endloop
  endfacet
  facet normal -1.000000e+000 0.000000e+000 0.000000e+000
    outer loop
      vertex   -3.000000e+002 -3.243900e+002 -6.650301e+002
      vertex   -3.000000e+002 -3.044091e+002 -6.475737e+002
      vertex   -3.000000e+002 -2.938974e+002 -6.650072e+002
    endloop
  endfacet
  facet normal -1.000000e+000 0.000000e+000 0.000000e+000
    outer loop
      vertex   -3.000000e+002 -3.448823e+002 -6.818832e+002
      vertex   -3.000000e+002 -3.243900e+002 -6.650301e+002
      vertex   -3.000000e+002 -3.137654e+002 -6.822330e+002
    endloop
  endfacet
  facet normal -1.000000e+000 0.000000e+000 0.000000e+000
    outer loop
      vertex   -3.000000e+002 -3.658680e+002 -6.981179e+002
      vertex   -3.000000e+002 -3.448823e+002 -6.818832e+002
      vertex   -3.000000e+002 -3.341228e+002 -6.988777e+002
    endloop
  endfacet
  facet normal -1.000000e+000 0.000000e+000 0.000000e+000
    outer loop
      vertex   -3.000000e+002 -1.654187e+001 -9.472888e+001
      vertex   -3.000000e+002 3.602956e+000 -9.472888e+001
      vertex   -3.000000e+002 8.809831e-002 -1.207887e+002
    endloop
  endfacet
  facet normal -1.000000e+000 0.000000e+000 0.000000e+000
    outer loop
      vertex   -3.000000e+002 -2.017138e+001 -1.210117e+002
      vertex   -3.000000e+002 8.809831e-002 -1.207887e+002
      vertex   -3.000000e+002 -4.178250e+000 -1.467360e+002
    endloop
  endfacet
  facet normal -1.000000e+000 0.000000e+000 0.000000e+000
    outer loop
      vertex   -3.000000e+002 -2.977197e+001 -1.731946e+002
      vertex   -3.000000e+002 -9.192527e+000 -1.725493e+002
      vertex   -3.000000e+002 -1.495055e+001 -1.982069e+002
    endloop
  endfacet
  facet normal -1.000000e+000 0.000000e+000 0.000000e+000
    outer loop
      vertex   -3.000000e+002 -3.573452e+001 -1.990483e+002
      vertex   -3.000000e+002 -1.495055e+001 -1.982069e+002
      vertex   -3.000000e+002 -2.144750e+001 -2.236874e+002
    endloop
  endfacet
  facet normal -1.000000e+000 0.000000e+000 0.000000e+000
    outer loop
      vertex   -3.000000e+002 -2.867796e+001 -2.489696e+002
      vertex   -3.000000e+002 -4.995765e+001 -2.501651e+002
      vertex   -3.000000e+002 -4.246508e+001 -2.247127e+002
    endloop
  endfacet
  facet normal -1.000000e+000 0.000000e+000 0.000000e+000
    outer loop
      vertex   -3.000000e+002 -3.663589e+001 -2.740323e+002
      vertex   -3.000000e+002 -5.820558e+001 -2.753828e+002
      vertex   -3.000000e+002 -4.995765e+001 -2.501651e+002
    endloop
  endfacet
  facet normal -1.000000e+000 0.000000e+000 0.000000e+000
    outer loop
      vertex   -3.000000e+002 -9.859439e+001 -3.734625e+002
      vertex   -3.000000e+002 -7.560043e+001 -3.716730e+002
      vertex   -3.000000e+002 -8.708410e+001 -3.953287e+002
    endloop
  endfacet
  facet normal -1.000000e+000 0.000000e+000 0.000000e+000
    outer loop
      vertex   -3.000000e+002 -2.127812e+002 -5.518024e+002
      vertex   -3.000000e+002 -1.962250e+002 -5.310695e+002
      vertex   -3.000000e+002 -1.858661e+002 -5.502835e+002
    endloop
  endfacet
  facet normal -1.000000e+000 0.000000e+000 0.000000e+000
    outer loop
      vertex   -3.000000e+002 -2.556957e+002 -6.288696e+002
      vertex   -3.000000e+002 -2.745354e+002 -6.472144e+002
      vertex   -3.000000e+002 -2.849574e+002 -6.295295e+002
    endloop
  endfacet
  facet normal -1.000000e+000 0.000000e+000 0.000000e+000
    outer loop
      vertex   -3.000000e+002 -2.938974e+002 -6.650072e+002
      vertex   -3.000000e+002 -3.137654e+002 -6.822330e+002
      vertex   -3.000000e+002 -3.243900e+002 -6.650301e+002
    endloop
  endfacet
  facet normal -1.000000e+000 0.000000e+000 0.000000e+000
    outer loop
      vertex   -3.000000e+002 -3.341228e+002 -6.988777e+002
      vertex   -3.000000e+002 -3.549526e+002 -7.149272e+002
      vertex   -3.000000e+002 -3.658680e+002 -6.981179e+002
    endloop
  endfacet
  facet normal -1.000000e+000 0.000000e+000 0.000000e+000
    outer loop
      vertex   -3.000000e+002 -3.873282e+002 -7.137198e+002
      vertex   -3.000000e+002 -3.658680e+002 -6.981179e+002
      vertex   -3.000000e+002 -3.549526e+002 -7.149272e+002
    endloop
  endfacet
  facet normal -1.000000e+000 0.000000e+000 0.000000e+000
    outer loop
      vertex   -3.000000e+002 -4.178250e+000 -1.467360e+002
      vertex   -3.000000e+002 -2.458272e+001 -1.471747e+002
      vertex   -3.000000e+002 -2.017138e+001 -1.210117e+002
    endloop
  endfacet
  facet normal -1.000000e+000 0.000000e+000 0.000000e+000
    outer loop
      vertex   -3.000000e+002 -2.458272e+001 -1.471747e+002
      vertex   -3.000000e+002 -4.178250e+000 -1.467360e+002
      vertex   -3.000000e+002 -9.192527e+000 -1.725493e+002
    endloop
  endfacet
  facet normal -1.000000e+000 0.000000e+000 0.000000e+000
    outer loop
      vertex   -3.000000e+002 -2.144750e+001 -2.236874e+002
      vertex   -3.000000e+002 -4.246508e+001 -2.247127e+002
      vertex   -3.000000e+002 -3.573452e+001 -1.990483e+002
    endloop
  endfacet
  facet normal -1.000000e+000 0.000000e+000 0.000000e+000
    outer loop
      vertex   -3.000000e+002 -4.995765e+001 -2.501651e+002
      vertex   -3.000000e+002 -2.867796e+001 -2.489696e+002
      vertex   -3.000000e+002 -3.663589e+001 -2.740323e+002
    endloop
  endfacet
  facet normal -1.000000e+000 0.000000e+000 0.000000e+000
    outer loop
      vertex   -3.000000e+002 -1.802942e+002 -5.098523e+002
      vertex   -3.000000e+002 -1.650029e+002 -4.881696e+002
      vertex   -3.000000e+002 -1.544715e+002 -5.080974e+002
    endloop
  endfacet
  facet normal -1.000000e+000 0.000000e+000 0.000000e+000
    outer loop
      vertex   -3.000000e+002 -2.745354e+002 -6.472144e+002
      vertex   -3.000000e+002 -2.938974e+002 -6.650072e+002
      vertex   -3.000000e+002 -3.044091e+002 -6.475737e+002
    endloop
  endfacet
  facet normal -1.000000e+000 0.000000e+000 0.000000e+000
    outer loop
      vertex   -3.000000e+002 -3.549526e+002 -7.149272e+002
      vertex   -3.000000e+002 -3.762374e+002 -7.303681e+002
      vertex   -3.000000e+002 -3.873282e+002 -7.137198e+002
    endloop
  endfacet
  facet normal -1.000000e+000 0.000000e+000 0.000000e+000
    outer loop
      vertex   -3.000000e+002 -4.092439e+002 -7.286752e+002
      vertex   -3.000000e+002 -3.873282e+002 -7.137198e+002
      vertex   -3.000000e+002 -3.762374e+002 -7.303681e+002
    endloop
  endfacet
  facet normal -1.000000e+000 0.000000e+000 0.000000e+000
    outer loop
      vertex   -3.000000e+002 -9.192527e+000 -1.725493e+002
      vertex   -3.000000e+002 -2.977197e+001 -1.731946e+002
      vertex   -3.000000e+002 -2.458272e+001 -1.471747e+002
    endloop
  endfacet
  facet normal -1.000000e+000 0.000000e+000 0.000000e+000
    outer loop
      vertex   -3.000000e+002 -4.246508e+001 -2.247127e+002
      vertex   -3.000000e+002 -2.144750e+001 -2.236874e+002
      vertex   -3.000000e+002 -2.867796e+001 -2.489696e+002
    endloop
  endfacet
  facet normal -1.000000e+000 0.000000e+000 0.000000e+000
    outer loop
      vertex   -3.000000e+002 -2.196451e+002 -5.905858e+002
      vertex   -3.000000e+002 -2.373938e+002 -6.099882e+002
      vertex   -3.000000e+002 -2.477103e+002 -5.917422e+002
    endloop
  endfacet
  facet normal -1.000000e+000 0.000000e+000 0.000000e+000
    outer loop
      vertex   -3.000000e+002 -3.762374e+002 -7.303681e+002
      vertex   -3.000000e+002 -3.979595e+002 -7.451877e+002
      vertex   -3.000000e+002 -4.092439e+002 -7.286752e+002
    endloop
  endfacet
  facet normal -1.000000e+000 0.000000e+000 0.000000e+000
    outer loop
      vertex   -3.000000e+002 -1.495055e+001 -1.982069e+002
      vertex   -3.000000e+002 -3.573452e+001 -1.990483e+002
      vertex   -3.000000e+002 -2.977197e+001 -1.731946e+002
    endloop
  endfacet
  facet normal -1.000000e+000 0.000000e+000 0.000000e+000
    outer loop
      vertex   -3.000000e+002 -3.137654e+002 -6.822330e+002
      vertex   -3.000000e+002 -3.341228e+002 -6.988777e+002
      vertex   -3.000000e+002 -3.448823e+002 -6.818832e+002
    endloop
  endfacet
  facet normal -1.000000e+000 0.000000e+000 0.000000e+000
    outer loop
      vertex   -3.000000e+002 -5.820558e+001 -2.753828e+002
      vertex   -3.000000e+002 -3.663589e+001 -2.740323e+002
      vertex   -3.000000e+002 -4.531465e+001 -2.988546e+002
    endloop
  endfacet
  facet normal -1.000000e+000 0.000000e+000 0.000000e+000
    outer loop
      vertex   -3.000000e+002 8.809831e-002 -1.207887e+002
      vertex   -3.000000e+002 -2.017138e+001 -1.210117e+002
      vertex   -3.000000e+002 -1.654187e+001 -9.472888e+001
    endloop
  endfacet
  facet normal 0.000000e+000 9.910264e-001 -1.336663e-001
    outer loop
      vertex   2.500000e+001 3.602956e+000 -9.472888e+001
      vertex   2.500000e+001 8.809831e-002 -1.207887e+002
      vertex   -3.000000e+002 8.809831e-002 -1.207887e+002
    endloop
  endfacet
  facet normal 0.000000e+000 9.867506e-001 -1.622447e-001
    outer loop
      vertex   2.500000e+001 8.809831e-002 -1.207887e+002
      vertex   2.500000e+001 -4.178250e+000 -1.467360e+002
      vertex   -3.000000e+002 -4.178250e+000 -1.467360e+002
    endloop
  endfacet
  facet normal 0.000000e+000 9.816508e-001 -1.906876e-001
    outer loop
      vertex   2.500000e+001 -4.178250e+000 -1.467360e+002
      vertex   2.500000e+001 -9.192527e+000 -1.725493e+002
      vertex   -3.000000e+002 -9.192527e+000 -1.725493e+002
    endloop
  endfacet
  facet normal -1.902971e-017 9.757313e-001 -2.189713e-001
    outer loop
      vertex   2.500000e+001 -9.192527e+000 -1.725493e+002
      vertex   2.500000e+001 -1.495055e+001 -1.982069e+002
      vertex   -3.000000e+002 -1.495055e+001 -1.982069e+002
    endloop
  endfacet
  facet normal 4.440266e-017 9.689971e-001 -2.470721e-001
    outer loop
      vertex   2.500000e+001 -1.495055e+001 -1.982069e+002
      vertex   2.500000e+001 -2.144750e+001 -2.236874e+002
      vertex   -3.000000e+002 -2.144750e+001 -2.236874e+002
    endloop
  endfacet
  facet normal 4.696528e-017 9.614538e-001 -2.749667e-001
    outer loop
      vertex   -3.000000e+002 -2.144750e+001 -2.236874e+002
      vertex   2.500000e+001 -2.144750e+001 -2.236874e+002
      vertex   2.500000e+001 -2.867796e+001 -2.489696e+002
    endloop
  endfacet
  facet normal 5.391752e-017 9.531076e-001 -3.026316e-001
    outer loop
      vertex   2.500000e+001 -2.867796e+001 -2.489696e+002
      vertex   2.500000e+001 -3.663589e+001 -2.740323e+002
      vertex   -3.000000e+002 -3.663589e+001 -2.740323e+002
    endloop
  endfacet
  facet normal 0.000000e+000 9.439656e-001 -3.300438e-001
    outer loop
      vertex   2.500000e+001 -3.663589e+001 -2.740323e+002
      vertex   2.500000e+001 -4.531465e+001 -2.988546e+002
      vertex   -3.000000e+002 -4.531465e+001 -2.988546e+002
    endloop
  endfacet
  facet normal 6.026076e-017 9.340354e-001 -3.571805e-001
    outer loop
      vertex   2.500000e+001 -4.531465e+001 -2.988546e+002
      vertex   2.500000e+001 -5.470698e+001 -3.234158e+002
      vertex   -3.000000e+002 -5.470698e+001 -3.234158e+002
    endloop
  endfacet
  facet normal 0.000000e+000 9.233252e-001 -3.840189e-001
    outer loop
      vertex   2.500000e+001 -5.470698e+001 -3.234158e+002
      vertex   2.500000e+001 -6.480506e+001 -3.476954e+002
      vertex   -3.000000e+002 -6.480506e+001 -3.476954e+002
    endloop
  endfacet
  facet normal 0.000000e+000 9.118441e-001 -4.105366e-001
    outer loop
      vertex   2.500000e+001 -6.480506e+001 -3.476954e+002
      vertex   2.500000e+001 -7.560043e+001 -3.716730e+002
      vertex   -3.000000e+002 -7.560043e+001 -3.716730e+002
    endloop
  endfacet
  facet normal 0.000000e+000 8.996016e-001 -4.367116e-001
    outer loop
      vertex   -3.000000e+002 -7.560043e+001 -3.716730e+002
      vertex   2.500000e+001 -7.560043e+001 -3.716730e+002
      vertex   2.500000e+001 -8.708410e+001 -3.953287e+002
    endloop
  endfacet
  facet normal 8.246209e-017 8.866079e-001 -4.625219e-001
    outer loop
      vertex   2.500000e+001 -8.708410e+001 -3.953287e+002
      vertex   2.500000e+001 -9.924647e+001 -4.186428e+002
      vertex   -3.000000e+002 -9.924647e+001 -4.186428e+002
    endloop
  endfacet
  facet normal 8.246209e-017 8.728739e-001 -4.879459e-001
    outer loop
      vertex   2.500000e+001 -9.924647e+001 -4.186428e+002
      vertex   2.500000e+001 -1.120774e+002 -4.415956e+002
      vertex   -3.000000e+002 -1.120774e+002 -4.415956e+002
    endloop
  endfacet
  facet normal 0.000000e+000 8.584110e-001 -5.129626e-001
    outer loop
      vertex   2.500000e+001 -1.120774e+002 -4.415956e+002
      vertex   2.500000e+001 -1.255661e+002 -4.641682e+002
      vertex   -3.000000e+002 -1.255661e+002 -4.641682e+002
    endloop
  endfacet
  facet normal 0.000000e+000 8.432313e-001 -5.375509e-001
    outer loop
      vertex   -3.000000e+002 -1.255661e+002 -4.641682e+002
      vertex   2.500000e+001 -1.255661e+002 -4.641682e+002
      vertex   2.500000e+001 -1.397014e+002 -4.863416e+002
    endloop
  endfacet
  facet normal 0.000000e+000 8.273475e-001 -5.616903e-001
    outer loop
      vertex   2.500000e+001 -1.397014e+002 -4.863416e+002
      vertex   2.500000e+001 -1.544715e+002 -5.080974e+002
      vertex   -3.000000e+002 -1.544715e+002 -5.080974e+002
    endloop
  endfacet
  facet normal -1.966404e-016 8.107729e-001 -5.853608e-001
    outer loop
      vertex   2.500000e+001 -1.544715e+002 -5.080974e+002
      vertex   2.500000e+001 -1.698640e+002 -5.294173e+002
      vertex   -3.000000e+002 -1.698640e+002 -5.294173e+002
    endloop
  endfacet
  facet normal 0.000000e+000 7.935213e-001 -6.085424e-001
    outer loop
      vertex   2.500000e+001 -1.698640e+002 -5.294173e+002
      vertex   2.500000e+001 -1.858661e+002 -5.502835e+002
      vertex   -3.000000e+002 -1.858661e+002 -5.502835e+002
    endloop
  endfacet
  facet normal 0.000000e+000 7.756071e-001 -6.312159e-001
    outer loop
      vertex   -3.000000e+002 -1.858661e+002 -5.502835e+002
      vertex   2.500000e+001 -1.858661e+002 -5.502835e+002
      vertex   2.500000e+001 -2.024644e+002 -5.706787e+002
    endloop
  endfacet
  facet normal -2.220133e-016 7.570453e-001 -6.533624e-001
    outer loop
      vertex   2.500000e+001 -2.024644e+002 -5.706787e+002
      vertex   2.500000e+001 -2.196451e+002 -5.905858e+002
      vertex   -3.000000e+002 -2.196451e+002 -5.905858e+002
    endloop
  endfacet
  facet normal -2.283566e-016 7.378513e-001 -6.749633e-001
    outer loop
      vertex   2.500000e+001 -2.196451e+002 -5.905858e+002
      vertex   2.500000e+001 -2.373938e+002 -6.099882e+002
      vertex   -3.000000e+002 -2.373938e+002 -6.099882e+002
    endloop
  endfacet
  facet normal -2.377587e-016 7.180412e-001 -6.960006e-001
    outer loop
      vertex   -3.000000e+002 -2.373938e+002 -6.099882e+002
      vertex   2.500000e+001 -2.373938e+002 -6.099882e+002
      vertex   2.500000e+001 -2.556957e+002 -6.288696e+002
    endloop
  endfacet
  facet normal -2.473863e-016 6.976316e-001 -7.164567e-001
    outer loop
      vertex   2.500000e+001 -2.556957e+002 -6.288696e+002
      vertex   2.500000e+001 -2.745354e+002 -6.472144e+002
      vertex   -3.000000e+002 -2.745354e+002 -6.472144e+002
    endloop
  endfacet
  facet normal -2.537295e-016 6.766394e-001 -7.363146e-001
    outer loop
      vertex   2.500000e+001 -2.745354e+002 -6.472144e+002
      vertex   2.500000e+001 -2.938974e+002 -6.650072e+002
      vertex   -3.000000e+002 -2.938974e+002 -6.650072e+002
    endloop
  endfacet
  facet normal -2.581038e-016 6.550822e-001 -7.555576e-001
    outer loop
      vertex   -3.000000e+002 -2.938974e+002 -6.650072e+002
      vertex   2.500000e+001 -2.938974e+002 -6.650072e+002
      vertex   2.500000e+001 -3.137654e+002 -6.822330e+002
    endloop
  endfacet
  facet normal -2.664160e-016 6.329780e-001 -7.741698e-001
    outer loop
      vertex   2.500000e+001 -3.137654e+002 -6.822330e+002
      vertex   2.500000e+001 -3.341228e+002 -6.988777e+002
      vertex   -3.000000e+002 -3.341228e+002 -6.988777e+002
    endloop
  endfacet
  facet normal 0.000000e+000 6.103453e-001 -7.921355e-001
    outer loop
      vertex   2.500000e+001 -3.341228e+002 -6.988777e+002
      vertex   2.500000e+001 -3.549526e+002 -7.149272e+002
      vertex   -3.000000e+002 -3.549526e+002 -7.149272e+002
    endloop
  endfacet
  facet normal 0.000000e+000 5.872029e-001 -8.094398e-001
    outer loop
      vertex   -3.000000e+002 -3.549526e+002 -7.149272e+002
      vertex   2.500000e+001 -3.549526e+002 -7.149272e+002
      vertex   2.500000e+001 -3.762374e+002 -7.303681e+002
    endloop
  endfacet
  facet normal 4.757428e-016 5.635702e-001 -8.260682e-001
    outer loop
      vertex   2.500000e+001 -3.762374e+002 -7.303681e+002
      vertex   2.500000e+001 -3.979595e+002 -7.451877e+002
      vertex   -3.000000e+002 -3.979595e+002 -7.451877e+002
    endloop
  endfacet
  facet normal 0.000000e+000 5.635702e-001 -8.260682e-001
    outer loop
      vertex   -3.000000e+002 -3.979595e+002 -7.451877e+002
      vertex   -3.000000e+002 -3.762374e+002 -7.303681e+002
      vertex   2.500000e+001 -3.762374e+002 -7.303681e+002
    endloop
  endfacet
  facet normal 0.000000e+000 5.872029e-001 -8.094398e-001
    outer loop
      vertex   2.500000e+001 -3.762374e+002 -7.303681e+002
      vertex   -3.000000e+002 -3.762374e+002 -7.303681e+002
      vertex   -3.000000e+002 -3.549526e+002 -7.149272e+002
    endloop
  endfacet
  facet normal -2.664160e-016 6.103453e-001 -7.921355e-001
    outer loop
      vertex   -3.000000e+002 -3.549526e+002 -7.149272e+002
      vertex   -3.000000e+002 -3.341228e+002 -6.988777e+002
      vertex   2.500000e+001 -3.341228e+002 -6.988777e+002
    endloop
  endfacet
  facet normal 0.000000e+000 6.329780e-001 -7.741698e-001
    outer loop
      vertex   -3.000000e+002 -3.341228e+002 -6.988777e+002
      vertex   -3.000000e+002 -3.137654e+002 -6.822330e+002
      vertex   2.500000e+001 -3.137654e+002 -6.822330e+002
    endloop
  endfacet
  facet normal 0.000000e+000 6.550822e-001 -7.555576e-001
    outer loop
      vertex   2.500000e+001 -3.137654e+002 -6.822330e+002
      vertex   -3.000000e+002 -3.137654e+002 -6.822330e+002
      vertex   -3.000000e+002 -2.938974e+002 -6.650072e+002
    endloop
  endfacet
  facet normal -2.537295e-016 6.766394e-001 -7.363146e-001
    outer loop
      vertex   -3.000000e+002 -2.938974e+002 -6.650072e+002
      vertex   -3.000000e+002 -2.745354e+002 -6.472144e+002
      vertex   2.500000e+001 -2.745354e+002 -6.472144e+002
    endloop
  endfacet
  facet normal 0.000000e+000 6.976316e-001 -7.164567e-001
    outer loop
      vertex   -3.000000e+002 -2.745354e+002 -6.472144e+002
      vertex   -3.000000e+002 -2.556957e+002 -6.288696e+002
      vertex   2.500000e+001 -2.556957e+002 -6.288696e+002
    endloop
  endfacet
  facet normal 0.000000e+000 7.180412e-001 -6.960006e-001
    outer loop
      vertex   2.500000e+001 -2.556957e+002 -6.288696e+002
      vertex   -3.000000e+002 -2.556957e+002 -6.288696e+002
      vertex   -3.000000e+002 -2.373938e+002 -6.099882e+002
    endloop
  endfacet
  facet normal -2.283566e-016 7.378513e-001 -6.749633e-001
    outer loop
      vertex   -3.000000e+002 -2.373938e+002 -6.099882e+002
      vertex   -3.000000e+002 -2.196451e+002 -5.905858e+002
      vertex   2.500000e+001 -2.196451e+002 -5.905858e+002
    endloop
  endfacet
  facet normal 0.000000e+000 7.570453e-001 -6.533624e-001
    outer loop
      vertex   -3.000000e+002 -2.196451e+002 -5.905858e+002
      vertex   -3.000000e+002 -2.024644e+002 -5.706787e+002
      vertex   2.500000e+001 -2.024644e+002 -5.706787e+002
    endloop
  endfacet
  facet normal 0.000000e+000 7.756071e-001 -6.312159e-001
    outer loop
      vertex   2.500000e+001 -2.024644e+002 -5.706787e+002
      vertex   -3.000000e+002 -2.024644e+002 -5.706787e+002
      vertex   -3.000000e+002 -1.858661e+002 -5.502835e+002
    endloop
  endfacet
  facet normal -2.093268e-016 7.935213e-001 -6.085424e-001
    outer loop
      vertex   -3.000000e+002 -1.858661e+002 -5.502835e+002
      vertex   -3.000000e+002 -1.698640e+002 -5.294173e+002
      vertex   2.500000e+001 -1.698640e+002 -5.294173e+002
    endloop
  endfacet
  facet normal 0.000000e+000 8.107729e-001 -5.853608e-001
    outer loop
      vertex   -3.000000e+002 -1.698640e+002 -5.294173e+002
      vertex   -3.000000e+002 -1.544715e+002 -5.080974e+002
      vertex   2.500000e+001 -1.544715e+002 -5.080974e+002
    endloop
  endfacet
  facet normal -9.514857e-017 8.273475e-001 -5.616903e-001
    outer loop
      vertex   -3.000000e+002 -1.544715e+002 -5.080974e+002
      vertex   -3.000000e+002 -1.397014e+002 -4.863416e+002
      vertex   2.500000e+001 -1.397014e+002 -4.863416e+002
    endloop
  endfacet
  facet normal -9.181559e-017 8.432313e-001 -5.375509e-001
    outer loop
      vertex   2.500000e+001 -1.397014e+002 -4.863416e+002
      vertex   -3.000000e+002 -1.397014e+002 -4.863416e+002
      vertex   -3.000000e+002 -1.255661e+002 -4.641682e+002
    endloop
  endfacet
  facet normal 8.880533e-017 8.584110e-001 -5.129626e-001
    outer loop
      vertex   -3.000000e+002 -1.255661e+002 -4.641682e+002
      vertex   -3.000000e+002 -1.120774e+002 -4.415956e+002
      vertex   2.500000e+001 -1.120774e+002 -4.415956e+002
    endloop
  endfacet
  facet normal 8.246209e-017 8.728739e-001 -4.879459e-001
    outer loop
      vertex   -3.000000e+002 -1.120774e+002 -4.415956e+002
      vertex   -3.000000e+002 -9.924647e+001 -4.186428e+002
      vertex   2.500000e+001 -9.924647e+001 -4.186428e+002
    endloop
  endfacet
  facet normal 0.000000e+000 8.866079e-001 -4.625219e-001
    outer loop
      vertex   -3.000000e+002 -9.924647e+001 -4.186428e+002
      vertex   -3.000000e+002 -8.708410e+001 -3.953287e+002
      vertex   2.500000e+001 -8.708410e+001 -3.953287e+002
    endloop
  endfacet
  facet normal 0.000000e+000 8.996016e-001 -4.367116e-001
    outer loop
      vertex   2.500000e+001 -8.708410e+001 -3.953287e+002
      vertex   -3.000000e+002 -8.708410e+001 -3.953287e+002
      vertex   -3.000000e+002 -7.560043e+001 -3.716730e+002
    endloop
  endfacet
  facet normal 0.000000e+000 9.118441e-001 -4.105366e-001
    outer loop
      vertex   -3.000000e+002 -7.560043e+001 -3.716730e+002
      vertex   -3.000000e+002 -6.480506e+001 -3.476954e+002
      vertex   2.500000e+001 -6.480506e+001 -3.476954e+002
    endloop
  endfacet
  facet normal 6.343238e-017 9.233252e-001 -3.840189e-001
    outer loop
      vertex   -3.000000e+002 -6.480506e+001 -3.476954e+002
      vertex   -3.000000e+002 -5.470698e+001 -3.234158e+002
      vertex   2.500000e+001 -5.470698e+001 -3.234158e+002
    endloop
  endfacet
  facet normal 0.000000e+000 9.340354e-001 -3.571805e-001
    outer loop
      vertex   -3.000000e+002 -5.470698e+001 -3.234158e+002
      vertex   -3.000000e+002 -4.531465e+001 -2.988546e+002
      vertex   2.500000e+001 -4.531465e+001 -2.988546e+002
    endloop
  endfacet
  facet normal 5.708914e-017 9.439656e-001 -3.300438e-001
    outer loop
      vertex   -3.000000e+002 -4.531465e+001 -2.988546e+002
      vertex   -3.000000e+002 -3.663589e+001 -2.740323e+002
      vertex   2.500000e+001 -3.663589e+001 -2.740323e+002
    endloop
  endfacet
  facet normal 5.391752e-017 9.531076e-001 -3.026316e-001
    outer loop
      vertex   -3.000000e+002 -3.663589e+001 -2.740323e+002
      vertex   -3.000000e+002 -2.867796e+001 -2.489696e+002
      vertex   2.500000e+001 -2.867796e+001 -2.489696e+002
    endloop
  endfacet
  facet normal 4.696528e-017 9.614538e-001 -2.749667e-001
    outer loop
      vertex   2.500000e+001 -2.867796e+001 -2.489696e+002
      vertex   -3.000000e+002 -2.867796e+001 -2.489696e+002
      vertex   -3.000000e+002 -2.144750e+001 -2.236874e+002
    endloop
  endfacet
  facet normal -1.902971e-017 9.689971e-001 -2.470721e-001
    outer loop
      vertex   -3.000000e+002 -2.144750e+001 -2.236874e+002
      vertex   -3.000000e+002 -1.495055e+001 -1.982069e+002
      vertex   2.500000e+001 -1.495055e+001 -1.982069e+002
    endloop
  endfacet
  facet normal 0.000000e+000 9.757313e-001 -2.189713e-001
    outer loop
      vertex   -3.000000e+002 -1.495055e+001 -1.982069e+002
      vertex   -3.000000e+002 -9.192527e+000 -1.725493e+002
      vertex   2.500000e+001 -9.192527e+000 -1.725493e+002
    endloop
  endfacet
  facet normal 0.000000e+000 9.816508e-001 -1.906876e-001
    outer loop
      vertex   -3.000000e+002 -9.192527e+000 -1.725493e+002
      vertex   -3.000000e+002 -4.178250e+000 -1.467360e+002
      vertex   2.500000e+001 -4.178250e+000 -1.467360e+002
    endloop
  endfacet
  facet normal 0.000000e+000 9.867506e-001 -1.622447e-001
    outer loop
      vertex   -3.000000e+002 -4.178250e+000 -1.467360e+002
      vertex   -3.000000e+002 8.809831e-002 -1.207887e+002
      vertex   2.500000e+001 8.809831e-002 -1.207887e+002
    endloop
  endfacet
  facet normal 0.000000e+000 9.910264e-001 -1.336663e-001
    outer loop
      vertex   -3.000000e+002 8.809831e-002 -1.207887e+002
      vertex   -3.000000e+002 3.602956e+000 -9.472888e+001
      vertex   2.500000e+001 3.602956e+000 -9.472888e+001
    endloop
  endfacet
  facet normal 1.000000e+000 1.660013e-016 -5.270889e-017
    outer loop
      vertex   2.500000e+001 -3.663589e+001 -2.740323e+002
      vertex   2.500000e+001 -2.867796e+001 -2.489696e+002
      vertex   2.500000e+001 -4.995765e+001 -2.501651e+002
    endloop
  endfacet
  facet normal 1.000000e+000 6.788630e-018 -1.391705e-016
    outer loop
      vertex   2.500000e+001 -2.867796e+001 -2.489696e+002
      vertex   2.500000e+001 -2.144750e+001 -2.236874e+002
      vertex   2.500000e+001 -4.246508e+001 -2.247127e+002
    endloop
  endfacet
  facet normal 1.000000e+000 6.124195e-018 -1.896852e-016
    outer loop
      vertex   2.500000e+001 -2.660522e+002 -6.109135e+002
      vertex   2.500000e+001 -2.556957e+002 -6.288696e+002
      vertex   2.500000e+001 -2.373938e+002 -6.099882e+002
    endloop
  endfacet
  facet normal 1.000000e+000 0.000000e+000 0.000000e+000
    outer loop
      vertex   2.500000e+001 -2.477103e+002 -5.917422e+002
      vertex   2.500000e+001 -2.373938e+002 -6.099882e+002
      vertex   2.500000e+001 -2.196451e+002 -5.905858e+002
    endloop
  endfacet
  facet normal 1.000000e+000 1.317441e-016 -1.117947e-016
    outer loop
      vertex   2.500000e+001 -2.024644e+002 -5.706787e+002
      vertex   2.500000e+001 -2.127812e+002 -5.518024e+002
      vertex   2.500000e+001 -2.299481e+002 -5.720326e+002
    endloop
  endfacet
  facet normal 1.000000e+000 0.000000e+000 0.000000e+000
    outer loop
      vertex   2.500000e+001 -1.858661e+002 -5.502835e+002
      vertex   2.500000e+001 -1.962250e+002 -5.310695e+002
      vertex   2.500000e+001 -2.127812e+002 -5.518024e+002
    endloop
  endfacet
  facet normal 1.000000e+000 1.075496e-017 -1.715955e-016
    outer loop
      vertex   2.500000e+001 -1.698640e+002 -5.294173e+002
      vertex   2.500000e+001 -1.802942e+002 -5.098523e+002
      vertex   2.500000e+001 -1.962250e+002 -5.310695e+002
    endloop
  endfacet
  facet normal 1.000000e+000 1.411200e-016 -9.952220e-017
    outer loop
      vertex   2.500000e+001 -1.544715e+002 -5.080974e+002
      vertex   2.500000e+001 -1.650029e+002 -4.881696e+002
      vertex   2.500000e+001 -1.802942e+002 -5.098523e+002
    endloop
  endfacet
  facet normal 1.000000e+000 1.657819e-016 -4.880222e-017
    outer loop
      vertex   2.500000e+001 -4.246508e+001 -2.247127e+002
      vertex   2.500000e+001 -4.995765e+001 -2.501651e+002
      vertex   2.500000e+001 -2.867796e+001 -2.489696e+002
    endloop
  endfacet
  facet normal 1.000000e+000 0.000000e+000 0.000000e+000
    outer loop
      vertex   2.500000e+001 -3.573452e+001 -1.990483e+002
      vertex   2.500000e+001 -4.246508e+001 -2.247127e+002
      vertex   2.500000e+001 -2.144750e+001 -2.236874e+002
    endloop
  endfacet
  facet normal 1.000000e+000 0.000000e+000 0.000000e+000
    outer loop
      vertex   2.500000e+001 -2.017138e+001 -1.210117e+002
      vertex   2.500000e+001 -2.458272e+001 -1.471747e+002
      vertex   2.500000e+001 -4.178250e+000 -1.467360e+002
    endloop
  endfacet
  facet normal 1.000000e+000 1.455620e-018 -1.322051e-016
    outer loop
      vertex   2.500000e+001 -1.654187e+001 -9.472888e+001
      vertex   2.500000e+001 -2.017138e+001 -1.210117e+002
      vertex   2.500000e+001 8.809831e-002 -1.207887e+002
    endloop
  endfacet
  facet normal 1.000000e+000 1.099845e-016 -1.345176e-016
    outer loop
      vertex   2.500000e+001 -3.448823e+002 -6.818832e+002
      vertex   2.500000e+001 -3.341228e+002 -6.988777e+002
      vertex   2.500000e+001 -3.137654e+002 -6.822330e+002
    endloop
  endfacet
  facet normal 1.000000e+000 1.518860e-019 -2.015840e-016
    outer loop
      vertex   2.500000e+001 -3.243900e+002 -6.650301e+002
      vertex   2.500000e+001 -3.137654e+002 -6.822330e+002
      vertex   2.500000e+001 -2.938974e+002 -6.650072e+002
    endloop
  endfacet
  facet normal 1.000000e+000 1.213771e-016 -1.246523e-016
    outer loop
      vertex   2.500000e+001 -2.849574e+002 -6.295295e+002
      vertex   2.500000e+001 -2.745354e+002 -6.472144e+002
      vertex   2.500000e+001 -2.556957e+002 -6.288696e+002
    endloop
  endfacet
  facet normal 1.000000e+000 7.532439e-018 -1.828173e-016
    outer loop
      vertex   2.500000e+001 -2.196451e+002 -5.905858e+002
      vertex   2.500000e+001 -2.299481e+002 -5.720326e+002
      vertex   2.500000e+001 -2.477103e+002 -5.917422e+002
    endloop
  endfacet
  facet normal 1.000000e+000 1.006194e-017 -1.782998e-016
    outer loop
      vertex   2.500000e+001 -2.127812e+002 -5.518024e+002
      vertex   2.500000e+001 -2.024644e+002 -5.706787e+002
      vertex   2.500000e+001 -1.858661e+002 -5.502835e+002
    endloop
  endfacet
  facet normal 1.000000e+000 1.412889e-016 -1.020075e-016
    outer loop
      vertex   2.500000e+001 -1.802942e+002 -5.098523e+002
      vertex   2.500000e+001 -1.698640e+002 -5.294173e+002
      vertex   2.500000e+001 -1.544715e+002 -5.080974e+002
    endloop
  endfacet
  facet normal 1.000000e+000 0.000000e+000 0.000000e+000
    outer loop
      vertex   2.500000e+001 -1.255661e+002 -4.641682e+002
      vertex   2.500000e+001 -1.363927e+002 -4.434854e+002
      vertex   2.500000e+001 -1.503647e+002 -4.660407e+002
    endloop
  endfacet
  facet normal 1.000000e+000 1.229611e-017 -1.582151e-016
    outer loop
      vertex   2.500000e+001 -1.120774e+002 -4.415956e+002
      vertex   2.500000e+001 -1.230992e+002 -4.205236e+002
      vertex   2.500000e+001 -1.363927e+002 -4.434854e+002
    endloop
  endfacet
  facet normal 1.000000e+000 0.000000e+000 0.000000e+000
    outer loop
      vertex   2.500000e+001 -7.560043e+001 -3.716730e+002
      vertex   2.500000e+001 -6.480506e+001 -3.476954e+002
      vertex   2.500000e+001 -8.740493e+001 -3.494051e+002
    endloop
  endfacet
  facet normal 1.000000e+000 0.000000e+000 0.000000e+000
    outer loop
      vertex   2.500000e+001 -6.480506e+001 -3.476954e+002
      vertex   2.500000e+001 -5.470698e+001 -3.234158e+002
      vertex   2.500000e+001 -7.693755e+001 -3.250249e+002
    endloop
  endfacet
  facet normal 1.000000e+000 1.627506e-016 -6.223677e-017
    outer loop
      vertex   2.500000e+001 -5.470698e+001 -3.234158e+002
      vertex   2.500000e+001 -4.531465e+001 -2.988546e+002
      vertex   2.500000e+001 -6.720155e+001 -3.003435e+002
    endloop
  endfacet
  facet normal 1.000000e+000 1.644481e-016 -5.749687e-017
    outer loop
      vertex   2.500000e+001 -4.531465e+001 -2.988546e+002
      vertex   2.500000e+001 -3.663589e+001 -2.740323e+002
      vertex   2.500000e+001 -5.820558e+001 -2.753828e+002
    endloop
  endfacet
  facet normal 1.000000e+000 0.000000e+000 0.000000e+000
    outer loop
      vertex   2.500000e+001 -2.144750e+001 -2.236874e+002
      vertex   2.500000e+001 -1.495055e+001 -1.982069e+002
      vertex   2.500000e+001 -3.573452e+001 -1.990483e+002
    endloop
  endfacet
  facet normal 1.000000e+000 0.000000e+000 0.000000e+000
    outer loop
      vertex   2.500000e+001 -2.977197e+001 -1.731946e+002
      vertex   2.500000e+001 -3.573452e+001 -1.990483e+002
      vertex   2.500000e+001 -1.495055e+001 -1.982069e+002
    endloop
  endfacet
  facet normal 1.000000e+000 0.000000e+000 0.000000e+000
    outer loop
      vertex   2.500000e+001 -2.458272e+001 -1.471747e+002
      vertex   2.500000e+001 -2.977197e+001 -1.731946e+002
      vertex   2.500000e+001 -9.192527e+000 -1.725493e+002
    endloop
  endfacet
  facet normal 1.000000e+000 1.722252e-016 -2.322915e-017
    outer loop
      vertex   2.500000e+001 8.809831e-002 -1.207887e+002
      vertex   2.500000e+001 3.602956e+000 -9.472888e+001
      vertex   2.500000e+001 -1.654187e+001 -9.472888e+001
    endloop
  endfacet
  facet normal 1.000000e+000 -7.969463e-018 -2.137056e-016
    outer loop
      vertex   2.500000e+001 -3.873282e+002 -7.137198e+002
      vertex   2.500000e+001 -3.762374e+002 -7.303681e+002
      vertex   2.500000e+001 -3.549526e+002 -7.149272e+002
    endloop
  endfacet
  facet normal 1.000000e+000 0.000000e+000 0.000000e+000
    outer loop
      vertex   2.500000e+001 -3.658680e+002 -6.981179e+002
      vertex   2.500000e+001 -3.549526e+002 -7.149272e+002
      vertex   2.500000e+001 -3.341228e+002 -6.988777e+002
    endloop
  endfacet
  facet normal 1.000000e+000 0.000000e+000 0.000000e+000
    outer loop
      vertex   2.500000e+001 -2.938974e+002 -6.650072e+002
      vertex   2.500000e+001 -3.044091e+002 -6.475737e+002
      vertex   2.500000e+001 -3.243900e+002 -6.650301e+002
    endloop
  endfacet
  facet normal 1.000000e+000 0.000000e+000 0.000000e+000
    outer loop
      vertex   2.500000e+001 -3.044091e+002 -6.475737e+002
      vertex   2.500000e+001 -2.938974e+002 -6.650072e+002
      vertex   2.500000e+001 -2.745354e+002 -6.472144e+002
    endloop
  endfacet
  facet normal 1.000000e+000 0.000000e+000 0.000000e+000
    outer loop
      vertex   2.500000e+001 -2.373938e+002 -6.099882e+002
      vertex   2.500000e+001 -2.477103e+002 -5.917422e+002
      vertex   2.500000e+001 -2.660522e+002 -6.109135e+002
    endloop
  endfacet
  facet normal 1.000000e+000 0.000000e+000 0.000000e+000
    outer loop
      vertex   2.500000e+001 -1.962250e+002 -5.310695e+002
      vertex   2.500000e+001 -1.858661e+002 -5.502835e+002
      vertex   2.500000e+001 -1.698640e+002 -5.294173e+002
    endloop
  endfacet
  facet normal 1.000000e+000 1.440066e-016 -9.526001e-017
    outer loop
      vertex   2.500000e+001 -1.397014e+002 -4.863416e+002
      vertex   2.500000e+001 -1.503647e+002 -4.660407e+002
      vertex   2.500000e+001 -1.650029e+002 -4.881696e+002
    endloop
  endfacet
  facet normal 1.000000e+000 0.000000e+000 0.000000e+000
    outer loop
      vertex   2.500000e+001 -1.363927e+002 -4.434854e+002
      vertex   2.500000e+001 -1.255661e+002 -4.641682e+002
      vertex   2.500000e+001 -1.120774e+002 -4.415956e+002
    endloop
  endfacet
  facet normal 1.000000e+000 1.545523e-016 -8.062619e-017
    outer loop
      vertex   2.500000e+001 -9.924647e+001 -4.186428e+002
      vertex   2.500000e+001 -8.708410e+001 -3.953287e+002
      vertex   2.500000e+001 -1.104960e+002 -3.971757e+002
    endloop
  endfacet
  facet normal 1.000000e+000 0.000000e+000 0.000000e+000
    outer loop
      vertex   2.500000e+001 -7.693755e+001 -3.250249e+002
      vertex   2.500000e+001 -8.740493e+001 -3.494051e+002
      vertex   2.500000e+001 -6.480506e+001 -3.476954e+002
    endloop
  endfacet
  facet normal 1.000000e+000 1.625009e-016 -5.856624e-017
    outer loop
      vertex   2.500000e+001 -5.820558e+001 -2.753828e+002
      vertex   2.500000e+001 -6.720155e+001 -3.003435e+002
      vertex   2.500000e+001 -4.531465e+001 -2.988546e+002
    endloop
  endfacet
  facet normal 1.000000e+000 0.000000e+000 0.000000e+000
    outer loop
      vertex   2.500000e+001 -1.495055e+001 -1.982069e+002
      vertex   2.500000e+001 -9.192527e+000 -1.725493e+002
      vertex   2.500000e+001 -2.977197e+001 -1.731946e+002
    endloop
  endfacet
  facet normal 1.000000e+000 0.000000e+000 0.000000e+000
    outer loop
      vertex   2.500000e+001 -4.178250e+000 -1.467360e+002
      vertex   2.500000e+001 8.809831e-002 -1.207887e+002
      vertex   2.500000e+001 -2.017138e+001 -1.210117e+002
    endloop
  endfacet
  facet normal 1.000000e+000 -4.961407e-018 -2.072921e-016
    outer loop
      vertex   2.500000e+001 -3.341228e+002 -6.988777e+002
      vertex   2.500000e+001 -3.448823e+002 -6.818832e+002
      vertex   2.500000e+001 -3.658680e+002 -6.981179e+002
    endloop
  endfacet
  facet normal 1.000000e+000 2.343141e-018 -1.948004e-016
    outer loop
      vertex   2.500000e+001 -2.745354e+002 -6.472144e+002
      vertex   2.500000e+001 -2.849574e+002 -6.295295e+002
      vertex   2.500000e+001 -3.044091e+002 -6.475737e+002
    endloop
  endfacet
  facet normal 1.000000e+000 1.318422e-016 -1.137854e-016
    outer loop
      vertex   2.500000e+001 -2.299481e+002 -5.720326e+002
      vertex   2.500000e+001 -2.196451e+002 -5.905858e+002
      vertex   2.500000e+001 -2.024644e+002 -5.706787e+002
    endloop
  endfacet
  facet normal 1.000000e+000 1.241218e-017 -1.643814e-016
    outer loop
      vertex   2.500000e+001 -1.503647e+002 -4.660407e+002
      vertex   2.500000e+001 -1.397014e+002 -4.863416e+002
      vertex   2.500000e+001 -1.255661e+002 -4.641682e+002
    endloop
  endfacet
  facet normal 1.000000e+000 1.521601e-016 -8.505915e-017
    outer loop
      vertex   2.500000e+001 -1.230992e+002 -4.205236e+002
      vertex   2.500000e+001 -1.120774e+002 -4.415956e+002
      vertex   2.500000e+001 -9.924647e+001 -4.186428e+002
    endloop
  endfacet
  facet normal 1.000000e+000 1.186244e-017 -1.524228e-016
    outer loop
      vertex   2.500000e+001 -8.708410e+001 -3.953287e+002
      vertex   2.500000e+001 -7.560043e+001 -3.716730e+002
      vertex   2.500000e+001 -9.859439e+001 -3.734625e+002
    endloop
  endfacet
  facet normal 1.000000e+000 1.047362e-017 -1.447006e-016
    outer loop
      vertex   2.500000e+001 -6.720155e+001 -3.003435e+002
      vertex   2.500000e+001 -7.693755e+001 -3.250249e+002
      vertex   2.500000e+001 -5.470698e+001 -3.234158e+002
    endloop
  endfacet
  facet normal 1.000000e+000 0.000000e+000 0.000000e+000
    outer loop
      vertex   2.500000e+001 -9.192527e+000 -1.725493e+002
      vertex   2.500000e+001 -4.178250e+000 -1.467360e+002
      vertex   2.500000e+001 -2.458272e+001 -1.471747e+002
    endloop
  endfacet
  facet normal 1.000000e+000 1.099932e-016 -1.337456e-016
    outer loop
      vertex   2.500000e+001 -3.137654e+002 -6.822330e+002
      vertex   2.500000e+001 -3.243900e+002 -6.650301e+002
      vertex   2.500000e+001 -3.448823e+002 -6.818832e+002
    endloop
  endfacet
  facet normal 1.000000e+000 1.441970e-016 -9.789605e-017
    outer loop
      vertex   2.500000e+001 -1.650029e+002 -4.881696e+002
      vertex   2.500000e+001 -1.544715e+002 -5.080974e+002
      vertex   2.500000e+001 -1.397014e+002 -4.863416e+002
    endloop
  endfacet
  facet normal 1.000000e+000 1.543012e-016 -7.744351e-017
    outer loop
      vertex   2.500000e+001 -9.859439e+001 -3.734625e+002
      vertex   2.500000e+001 -1.104960e+002 -3.971757e+002
      vertex   2.500000e+001 -8.708410e+001 -3.953287e+002
    endloop
  endfacet
  facet normal 1.000000e+000 1.642109e-016 -5.370825e-017
    outer loop
      vertex   2.500000e+001 -4.995765e+001 -2.501651e+002
      vertex   2.500000e+001 -5.820558e+001 -2.753828e+002
      vertex   2.500000e+001 -3.663589e+001 -2.740323e+002
    endloop
  endfacet
  facet normal 1.000000e+000 1.213450e-016 -1.232297e-016
    outer loop
      vertex   2.500000e+001 -2.556957e+002 -6.288696e+002
      vertex   2.500000e+001 -2.660522e+002 -6.109135e+002
      vertex   2.500000e+001 -2.849574e+002 -6.295295e+002
    endloop
  endfacet
  facet normal 1.000000e+000 0.000000e+000 0.000000e+000
    outer loop
      vertex   2.500000e+001 -8.740493e+001 -3.494051e+002
      vertex   2.500000e+001 -9.859439e+001 -3.734625e+002
      vertex   2.500000e+001 -7.560043e+001 -3.716730e+002
    endloop
  endfacet
  facet normal 1.000000e+000 2.932916e-016 -4.299001e-016
    outer loop
      vertex   2.500000e+001 -4.092439e+002 -7.286752e+002
      vertex   2.500000e+001 -3.979595e+002 -7.451877e+002
      vertex   2.500000e+001 -3.762374e+002 -7.303681e+002
    endloop
  endfacet
  facet normal 1.000000e+000 1.519194e-016 -8.200594e-017
    outer loop
      vertex   2.500000e+001 -1.104960e+002 -3.971757e+002
      vertex   2.500000e+001 -1.230992e+002 -4.205236e+002
      vertex   2.500000e+001 -9.924647e+001 -4.186428e+002
    endloop
  endfacet
  facet normal 1.000000e+000 0.000000e+000 0.000000e+000
    outer loop
      vertex   2.500000e+001 -3.549526e+002 -7.149272e+002
      vertex   2.500000e+001 -3.658680e+002 -6.981179e+002
      vertex   2.500000e+001 -3.873282e+002 -7.137198e+002
    endloop
  endfacet
  facet normal 1.000000e+000 3.154311e-016 1.737310e-018
    outer loop
      vertex   2.500000e+001 -3.762374e+002 -7.303681e+002
      vertex   2.500000e+001 -3.873282e+002 -7.137198e+002
      vertex   2.500000e+001 -4.092439e+002 -7.286752e+002
    endloop
  endfacet
  facet normal 0.000000e+000 -5.636654e-001 8.260032e-001
    outer loop
      vertex   -3.000000e+002 -4.092439e+002 -7.286752e+002
      vertex   2.500000e+001 -4.092439e+002 -7.286752e+002
      vertex   2.500000e+001 -3.873282e+002 -7.137198e+002
    endloop
  endfacet
  facet normal 2.766144e-016 -5.880366e-001 8.088343e-001
    outer loop
      vertex   2.500000e+001 -3.873282e+002 -7.137198e+002
      vertex   2.500000e+001 -3.658680e+002 -6.981179e+002
      vertex   -3.000000e+002 -3.658680e+002 -6.981179e+002
    endloop
  endfacet
  facet normal 2.703277e-016 -6.118852e-001 7.909466e-001
    outer loop
      vertex   -3.000000e+002 -3.448823e+002 -6.818832e+002
      vertex   -3.000000e+002 -3.658680e+002 -6.981179e+002
      vertex   2.500000e+001 -3.658680e+002 -6.981179e+002
    endloop
  endfacet
  facet normal -2.640411e-016 -6.351900e-001 7.723559e-001
    outer loop
      vertex   2.500000e+001 -3.448823e+002 -6.818832e+002
      vertex   2.500000e+001 -3.243900e+002 -6.650301e+002
      vertex   -3.000000e+002 -3.243900e+002 -6.650301e+002
    endloop
  endfacet
  facet normal -2.577544e-016 -6.579303e-001 7.530788e-001
    outer loop
      vertex   -3.000000e+002 -3.044091e+002 -6.475737e+002
      vertex   -3.000000e+002 -3.243900e+002 -6.650301e+002
      vertex   2.500000e+001 -3.243900e+002 -6.650301e+002
    endloop
  endfacet
  facet normal 2.514677e-016 -6.800859e-001 7.331325e-001
    outer loop
      vertex   2.500000e+001 -3.044091e+002 -6.475737e+002
      vertex   2.500000e+001 -2.849574e+002 -6.295295e+002
      vertex   -3.000000e+002 -2.849574e+002 -6.295295e+002
    endloop
  endfacet
  facet normal 2.451810e-016 -7.016370e-001 7.125346e-001
    outer loop
      vertex   2.500000e+001 -2.849574e+002 -6.295295e+002
      vertex   2.500000e+001 -2.660522e+002 -6.109135e+002
      vertex   -3.000000e+002 -2.660522e+002 -6.109135e+002
    endloop
  endfacet
  facet normal 2.388943e-016 -7.225646e-001 6.913034e-001
    outer loop
      vertex   -3.000000e+002 -2.477103e+002 -5.917422e+002
      vertex   -3.000000e+002 -2.660522e+002 -6.109135e+002
      vertex   2.500000e+001 -2.660522e+002 -6.109135e+002
    endloop
  endfacet
  facet normal 0.000000e+000 -7.428501e-001 6.694578e-001
    outer loop
      vertex   2.500000e+001 -2.477103e+002 -5.917422e+002
      vertex   2.500000e+001 -2.299481e+002 -5.720326e+002
      vertex   -3.000000e+002 -2.299481e+002 -5.720326e+002
    endloop
  endfacet
  facet normal 0.000000e+000 -7.624753e-001 6.470173e-001
    outer loop
      vertex   2.500000e+001 -2.299481e+002 -5.720326e+002
      vertex   2.500000e+001 -2.127812e+002 -5.518024e+002
      vertex   -3.000000e+002 -2.127812e+002 -5.518024e+002
    endloop
  endfacet
  facet normal 0.000000e+000 -7.814229e-001 6.240018e-001
    outer loop
      vertex   2.500000e+001 -2.127812e+002 -5.518024e+002
      vertex   2.500000e+001 -1.962250e+002 -5.310695e+002
      vertex   -3.000000e+002 -1.962250e+002 -5.310695e+002
    endloop
  endfacet
  facet normal 0.000000e+000 -7.996761e-001 6.004317e-001
    outer loop
      vertex   -3.000000e+002 -1.802942e+002 -5.098523e+002
      vertex   -3.000000e+002 -1.962250e+002 -5.310695e+002
      vertex   2.500000e+001 -1.962250e+002 -5.310695e+002
    endloop
  endfacet
  facet normal -1.005871e-016 -8.172185e-001 5.763280e-001
    outer loop
      vertex   2.500000e+001 -1.802942e+002 -5.098523e+002
      vertex   2.500000e+001 -1.650029e+002 -4.881696e+002
      vertex   -3.000000e+002 -1.650029e+002 -4.881696e+002
    endloop
  endfacet
  facet normal -9.430038e-017 -8.340347e-001 5.517120e-001
    outer loop
      vertex   2.500000e+001 -1.650029e+002 -4.881696e+002
      vertex   2.500000e+001 -1.503647e+002 -4.660407e+002
      vertex   -3.000000e+002 -1.503647e+002 -4.660407e+002
    endloop
  endfacet
  facet normal -9.430038e-017 -8.501096e-001 5.266058e-001
    outer loop
      vertex   2.500000e+001 -1.503647e+002 -4.660407e+002
      vertex   2.500000e+001 -1.363927e+002 -4.434854e+002
      vertex   -3.000000e+002 -1.363927e+002 -4.434854e+002
    endloop
  endfacet
  facet normal -8.172699e-017 -8.654290e-001 5.010316e-001
    outer loop
      vertex   -3.000000e+002 -1.230992e+002 -4.205236e+002
      vertex   -3.000000e+002 -1.363927e+002 -4.434854e+002
      vertex   2.500000e+001 -1.363927e+002 -4.434854e+002
    endloop
  endfacet
  facet normal -8.172699e-017 -8.799793e-001 4.750120e-001
    outer loop
      vertex   2.500000e+001 -1.230992e+002 -4.205236e+002
      vertex   2.500000e+001 -1.104960e+002 -3.971757e+002
      vertex   -3.000000e+002 -1.104960e+002 -3.971757e+002
    endloop
  endfacet
  facet normal 7.544030e-017 -8.937475e-001 4.485703e-001
    outer loop
      vertex   2.500000e+001 -1.104960e+002 -3.971757e+002
      vertex   2.500000e+001 -9.859439e+001 -3.734625e+002
      vertex   -3.000000e+002 -9.859439e+001 -3.734625e+002
    endloop
  endfacet
  facet normal 7.544030e-017 -9.067215e-001 4.217300e-001
    outer loop
      vertex   2.500000e+001 -9.859439e+001 -3.734625e+002
      vertex   2.500000e+001 -8.740493e+001 -3.494051e+002
      vertex   -3.000000e+002 -8.740493e+001 -3.494051e+002
    endloop
  endfacet
  facet normal 6.915361e-017 -9.188896e-001 3.945149e-001
    outer loop
      vertex   -3.000000e+002 -7.693755e+001 -3.250249e+002
      vertex   -3.000000e+002 -8.740493e+001 -3.494051e+002
      vertex   2.500000e+001 -8.740493e+001 -3.494051e+002
    endloop
  endfacet
  facet normal 6.286692e-017 -9.302410e-001 3.669491e-001
    outer loop
      vertex   2.500000e+001 -7.693755e+001 -3.250249e+002
      vertex   2.500000e+001 -6.720155e+001 -3.003435e+002
      vertex   -3.000000e+002 -6.720155e+001 -3.003435e+002
    endloop
  endfacet
  facet normal -5.972357e-017 -9.407658e-001 3.390572e-001
    outer loop
      vertex   2.500000e+001 -6.720155e+001 -3.003435e+002
      vertex   2.500000e+001 -5.820558e+001 -2.753828e+002
      vertex   -3.000000e+002 -5.820558e+001 -2.753828e+002
    endloop
  endfacet
  facet normal 5.343688e-017 -9.504544e-001 3.108640e-001
    outer loop
      vertex   2.500000e+001 -5.820558e+001 -2.753828e+002
      vertex   2.500000e+001 -4.995765e+001 -2.501651e+002
      vertex   -3.000000e+002 -4.995765e+001 -2.501651e+002
    endloop
  endfacet
  facet normal -5.029353e-017 -9.592984e-001 2.823945e-001
    outer loop
      vertex   2.500000e+001 -4.995765e+001 -2.501651e+002
      vertex   2.500000e+001 -4.246508e+001 -2.247127e+002
      vertex   -3.000000e+002 -4.246508e+001 -2.247127e+002
    endloop
  endfacet
  facet normal 4.400684e-017 -9.672898e-001 2.536741e-001
    outer loop
      vertex   2.500000e+001 -4.246508e+001 -2.247127e+002
      vertex   2.500000e+001 -3.573452e+001 -1.990483e+002
      vertex   -3.000000e+002 -3.573452e+001 -1.990483e+002
    endloop
  endfacet
  facet normal -3.772015e-017 -9.744215e-001 2.247282e-001
    outer loop
      vertex   2.500000e+001 -3.573452e+001 -1.990483e+002
      vertex   2.500000e+001 -2.977197e+001 -1.731946e+002
      vertex   -3.000000e+002 -2.977197e+001 -1.731946e+002
    endloop
  endfacet
  facet normal -3.457680e-017 -9.806872e-001 1.955825e-001
    outer loop
      vertex   2.500000e+001 -2.977197e+001 -1.731946e+002
      vertex   2.500000e+001 -2.458272e+001 -1.471747e+002
      vertex   -3.000000e+002 -2.458272e+001 -1.471747e+002
    endloop
  endfacet
  facet normal -2.829011e-017 -9.860814e-001 1.662631e-001
    outer loop
      vertex   -3.000000e+002 -2.017138e+001 -1.210117e+002
      vertex   -3.000000e+002 -2.458272e+001 -1.471747e+002
      vertex   2.500000e+001 -2.458272e+001 -1.471747e+002
    endloop
  endfacet
  facet normal 0.000000e+000 -9.905993e-001 1.367959e-001
    outer loop
      vertex   2.500000e+001 -2.017138e+001 -1.210117e+002
      vertex   2.500000e+001 -1.654187e+001 -9.472888e+001
      vertex   -3.000000e+002 -1.654187e+001 -9.472888e+001
    endloop
  endfacet
  facet normal 2.357509e-017 -9.905993e-001 1.367959e-001
    outer loop
      vertex   -3.000000e+002 -1.654187e+001 -9.472888e+001
      vertex   -3.000000e+002 -2.017138e+001 -1.210117e+002
      vertex   2.500000e+001 -2.017138e+001 -1.210117e+002
    endloop
  endfacet
  facet normal 2.829011e-017 -9.860814e-001 1.662631e-001
    outer loop
      vertex   2.500000e+001 -2.458272e+001 -1.471747e+002
      vertex   2.500000e+001 -2.017138e+001 -1.210117e+002
      vertex   -3.000000e+002 -2.017138e+001 -1.210117e+002
    endloop
  endfacet
  facet normal -3.457680e-017 -9.806872e-001 1.955825e-001
    outer loop
      vertex   -3.000000e+002 -2.458272e+001 -1.471747e+002
      vertex   -3.000000e+002 -2.977197e+001 -1.731946e+002
      vertex   2.500000e+001 -2.977197e+001 -1.731946e+002
    endloop
  endfacet
  facet normal 3.772015e-017 -9.744215e-001 2.247282e-001
    outer loop
      vertex   -3.000000e+002 -2.977197e+001 -1.731946e+002
      vertex   -3.000000e+002 -3.573452e+001 -1.990483e+002
      vertex   2.500000e+001 -3.573452e+001 -1.990483e+002
    endloop
  endfacet
  facet normal -4.400684e-017 -9.672898e-001 2.536741e-001
    outer loop
      vertex   -3.000000e+002 -3.573452e+001 -1.990483e+002
      vertex   -3.000000e+002 -4.246508e+001 -2.247127e+002
      vertex   2.500000e+001 -4.246508e+001 -2.247127e+002
    endloop
  endfacet
  facet normal 4.715019e-017 -9.592984e-001 2.823945e-001
    outer loop
      vertex   -3.000000e+002 -4.246508e+001 -2.247127e+002
      vertex   -3.000000e+002 -4.995765e+001 -2.501651e+002
      vertex   2.500000e+001 -4.995765e+001 -2.501651e+002
    endloop
  endfacet
  facet normal -5.343688e-017 -9.504544e-001 3.108640e-001
    outer loop
      vertex   -3.000000e+002 -4.995765e+001 -2.501651e+002
      vertex   -3.000000e+002 -5.820558e+001 -2.753828e+002
      vertex   2.500000e+001 -5.820558e+001 -2.753828e+002
    endloop
  endfacet
  facet normal 5.658023e-017 -9.407658e-001 3.390572e-001
    outer loop
      vertex   -3.000000e+002 -5.820558e+001 -2.753828e+002
      vertex   -3.000000e+002 -6.720155e+001 -3.003435e+002
      vertex   2.500000e+001 -6.720155e+001 -3.003435e+002
    endloop
  endfacet
  facet normal 6.286692e-017 -9.302410e-001 3.669491e-001
    outer loop
      vertex   -3.000000e+002 -6.720155e+001 -3.003435e+002
      vertex   -3.000000e+002 -7.693755e+001 -3.250249e+002
      vertex   2.500000e+001 -7.693755e+001 -3.250249e+002
    endloop
  endfacet
  facet normal 6.915361e-017 -9.188896e-001 3.945149e-001
    outer loop
      vertex   2.500000e+001 -8.740493e+001 -3.494051e+002
      vertex   2.500000e+001 -7.693755e+001 -3.250249e+002
      vertex   -3.000000e+002 -7.693755e+001 -3.250249e+002
    endloop
  endfacet
  facet normal 7.544030e-017 -9.067215e-001 4.217300e-001
    outer loop
      vertex   -3.000000e+002 -8.740493e+001 -3.494051e+002
      vertex   -3.000000e+002 -9.859439e+001 -3.734625e+002
      vertex   2.500000e+001 -9.859439e+001 -3.734625e+002
    endloop
  endfacet
  facet normal -8.172699e-017 -8.937475e-001 4.485703e-001
    outer loop
      vertex   -3.000000e+002 -9.859439e+001 -3.734625e+002
      vertex   -3.000000e+002 -1.104960e+002 -3.971757e+002
      vertex   2.500000e+001 -1.104960e+002 -3.971757e+002
    endloop
  endfacet
  facet normal 8.172699e-017 -8.799793e-001 4.750120e-001
    outer loop
      vertex   -3.000000e+002 -1.104960e+002 -3.971757e+002
      vertex   -3.000000e+002 -1.230992e+002 -4.205236e+002
      vertex   2.500000e+001 -1.230992e+002 -4.205236e+002
    endloop
  endfacet
  facet normal 8.801369e-017 -8.654290e-001 5.010316e-001
    outer loop
      vertex   2.500000e+001 -1.363927e+002 -4.434854e+002
      vertex   2.500000e+001 -1.230992e+002 -4.205236e+002
      vertex   -3.000000e+002 -1.230992e+002 -4.205236e+002
    endloop
  endfacet
  facet normal -9.430038e-017 -8.501096e-001 5.266058e-001
    outer loop
      vertex   -3.000000e+002 -1.363927e+002 -4.434854e+002
      vertex   -3.000000e+002 -1.503647e+002 -4.660407e+002
      vertex   2.500000e+001 -1.503647e+002 -4.660407e+002
    endloop
  endfacet
  facet normal -9.430038e-017 -8.340347e-001 5.517120e-001
    outer loop
      vertex   -3.000000e+002 -1.503647e+002 -4.660407e+002
      vertex   -3.000000e+002 -1.650029e+002 -4.881696e+002
      vertex   2.500000e+001 -1.650029e+002 -4.881696e+002
    endloop
  endfacet
  facet normal 0.000000e+000 -8.172185e-001 5.763280e-001
    outer loop
      vertex   -3.000000e+002 -1.650029e+002 -4.881696e+002
      vertex   -3.000000e+002 -1.802942e+002 -5.098523e+002
      vertex   2.500000e+001 -1.802942e+002 -5.098523e+002
    endloop
  endfacet
  facet normal 0.000000e+000 -7.996761e-001 6.004317e-001
    outer loop
      vertex   2.500000e+001 -1.962250e+002 -5.310695e+002
      vertex   2.500000e+001 -1.802942e+002 -5.098523e+002
      vertex   -3.000000e+002 -1.802942e+002 -5.098523e+002
    endloop
  endfacet
  facet normal 0.000000e+000 -7.814229e-001 6.240018e-001
    outer loop
      vertex   -3.000000e+002 -1.962250e+002 -5.310695e+002
      vertex   -3.000000e+002 -2.127812e+002 -5.518024e+002
      vertex   2.500000e+001 -2.127812e+002 -5.518024e+002
    endloop
  endfacet
  facet normal 0.000000e+000 -7.624753e-001 6.470173e-001
    outer loop
      vertex   -3.000000e+002 -2.127812e+002 -5.518024e+002
      vertex   -3.000000e+002 -2.299481e+002 -5.720326e+002
      vertex   2.500000e+001 -2.299481e+002 -5.720326e+002
    endloop
  endfacet
  facet normal 2.326076e-016 -7.428501e-001 6.694578e-001
    outer loop
      vertex   -3.000000e+002 -2.299481e+002 -5.720326e+002
      vertex   -3.000000e+002 -2.477103e+002 -5.917422e+002
      vertex   2.500000e+001 -2.477103e+002 -5.917422e+002
    endloop
  endfacet
  facet normal 2.388943e-016 -7.225646e-001 6.913034e-001
    outer loop
      vertex   2.500000e+001 -2.660522e+002 -6.109135e+002
      vertex   2.500000e+001 -2.477103e+002 -5.917422e+002
      vertex   -3.000000e+002 -2.477103e+002 -5.917422e+002
    endloop
  endfacet
  facet normal 2.451810e-016 -7.016370e-001 7.125346e-001
    outer loop
      vertex   -3.000000e+002 -2.660522e+002 -6.109135e+002
      vertex   -3.000000e+002 -2.849574e+002 -6.295295e+002
      vertex   2.500000e+001 -2.849574e+002 -6.295295e+002
    endloop
  endfacet
  facet normal 2.514677e-016 -6.800859e-001 7.331325e-001
    outer loop
      vertex   -3.000000e+002 -2.849574e+002 -6.295295e+002
      vertex   -3.000000e+002 -3.044091e+002 -6.475737e+002
      vertex   2.500000e+001 -3.044091e+002 -6.475737e+002
    endloop
  endfacet
  facet normal 2.514677e-016 -6.579303e-001 7.530788e-001
    outer loop
      vertex   2.500000e+001 -3.243900e+002 -6.650301e+002
      vertex   2.500000e+001 -3.044091e+002 -6.475737e+002
      vertex   -3.000000e+002 -3.044091e+002 -6.475737e+002
    endloop
  endfacet
  facet normal 2.640411e-016 -6.351900e-001 7.723559e-001
    outer loop
      vertex   -3.000000e+002 -3.243900e+002 -6.650301e+002
      vertex   -3.000000e+002 -3.448823e+002 -6.818832e+002
      vertex   2.500000e+001 -3.448823e+002 -6.818832e+002
    endloop
  endfacet
  facet normal 2.703277e-016 -6.118852e-001 7.909466e-001
    outer loop
      vertex   2.500000e+001 -3.658680e+002 -6.981179e+002
      vertex   2.500000e+001 -3.448823e+002 -6.818832e+002
      vertex   -3.000000e+002 -3.448823e+002 -6.818832e+002
    endloop
  endfacet
  facet normal 2.766144e-016 -5.880366e-001 8.088343e-001
    outer loop
      vertex   -3.000000e+002 -3.658680e+002 -6.981179e+002
      vertex   -3.000000e+002 -3.873282e+002 -7.137198e+002
      vertex   2.500000e+001 -3.873282e+002 -7.137198e+002
    endloop
  endfacet
  facet normal 2.821686e-016 -5.636654e-001 8.260032e-001
    outer loop
      vertex   2.500000e+001 -3.873282e+002 -7.137198e+002
      vertex   -3.000000e+002 -3.873282e+002 -7.137198e+002
      vertex   -3.000000e+002 -4.092439e+002 -7.286752e+002
    endloop
  endfacet
  facet normal 0.000000e+000 0.000000e+000 1.000000e+000
    outer loop
      vertex   -3.000000e+002 -1.654187e+001 -9.472888e+001
      vertex   2.500000e+001 -1.654187e+001 -9.472888e+001
      vertex   2.500000e+001 3.602956e+000 -9.472888e+001
    endloop
  endfacet
  facet normal 0.000000e+000 0.000000e+000 1.000000e+000
    outer loop
      vertex   2.500000e+001 3.602956e+000 -9.472888e+001
      vertex   -3.000000e+002 3.602956e+000 -9.472888e+001
      vertex   -3.000000e+002 -1.654187e+001 -9.472888e+001
    endloop
  endfacet
endsolid
